/* XPM */
static char *result[] = {
/* columns rows colors chars-per-pixel */
"75 75 26 1 ",
"  c #181425",
". c #103637",
"X c #732100",
"o c #262B44",
"O c #004066",
"+ c #004166",
"@ c #004167",
"# c #3A4466",
"$ c #AC562B",
"% c #89613F",
"& c #E08B62",
"* c #5A6988",
"= c #7A4DD5",
"- c #009493",
"; c #0083C4",
": c #00B4EF",
"> c #00D2D4",
", c #85A0A5",
"< c #FFBE97",
"1 c #B8D3D7",
"2 c #FFFFFA",
"3 c #FEFFFB",
"4 c #FFFFFD",
"5 c #FFFDFF",
"6 c #FCFFFE",
"7 c white",
/* pixels */
"     ******************     ########################**************         ",
"     ******************     ########################**************         ",
"     ******************     ########################**************         ",
"     ******************     ########################**************         ",
"     ******************     ########################**************         ",
"*****##################*****ooooo#################################****     ",
"*****##################*****ooooo#################################****     ",
"*****##################*****ooooo#################################****     ",
"*****##################*****ooooo#################################****     ",
"############################*****oooo#################################     ",
"############################*****oooo#################################     ",
"############%%%XXXXXXXXXXXXXXXXXXXXXXXXXXXXXXXXXXXXXXXXXXXX%%%########     ",
"############%%%XXXXXXXXXXXXXXXXXXXXXXXXXXXXXXXXXXXXXXXXXXXX%%%########     ",
"############%%%XXXXXXXXXXXXXXXXXXXXXXXXXXXXXXXXXXXXXXXXXXXX%%%########     ",
"############XXX%%%%%%%%%%%%%%%%%%%%%%%%%%%%%%%%%%%%%%%%%%%%XXXoooooooo     ",
"############XXX%%%%%%%%%%%%%%%%%%%%%%%%%%%%%%%%%%%%%%%%%%%%XXXoooooooo     ",
"############XXX%%%%%%%%%%%%%%%%%%%%%%%%%%%%%%%%%%%%%%%%%%%%XXXoooooooo     ",
"############XXX%%%%%%%%%%%%%%%%%%%XXXXXXXXXXXXXXXXXXXXXXXXXXXXoooooooo     ",
"############XXX%%%%%%%%%%%%%%%%%%%XXXXXXXXXXXXXXXXXXXXXXXXXXXXoooooooo     ",
"ooooo#######XXX%%%%%%%%%%%%%%%%%%%XXXXXXXXXXXXXXXXXXXXXXXXXXXX             ",
"ooooo#######XXX%%%%%%%%%%%%%%%%XXX<<<<<<<<<<<<<<<<<<<<<<<<<XXX             ",
"ooooo#######XXX%%%%%%%%%%%%%%%%XXX<<<<<<<<<<<<<<<<<<<<<<<<<XXX             ",
"ooooo#######XXX%%%%%%%%%%%%%%%%XXX<<<<<<<<<<<<<<<<<<<<<<<<<XXX             ",
"     oooo###XXX%%%%%%%%%%%%%%%%XXX<<<<<<<<<<<<<<<<<<<<<<<<<XXX****         ",
"     oooo###XXX%%%%%%%%%%%%XXXX<<<<<<<<<<<<<<<<<<<<<<<<<<<<XXX****         ",
"     oooo###XXX%%%%%%%%%%%%XXXX<<<<<<<<<<<<<<<<<<<<<<<<<<<<XXX****         ",
"     oooo###XXX%%%%%%XXXXXXXXXX<<<<<<66====<<<<<<====62<<<<XXX****         ",
"     oooo###XXX%%%%%%XXXXXXXXXX<<<<<<33====<<<<<<====35<<<<XXX****         ",
"         oooXXX%%%%%%XXXXXXXXXX<<<<<<77====<<<<<<====74<<<<XXX####****     ",
"         oooXXX%%%%%%XXXXXXXXXX<<<<<<77====<<<<<<====74<<<<XXX####****     ",
"         oooXXX%%%XXX<<<<<<XXXX<<<<<<77====<<<<<<====74<<<<XXX####****     ",
"         oooXXX%%%XXX<<<<<<XXXX<<<<<<77====<<<<<<====74<<<<XXX####****     ",
"         oooXXX%%%XXX<<<<<<XXXX<<<<<<77====<<<<<<====74<<<<XXX####****     ",
"         ***XXXXXXXXX<<<<&&&&&&<<<<<<<<<<<<&&&&&&<<<<<<<<<<XXX####oooo     ",
"         ***XXXXXXXXX<<<<&&&&&&<<<<<<<<<<<<&&&&&&<<<<<<<<<<XXX####oooo     ",
"         ***XXXXXXXXX<<<<&&&&&&<<<<<<<<<<<<&&&&&&<<<<<<<<<<XXX####oooo     ",
"         ***XXX&&&&&&&&&&&&&&&&<<<<<<<<$<<<<<<<<<<<<<$<<<<<XXX####oooo     ",
"     ****###XXX&&&&&&&&&&&&&&&&<<<<<<<<<$$$$$$$$$$$$$<<<<<<XXXoooo         ",
"     ****###XXX&&&&&&&&&&&&&&&&<<<<<<<<<<<<<<<<<<<<<<<<<<<<XXXoooo         ",
"     ****###XXXXXXXXXXXXXXXXXXXXXXXXXXXXXXXXXXXXXXXXXXXXXXXXXXoooo         ",
"     ****###XXXXXXXXXXXXXXXXXXXXXXXXXXXXXXXXXXXXXXXXXXXXXXXXXXoooo         ",
"     ****###XXXXXXXXXXXXXXXXXXXXXXXXXXXXXXXXXXXXXXXXXXXXXXXXXXoooo         ",
"     ##########XXXXXX--------------------------------..o     *********     ",
"     ##########XXXXXX--------------------------------..XXXX  *********     ",
"     #######XXX&&&<<<XXXX----------------------------..XXXX  *********     ",
"     #######XXX&&&<<<XXXX------>>>>>>>>>>>>>>>>>>>>>>..XXXX  *********     ",
"     #######XXX&&&<<<XXXX------>>>>>>>>>>>>>>>>>>>>>>..<<<<XXX********     ",
"     oooo###XXX&&&<<<XXXX------>>>>>>>>>>>>>>>>>>>>>>..<<<<XXX########*****",
"     oooo###XXX&&&<<<XXXX;;;;;;::::::::::::::::::::::@O<<<<XXX########*****",
"     oooo###XXX&&&<<<XXXX;;;;;;::::::::::::::::::::::@O<<<<XXX########*****",
"     oooo###XXX&&&<<<XXXX;;;;;;::::::::::::::::::::::@@<<<<XXX########*****",
"     oooo######XXXXXX@@@@;;;;;;::::::::::::::::::::::@@<<<<XXX########*****",
"*****    ######XXXXXX@@@@@@@@@@@@@@@@@@@@@@@@@@@@@@@@@+<<<<XXX#############",
"*****    #########...@@@@@@@@@@@@@@@@@@@@@@@@@@@@@@@@@+XXXX################",
"*****    #########...,,,,,,1111111111...,,,1111111111..XXXX################",
"*****    #########...,,,,,,1111111111...,,,1111111111..####################",
"#####    #########...,,,,,,1111111111...,,,1111111111..####################",
"#####    #########......................,,,1111111111..####################",
"#####    #########.....................................####################",
"#####    #########.....................................####################",
"#####    ########################oooo .................####################",
"ooooo    ooooo#########ooooo                   ooooo#######################",
"ooooo    ooooo#########ooooo                   ooooo#######################",
"ooooo    ooooo#########ooooo                   ooooo#######################",
"ooooo    ooooo#########ooooo                   ooooo#######################",
"ooooo    ooooo#########ooooo                   ooooo#######################",
"              ooooooooo          **************     ooooooooooooooooooooooo",
"              ooooooooo          **************     ooooooooooooooooooooooo",
"              ooooooooo          **************     ooooooooooooooooooooooo",
"              ooooooooo          **************     ooooooooooooooooooooooo",
"                            *****##############*****                       ",
"                            *****##############*****                       ",
"                            *****##############*****                       ",
"                            *****##############*****                       ",
"                            *****##############*****                       "
};
