/* XPM */
static char *result[] = {
/* columns rows colors chars-per-pixel */
"75 75 194 2 ",
"   c #181425",
".  c #161826",
"X  c #022F2F",
"o  c #012F30",
"O  c #0E2F35",
"+  c #112F36",
"@  c #152E39",
"#  c #162E39",
"$  c #1A2D3B",
"%  c #182E3A",
"&  c #003030",
"*  c #013030",
"=  c #003131",
"-  c #023031",
";  c #033032",
":  c #003232",
">  c #003333",
",  c #043031",
"<  c #053032",
"1  c #043132",
"2  c #073033",
"3  c #053233",
"4  c #003434",
"5  c #003535",
"6  c #003636",
"7  c #063434",
"8  c #063636",
"9  c #083135",
"0  c #093335",
"q  c #0A3236",
"w  c #0E3339",
"e  c #003838",
"r  c #003B3B",
"t  c #153636",
"y  c #113539",
"u  c #14363C",
"i  c #193541",
"p  c #1C3644",
"a  c #1F3747",
"s  c #242B43",
"d  c #252B43",
"f  c #222C41",
"g  c #232C41",
"h  c #232C42",
"j  c #242C42",
"k  c #262B44",
"l  c #22394A",
"z  c #23394B",
"x  c #263A4F",
"c  c #293B51",
"v  c #004444",
"b  c #004949",
"n  c #005151",
"m  c #005453",
"M  c #005756",
"N  c #005858",
"B  c #005D5C",
"V  c #005F5E",
"C  c #3C4B52",
"Z  c #32405C",
"A  c #33405D",
"S  c #34415F",
"D  c #334959",
"F  c #384C5E",
"G  c #354160",
"H  c #364261",
"J  c #374262",
"K  c #384363",
"L  c #394364",
"P  c #3A4466",
"I  c #394D60",
"U  c #3E5165",
"Y  c #006261",
"T  c #006767",
"R  c #006B6B",
"E  c #007373",
"W  c #007474",
"Q  c #007B7B",
"!  c #425361",
"~  c #415369",
"^  c #4D6078",
"/  c #556481",
"(  c #556582",
")  c #576684",
"_  c #586786",
"`  c #5A6988",
"'  c #008282",
"]  c #008585",
"[  c #008785",
"{  c #008987",
"}  c #008C8B",
"|  c #008D8D",
" . c #008E8C",
".. c #008F8D",
"X. c #009393",
"o. c #009896",
"O. c #009997",
"+. c #009D9B",
"@. c #009D9C",
"#. c #009F9D",
"$. c #009F9F",
"%. c #00A1A0",
"&. c #00A2A1",
"*. c #00A3A1",
"=. c #00A3A3",
"-. c #00A6A4",
";. c #00A7A6",
":. c #00A9A9",
">. c #00ACAC",
",. c #00AEAE",
"<. c #00AFAE",
"1. c #00B3B3",
"2. c #00B4B3",
"3. c #00B6B6",
"4. c #00B8B8",
"5. c #00B9B9",
"6. c #00BCBC",
"7. c #00BEBE",
"8. c #01BEBE",
"9. c #00BFBE",
"0. c #729297",
"q. c #74949C",
"w. c #7898A4",
"e. c #00C0BF",
"r. c #00C1C1",
"t. c #01C1C1",
"y. c #00C2C1",
"u. c #00C2C2",
"i. c #00C4C3",
"p. c #00C4C4",
"a. c #00C5C5",
"s. c #00C6C6",
"d. c #00C7C7",
"f. c #00C9C9",
"g. c #00CAC9",
"h. c #00CACA",
"j. c #00D1D1",
"k. c #01D2D2",
"l. c #01D5D5",
"z. c #00D7D7",
"x. c #00D9D9",
"c. c #00DADA",
"v. c #01DADA",
"b. c #01DDDC",
"n. c #00DDDD",
"m. c #01DDDD",
"M. c #01E2E2",
"N. c #01E3E3",
"B. c #01E6E5",
"V. c #01E6E6",
"C. c #01E9E9",
"Z. c #01ECEC",
"A. c #01EDED",
"S. c #01EEEE",
"D. c #01EFEF",
"F. c #01F3F3",
"G. c #01F4F4",
"H. c #01F6F6",
"J. c #01F7F7",
"K. c #01F9F9",
"L. c #01FAFA",
"P. c #01FBFB",
"I. c #01FCFC",
"U. c #01FDFD",
"Y. c #01FEFE",
"T. c #01FFFF",
"R. c #5BCACA",
"E. c #5CFFFF",
"W. c #8EACB1",
"Q. c #8FAEB4",
"!. c #83B6B6",
"~. c #92B0BA",
"^. c #83D5D5",
"/. c #89DCDB",
"(. c #9EDADA",
"). c #AACDD2",
"_. c #AACDD3",
"`. c #ABCED4",
"'. c #89F2F2",
"]. c #9EFFFF",
"[. c #B8E2E2",
"{. c #B9E2E2",
"}. c #BBE3E3",
"|. c #B8FFFF",
" X c #B9FFFF",
".X c #BCFFFF",
"XX c #D3D5D5",
"oX c #D4D5D5",
"OX c #D0EBEF",
"+X c #F5FCFD",
"@X c #FCFDFD",
"#X c #FCFFFF",
"$X c #FEFFFF",
"%X c white",
/* pixels */
"          ` ` ` ` ` ` ` ` ` ` ` ` ` ` ` ` ` `           P P P P P P P P P P P P P P P P P P P P P P P P ` ` ` ` ` ` ` ` ` ` ` ` ` `                   ",
"          ` ` ` ` ` ` ` ` ` ` ` ` ` ` ` ` ` `           P P P P P P P P P P P P P P P P P P P P P P P P ` ` ` ` ` ` ` ` ` ` ` ` ` `                   ",
"          ` ` ` ` ` ` ` ` ` ` ` ` ` ` ` ` ` `           P P P P P P P P P P P P P P P P P P P P P P P P ` ` ` ` ` ` ` ` ` ` ` ` ` `                   ",
"          ` ` ` ` ` ` ` ` ` ` ` ` ` ` ` ` ` `           P P P P P P P P P P P P P P P P P P P P P P P P ` ` ` ` ` ` ` ` ` ` ` ` ` `                   ",
"          ` ` ` ` ` ` ` ` ` ` ` ` ` ` ` ` ` `           P P P P P P P P P P P P P P P P P P P P P P P P ` ` ` ` ` ` ` ` ` ` ` ` ` `                   ",
"` ` ` ` ` P P P P P P P P P P P P P P P P P P ` ` ` ` ` k k k k k P P P P P P P P P P P P P P P P P P P P P P P P P P P P P P P P P ` ` ` `           ",
"` ` ` ` ` P P P P P P P P P P P P P P P P P P ` ` ` ` ` k k k k k P P P P P P P P P P P P P P P P P P P P P P P P P P P P P P P P P ` ` ` `           ",
"` ` ` ` ` P P P P P P P P P P P P P P P P P P ` ` ` ` ` k k k k k P P P P P P P P P P P P P P P P P P P P P P P P P P P P P P P P P ` ` ` `           ",
"` ` ` ` ` P P P P P P P P P P P P P P P P P P ` ` ` ` ` k k k k k P P P P P P P P P P P P P P P P P P P P P P P P P P P P P P P P P ` ` ` `           ",
"P P P P P P P P P P P P P P P P P P P P P P P P P P P P ` ` ` ` ` k k k k P P P P P P P P P P P P P P P P P P P P P P P P P P P P P P P P P           ",
"P P P P P P P P P P P P P P P P P P P P P P P P P P P P ` ` ` ` ` k k k k P P P P P P P P P P P P P P P P P P P P P P P P P P P P P P P P P           ",
"P P P P P P P P P P P P P P P P P P P P P P P P P P P P ` ` ` ` ` k k k k P P P P P P P P P P P P P P P P P P P P P P P P P P P P P P P P P           ",
"P P P P P P P P P P P P P P P P P P P P P P P P P P P P ` ` ` ` ` k k k k P P P P P P P P P P P P P P P P P P P P P P P P P P P P P P P P P           ",
"P P P P P P P P P P P P P P P P P P P P P P P P P P P P ` ` ` ` ` k k k k P P P P P P P P P P P P P P P P P P P P P P P P P P P P P P P P P           ",
"P P P P P P P P P P P P P P P P P P P P P P P P P P P P P P P P P         k k k k k k k k k k k k k k k k k k k k k k k k k k k k k k k k k           ",
"P P P P P P P P P P P P P P P P P P P P P P P P P P P P P P P P P         k k k k k k k k k k k k k k k k k k k k k k k k k k k k k k k k k           ",
"P P P P P P P P P P P P P P P P P P P P P P P P P P P P P P P P P         k k k k k k k k k k k k k k k k k k k k k k k k k k k k k k k k k           ",
"P P P P P P P P P P P P P P P P P P P P P P P P P P P P P P P P P         k k k k k k k k k k k k k k k k k k k k k k k k k k k k k k k k k           ",
"P P P P P P P P P P P P P P P P P P P P P P P P P P P P P P P P P         k k k k k k k k k k k k k k k k k k k k k k k k k k k k k k k k k           ",
"k k k k k P P P P P P P P P P P P P P w.w.P P P P P P P k k k k k                   ` ` ` ` ` ` ` ` ` ` ` ` ` ` ` ` ` ` `                             ",
"k k k k k P P P P P P P P P P P P P P `.`.P P P P P P P k k k k k                   ` ` ` ` ` ` ` ` ` ` ` ` ` ` ` ` ` ` `                             ",
"k k k k k P P P P P P P P P P P P P ^ OXOX^ P P P P P P k k k k k                   ` ` ` ` ` ` ` ` ` ` ` ` ` ` ` ` ` ` `                             ",
"k k k k k P P P P P P P P P P P P ^ ~.+X+X~.^ P P P P P k k k k k                   ` ` ` ` ` ` ` ` ` ` ` ` ` ` ` ` ` ` `                             ",
"          k k k k P P P P P P w.`.OX+X%X%X+XOX`.w.P G w & & & & & & & & & & & & & & & & & & & w G P P P P P P P P P P P P ` ` ` ` `                   ",
"          k k k k P P P P P P w.`.OX+X%X%X+XOX`.w.S i ; > > > 7 t t t t t t t t t t t 8 6 6 6 ; i S P P P P P P P P P P P ` ` ` ` `                   ",
"          k k k k P P P P P P P P ^ ~.+X+X~.^ P A p - r X.=.=.!.XXoXoXoXoXoXoXoXoXoXXX^.l.l.t.v - p A P P P P P P P P P P ` ` ` ` `                   ",
"          k k k k P P P P P P P P P ^ OXOX^ P Z a * v | 5.u.u.(.$X%X%X%X%X%X%X%X%X%X$X].T.T.F.4.n * a Z P P P P P P P P P ` ` ` ` `                   ",
"          k k k k P P P P P P P P P P `.`.P A a & b ] 6.u.u.u.(.$X%X%X%X%X%X%X%X%X%X$X].T.T.T.J.,.N & a A P P P P P P P P ` ` ` ` `                   ",
"                  k k k k k k k k k k q.q.f + & b ' 7.u.u.u.R.{.$X%X%X%X%X%X%X%X%X%X$X XE.T.T.T.L.:.N * p S P P P P P P P P P P P P ` ` ` `           ",
"                  k k k k k k k k k k k g O * v ] 7.u.u.u.u.[.@X%X%X%X%X%X%X%X%X%X%X%X#X|.T.T.T.T.L.,.n - i G P P P P P P P P P P P ` ` ` `           ",
"                  k k k k k k k k k k k 2 * r | 6.u.u.u.u.u.}.%X%X%X%X%X%X%X%X%X%X%X%X%X.XT.T.T.T.T.J.4.v ; w P P P P P P P P P P P ` ` ` `           ",
"                  k k k k k k k k k k k & > X.5.u.u.u.u.u.u.}.%X%X%X%X%X%X%X%X%X%X%X%X%X.XT.T.T.T.T.T.F.t.6 & P P P P P P P P P P P ` ` ` `           ",
"                  k k k k k k k k k k k & > =.u.u.u.u.u.u.u.}.%X%X%X%X%X%X%X%X%X%X%X%X%X.XT.T.T.T.T.T.T.l.6 & P P P P P P P P P P P ` ` ` `           ",
"                  ` ` ` ` ` ` ` ` ` ` ` & : Q %.<.<.<.<.<.<./..X.X.X.X.X.X.X.X.X.X.X.X.X'.N.N.N.N.N.N.k.$.> & P P P P P P P P P P P k k k k           ",
"                  ` ` ` ` ` ` ` ` ` ` ` D u & Y { o.o.o.o.o.y.A.T.T.T.T.T.T.T.T.T.T.T.F.x.u.u.u.u.u.,.Q & q a P P P P P P P P P P P k k k k           ",
"                  ` ` ` ` ` ` ` ` ` ` ` _ F u = B } o.o.o.o.O.i.Y.T.T.T.T.T.T.T.T.T.T.c.u.u.u.u.u.1.E : q l L P P P P P P P P P P P k k k k           ",
"                  ` ` ` ` ` ` ` ` ` ` ` ` _ I X > M ..o.o.o.o.e.J.T.T.T.T.T.T.T.T.T.L.z.u.u.u.r.3.R 5 9 z L P P P P P P P P P P P P k k k k           ",
"          ` ` ` ` P P P P P P P P P P P P P K U 0 4 m ..o.o.o.+.9.I.T.T.T.T.T.T.T.U.z.a.u.u.u.3.T e 1 x K P w.w.k k k k k k k k k k                   ",
"          ` ` ` ` P P P P P P P P P P P P P P ( ~ 3 4 M } o.o.o.2.P.T.T.T.T.T.T.T.I.j.u.u.u.1.R e - c J P P `.`.k k k k k k k k k k                   ",
"          ` ` ` ` P P P P P P P P P P P P P P ` / ~ 0 > B { o.o.&.g.K.T.T.T.T.T.P.n.d.u.u.,.E 5 1 c H P P ^ OXOX! k k k k k k k k k                   ",
"          ` ` ` ` P P P P P P P P P P P P P P ` ` ( U y = Y [ o.o.;.H.T.T.T.T.T.K.h.u.u.>.Q : 9 x J P P ^ ~.+X+XQ.! k k k k k k k k                   ",
"          ` ` ` ` P P P P P P P P P P P P P P ` ` ` ) I X & Y { o.*.b.K.T.T.T.P.C.d.u.,.Q & q z K P w.`.OX+X%X%X+XOX_.q.k k k k k k                   ",
"          P P P P P P P P P P P P P P P P P P P P P P L F u = B } o.#.S.T.T.T.G.s.u.1.E : < @ d k k q._.OX+X%X%X+XOX).0.  ` ` ` ` ` ` ` ` `           ",
"          P P P P P P P P P P P P P P P P P P P P P P P _ I y > M ..@.V.I.T.U.D.p.3.R 5 , # d k k k k k ! Q.+X+XW.C       ` ` ` ` ` ` ` ` `           ",
"          P P P P P P P P P P P P P P P P P P P P P P P ` ) U 0 4 m ..-.B.T.S.f.3.T e - % s k k k k k k k ! OXOXC         ` ` ` ` ` ` ` ` `           ",
"          P P P P P P P P P P P P P P P P P P P P P P P ` ` ( ~ 3 4 M  .M.T.Z.1.R e * $ j k k k k k k k k k _._.          ` ` ` ` ` ` ` ` `           ",
"          P P P P P P P P P P P P P P P P P P P P P P P ` ` ` / ~ 0 > V v.T.m.W 5 o $ h k k k k k k k k k k q.q.          ` ` ` ` ` ` ` ` `           ",
"          k k k k P P P P P P P P P P P P P P P P P P P P P P P J x 9 > $.8.$.> y U .                   ` ` ` ` ` ` ` ` ` P P P P P P P P P ` ` ` ` ` ",
"          k k k k P P P P P P P P P P P P P P P P P P P P P P P P K z q & & & u I )                     ` ` ` ` ` ` ` ` ` P P P P P P P P P ` ` ` ` ` ",
"          k k k k P P P P P P P P P P P P P P P P P P P P P P P P P L l q & u F _ `                     ` ` ` ` ` ` ` ` ` P P P P P P P P P ` ` ` ` ` ",
"          k k k k P P P P P P P P P P P P P P P P P P P P P P P P P P L a & D _ ` `                     ` ` ` ` ` ` ` ` ` P P P P P P P P P ` ` ` ` ` ",
"          k k k k P P P P P P P P P P P P P P P P P P P P P P P P P P P P ` ` ` ` `                     ` ` ` ` ` ` ` ` ` P P P P P P P P P ` ` ` ` ` ",
"` ` ` ` `         P P P P P P P P P P P P P P P P P P P P P P P P P P P P k k k k k           ` ` ` ` ` P P P P P P P P P P P P P P P P P P P P P P P ",
"` ` ` ` `         P P P P P P P P P P P P P P P P P P P P P P P P P P P P k k k k k           ` ` ` ` ` P P P P P P P P P P P P P P P P P P P P P P P ",
"` ` ` ` `         P P P P P P P P P P P P P P P P P P P P P P P P P P P P k k k k k           ` ` ` ` ` P P P P P P P P P P P P P P P P P P P P P P P ",
"` ` ` ` `         P P P P P P P P P P P P P P P P P P P P P P P P P P P P k k k k k           ` ` ` ` ` P P P P P P P P P P P P P P P P P P P P P P P ",
"P P P P P         P P P P P P P P P P P P P P P P P P P P P P P P k k k k                     P P P P P P P P P P P P P P P P P P P P P P P P P P P P ",
"P P P P P         P P P P P P P P P P P P P P P P P P P P P P P P k k k k                     P P P P P P P P P P P P P P P P P P P P P P P P P P P P ",
"P P P P P         P P P P P P P P P P P P P P P P P P P P P P P P k k k k                     P P P P P P P P P P P P P P P P P P P P P P P P P P P P ",
"P P P P P         P P P P P P P P P P P P P P P P P P P P P P P P k k k k                     P P P P P P P P P P P P P P P P P P P P P P P P P P P P ",
"P P P P P         P P P P P P P P P P P P P P P P P P P P P P P P k k k k                     P P P P P P P P P P P P P P P P P P P P P P P P P P P P ",
"k k k k k         k k k k k P P P P P P P P P k k k k k                                       k k k k k P P P P P P P P P P P P P P P P P P P P P P P ",
"k k k k k         k k k k k P P P P P P P P P k k k k k                                       k k k k k P P P P P P P P P P P P P P P P P P P P P P P ",
"k k k k k         k k k k k P P P P P P P P P k k k k k                                       k k k k k P P P P P P P P P P P P P P P P P P P P P P P ",
"k k k k k         k k k k k P P P P P P P P P k k k k k                                       k k k k k P P P P P P P P P P P P P P P P P P P P P P P ",
"k k k k k         k k k k k P P P P P P P P P k k k k k                                       k k k k k P P P P P P P P P P P P P P P P P P P P P P P ",
"                            k k k k k k k k k                     ` ` ` ` ` ` ` ` ` ` ` ` ` `           k k k k k k k k k k k k k k k k k k k k k k k ",
"                            k k k k k k k k k                     ` ` ` ` ` ` ` ` ` ` ` ` ` `           k k k k k k k k k k k k k k k k k k k k k k k ",
"                            k k k k k k k k k                     ` ` ` ` ` ` ` ` ` ` ` ` ` `           k k k k k k k k k k k k k k k k k k k k k k k ",
"                            k k k k k k k k k                     ` ` ` ` ` ` ` ` ` ` ` ` ` `           k k k k k k k k k k k k k k k k k k k k k k k ",
"                                                        ` ` ` ` ` P P P P P P P P P P P P P P ` ` ` ` `                                               ",
"                                                        ` ` ` ` ` P P P P P P P P P P P P P P ` ` ` ` `                                               ",
"                                                        ` ` ` ` ` P P P P P P P P P P P P P P ` ` ` ` `                                               ",
"                                                        ` ` ` ` ` P P P P P P P P P P P P P P ` ` ` ` `                                               ",
"                                                        ` ` ` ` ` P P P P P P P P P P P P P P ` ` ` ` `                                               "
};
