/* XPM */
static char *result[] = {
/* columns rows colors chars-per-pixel */
"75 75 209 2 ",
"   c #171726",
".  c #181425",
"X  c #181525",
"o  c #12212B",
"O  c #11242C",
"+  c #082E31",
"@  c #1C2E3E",
"#  c #1D2E3E",
"$  c #1E2E3F",
"%  c #003334",
"&  c #013334",
"*  c #023335",
"=  c #033335",
"-  c #033336",
";  c #043436",
":  c #053437",
">  c #073537",
",  c #093237",
"<  c #0A3237",
"1  c #003738",
"2  c #073438",
"3  c #0F3138",
"4  c #083438",
"5  c #0C363A",
"6  c #003839",
"7  c #003B3C",
"8  c #003E3E",
"9  c #13313A",
"0  c #12363E",
"q  c #13363F",
"w  c #14363F",
"e  c #11383D",
"r  c #1D3C3D",
"t  c #193743",
"y  c #1A3744",
"u  c #1B3846",
"i  c #1C3846",
"p  c #252B43",
"a  c #202D40",
"s  c #222D41",
"d  c #262B44",
"f  c #203949",
"g  c #213F49",
"h  c #223F4A",
"j  c #233A4D",
"k  c #2C3E56",
"l  c #2D3E57",
"z  c #2F3F59",
"x  c #004142",
"c  c #004243",
"v  c #004546",
"b  c #005253",
"n  c #005353",
"m  c #005C5B",
"M  c #005B5C",
"N  c #005E5E",
"B  c #005E5F",
"V  c #284142",
"C  c #23404A",
"Z  c #2A4451",
"A  c #2B4452",
"S  c #3C4B52",
"D  c #31405C",
"F  c #32405D",
"G  c #33415D",
"H  c #34415F",
"J  c #344A5B",
"K  c #354260",
"L  c #384364",
"P  c #394465",
"I  c #3A4466",
"U  c #006262",
"Y  c #006868",
"T  c #006969",
"R  c #006B6C",
"E  c #007778",
"W  c #00797A",
"Q  c #007E7E",
"!  c #415253",
"~  c #465870",
"^  c #475971",
"/  c #4A5B74",
"(  c #4A5B75",
")  c #4D5E78",
"_  c #4D5E79",
"`  c #4D6078",
"'  c #4F607B",
"]  c #52627E",
"[  c #707879",
"{  c #007F80",
"}  c #586785",
"|  c #596887",
" . c #596987",
".. c #5A6988",
"X. c #647992",
"o. c #008081",
"O. c #008182",
"+. c #008786",
"@. c #008C8B",
"#. c #009393",
"$. c #009494",
"%. c #009594",
"&. c #009695",
"*. c #009796",
"=. c #009897",
"-. c #009998",
";. c #009A99",
":. c #009A9A",
">. c #009B9A",
",. c #009A9B",
"<. c #009B9C",
"1. c #009C9C",
"2. c #009D9C",
"3. c #009D9D",
"4. c #009E9E",
"5. c #00A1A1",
"6. c #00A2A3",
"7. c #00A5A4",
"8. c #00A5A5",
"9. c #00A7A7",
"0. c #00A7A8",
"q. c #00A8A9",
"w. c #00ABAB",
"e. c #00AEAE",
"r. c #00B1B1",
"t. c #00B1B2",
"y. c #00B2B2",
"u. c #00B3B4",
"i. c #00B7B8",
"p. c #00B9BA",
"a. c #00BABB",
"s. c #00BBBB",
"d. c #00BCBD",
"f. c #00BDBE",
"g. c #00BEBF",
"h. c #6A9494",
"j. c #7898A4",
"k. c #66A7A8",
"l. c #00BFC0",
"z. c #00C0C1",
"x. c #00C1C2",
"c. c #00C2C3",
"v. c #00C4C4",
"b. c #00C4C5",
"n. c #00C5C6",
"m. c #00C7C8",
"M. c #00CBCB",
"N. c #00CBCC",
"B. c #00CCCC",
"V. c #00CCCD",
"C. c #00CDCE",
"Z. c #00D1D1",
"A. c #00D8D8",
"S. c #00DADA",
"D. c #27D6D7",
"F. c #00E0E0",
"G. c #01E4E4",
"H. c #01E5E5",
"J. c #01E7E8",
"K. c #01EAEB",
"L. c #01ECED",
"P. c #01EDED",
"I. c #01EFEF",
"U. c #01F2F2",
"Y. c #01F5F5",
"T. c #01F7F7",
"R. c #01F9F9",
"E. c #01FAFA",
"W. c #01FBFB",
"Q. c #01FCFC",
"!. c #01FDFD",
"~. c #01FEFE",
"^. c #01FFFF",
"/. c #1BFFFF",
"(. c #6BEDED",
"). c #64F8F8",
"_. c #6BFEFE",
"`. c #6BFFFF",
"'. c #74FFFF",
"]. c #858B8B",
"[. c #989D9D",
"{. c #81A2B0",
"}. c #92B0BA",
"|. c #A1A7A8",
" X c #A3A7A8",
".X c #97B6C1",
"XX c #ABCED4",
"oX c #ADD0D7",
"OX c #84FFFF",
"+X c #A0FCFC",
"@X c #A3FFFF",
"#X c #CBCDCD",
"$X c #D6D7D7",
"%X c #DEDFE0",
"&X c #D0EBEF",
"*X c #D5FFFF",
"=X c #DCFEFE",
"-X c #EAEDED",
";X c #EDFDFD",
":X c #EDFFFF",
">X c #EEFFFF",
",X c #F5FCFD",
"<X c #F9F9F9",
"1X c #F8FCFC",
"2X c #FBFCFC",
"3X c #F9FFFF",
"4X c #FBFFFF",
"5X c #FDFDFD",
"6X c white",
/* pixels */
". . . . . ..................................... . . . . I I I I I I I I I I I I I I I I I I I I I I I I ............................. . . . . . . . . ",
". . . . . ..................................... . . . . I I I I I I I I I I I I I I I I I I I I I I I I ............................. . . . . . . . . ",
". . . . . ..................................... . . . . I I I I I I I I I I I I I I I I I I I I I I I I ............................. . . . . . . . . ",
". . . . . ..................................... . . . . I I I I I I I I I I I I I I I I I I I I I I I I ............................. . . . . . . . . ",
". . . . . ..................................... . . . . I I I I I I I I I I I I I I I I I I I I I I I I ............................. . . . . . . . . ",
"..........I I I I I I I I I I I I I I I I I I ..........d d d d d I I I I I I I I I I I I I I I I I I I I I I I I I I I I I I I I I ......... . . . . ",
"..........I I I I I I I I I I I I I I I I I I ..........d d d d d I I I I I I I I I I I I I I I I I I I I I I I I I I I I I I I I I ......... . . . . ",
"..........I I I I I I I I I I I I I I I I I I ..........d d d d d I I I I I I I I I I I I I I I I I I I I I I I I I I I I I I I I I ......... . . . . ",
"..........I I I I I I I I I I I I I I I I I I ..........d d d d d I I I I I I I I I I I I I I I I I I I I I I I I I I I I I I I I I ......... . . . . ",
"I I I I I I I I I I I I I I I I I I I I I I I I I I I I ..........d d d d I I I I I I I I I I I I I I I I I I I I I I I I I I I I I I I I I . . . . . ",
"I I I I I I I I I I I I I I I I I I I I I I I I I I I I ..........d d d d I I I I I I I I I I I I I I I I I I I I I I I I I I I I I I I I I . . . . . ",
"I I I I I I I I I I I I I I I I I I I I I I I I I I I I ..........d d d d I I I I I I I I I I I I I I I I I I I I I I I I I I I I I I I I I . . . . . ",
"I I I I I I I I I I I I I I I I I I I I I I I I I I I I ..........d d d d I I I I I I I I I I I I I I I I I I I I I I I I I I I I I I I I I . . . . . ",
"I I I I I I I I I I I I I I I I I I I I I I I I I I I I ..........d d d d I I I I I I I I I I I I I I I I I I I I I I I I I I I I I I I I I . . . . . ",
"I I I I I I I I I I I I I I I I I I I I I I I I I I I I I I I I I . . . . d d d d d d d d d d d d d d d d d d d d d d d d d d d d d d d d d . . . . . ",
"I I I I I I I I I I I I I I I I I I I I I I I I I I I I I I I I I . . . . d d d d d d d d d d d d d d d d d d d d d d d d d d d d d d d d d . . . . . ",
"I I I I I I I I I I I I I I I I I I I I I I I I I I I I I I I I I . . . . d d d d d d d d d d d d d d d d d d d d d d d d d d d d d d d d d . . . . . ",
"I I I I I I I I I I I I I I I I I I I I I I I I I I I I I I I I I . . . . d d d d d d d d d d d d d d d d d d d d d d d d d d d d d d d d d . . . . . ",
"I I I I I I I I I I I I I I I I I I I I I I I I I I I I I I I I I . . . . d d d d d d d d d d d d d d d d d d d d d d d d d d d d d d d d d . . . . . ",
"d d d d d I I I I I I I I I I I I I I I I I I I I I I I d d d d d . . . . . . . . . ....................................... . . . . . . . . . . . . . ",
"d d d d d I I I I I I I I I I I I I I I I I I I I I I I d d d d d . . . . . . . . . ..................................{.{.. . . . . . . . . . . . . . ",
"d d d d d I I I I I I I I I I I I I I I I I I I H 0 % % % % % % % % % % % % % % % % % % % % % % g ]  .................oXoX. . . . . . . . . . . . . . ",
"d d d d d I I I I I I I I I I I I I I I I I I F f 2 % % % % % % % % % % % % % % % % % % % % % % e J ' ..............X.&X&XS . . . . . . . . . . . . . ",
". . . . . d d d d I I I I I I I I I I I I I F j - r ]. X X|.k.0.0.0.0.0.0.0.0.0.0.0.0.,.O.o.o.R 1 - j G I I I I I ` }.,X,X.XX........ . . . . . . . . ",
". . . . . d d d d I I I I I I I I I I I P K f - V [ $X2X2X1X+XQ.Q.Q.Q.Q.Q.Q.Q.Q.Q.Q.Q.J.z.f.f.6.N 7 - f K P I j.XX&X,X6X6X,X&XoX{.... . . . . . . . . ",
". . . . . d d d d I I I I I I I I I I I K u 2 r [ %X<X6X6X4X@X^.^.^.^.^.^.^.^.^.^.^.^.K.c.z.z.d.q.B 6 2 i K I j.XX&X,X6X6X,X&XoX{.... . . . . . . . . ",
". . . . . d d d d I I I I I I I I I I F f 2 % ].$X<X6X6X6X4X@X^.^.^.^.^.^.^.^.^.^.^.^.K.c.z.z.z.d.6.R % 4 f G I I ` }.,X,X.XX........ . . . . . . . . ",
". . . . . d d d d I I I I I I I I I F j - r ].#X5X6X6X6X3X*XOX^.^.^.^.^.^.^.^.^.^.^.^.U.A.b.z.z.z.g.<.R 1 - j G I I ` &X&XX.......... . . . . . . . . ",
". . . . . . . . . d d d d d d d d s 9 & V [ $X5X6X6X6X6X>X'./.^.^.^.^.^.^.^.^.^.^.^.^.~.Y.N.z.z.z.z.g.6.N 7 - f H I I XXXXI I I I I ......... . . . . ",
". . . . . . . . . d d d d d d d d , = r [ %X<X6X6X6X6X6X:X`.^.^.^.^.^.^.^.^.^.^.^.^.^.^.T.N.z.z.z.z.z.d.q.B 6 2 0 I I j.j.I I I I I ......... . . . . ",
". . . . . . . . . d d d d d d d d % % ].$X<X6X6X6X6X6X6X:X`.^.^.^.^.^.^.^.^.^.^.^.^.^.^.T.N.z.z.z.z.z.z.d.6.R % % I I I I I I I I I ......... . . . . ",
". . . . . . . . . d d d d d d d d % %  X2X6X6X6X6X6X6X6X:X`.^.^.^.^.^.^.^.^.^.^.^.^.^.^.T.N.z.z.z.z.z.z.z.f.{ % % I I I I I I I I I ......... . . . . ",
". . . . . . . . . d d d d d d d d % % [.-X;X:X:X:X:X:X:X=X).T.T.T.T.T.T.T.T.T.T.T.T.T.T.I.n.a.a.a.a.a.a.p.y.E % % I I I I I I I I I ......... . . . . ",
". . . . . . . . . ................5 ; ! h.(._.`.`.`.`.`.).D.V.N.N.N.N.N.N.N.N.N.N.N.N.M.v.7.3.3.3.3.3.1.#.Y v * : I I I I I I I I I d d d d . . . . . ",
". . . . . . . . . ................^ Z % n 5.G.^.^.^.^.^.Q.L.Z.z.z.z.z.z.z.z.z.z.z.z.z.i.8.-.&.&.&.&.&.+.U 8 % y l I I I I I I I I I d d d d . . . . . ",
". . . . . . . . . ................| ~ A ; c e.G.~.^.^.^.^.!.S.z.z.z.z.z.z.z.z.z.z.z.z.y.=.&.&.&.&.%.+.T 1 * y k P I I I I I I I I I d d d d . . . . . ",
". . . . . . . . . ..................| / h > x 5.P.!.^.^.^.!.F.m.z.z.z.z.z.z.z.z.z.z.d.e.*.&.&.&.%.@.U 1 - w z P I I I I I I I I I I d d d d . . . . . ",
". . . . . ........I I I I I I I I I I L D q * b $.P.~.^.^.^.E.H.c.z.z.z.z.z.z.z.z.l.w.>.&.&.&.%.@.m 8 * w D L I d d d d d d d d d d . . . . . . . . . ",
". . . . . ........I I I I I I I I I I I L z t % n 5.G.^.^.^.^.K.c.z.z.z.z.z.z.z.z.l.9.&.&.&.&.+.U 8 % y z L I I d d d d d d d d d d . . . . . . . . . ",
". . . . . ........I I I I I I I j.j.I I I P k A ; c e.G.~.^.^.U.A.b.z.z.z.z.z.z.g.u.5.&.&.%.+.T 1 * y k P I I I d d d d d d d d d d . . . . . . . . . ",
". . . . . ........I I I I I I I XXXXI I I I P / h > x 5.P.!.^.~.Y.N.z.z.z.z.z.z.s.4.*.&.%.@.U 1 - w z P I I I I d d d d d d d d d d . . . . . . . . . ",
". . . . . ........I I I I I I ` &X&X` I I I I } ) h ; b $.P.~.^.T.C.x.z.z.z.z.z.p.2.&.%.@.m 8 * w D L I I I I I d d d d d d d d d d . . . . . . . . . ",
". . . . . I I I I I I I I I ` }.,X,X}.` I I I I L z t % n 5.G.^.Q.L.Z.z.z.z.z.i.8.-.&.+.U 8 % 3 $ p d d d d d d . . . . . ................... . . . . ",
". . . . . I I I I I I I j.XX&X,X6X6X,X&XXXj.I I I P k y ; c e.G.~.!.S.z.z.z.z.y.=.%.+.T 1 & 3 @ d d d d d d d d . . . . . ................... . . . . ",
". . . . . I I I I I I I j.XX&X,X6X6X,X&XXXj.I I I I P z h > x 5.P.W.F.m.z.z.d.e.&.@.U 1 & < $ d d d d d d d d d . . . . . ................... . . . . ",
". . . . . I I I I I I I I I ` }.,X,X}.` I I I I I I I L ) h ; b $.P.R.H.c.l.w.;.@.m 8 & < a p d d d d d d d d d . . . . . ................... . . . . ",
". . . . . I I I I I I I I I I ` &X&X` I I I I I I I I I } / Z % n 5.G.K.c.l.9.+.U 8 % 3 $ p d d d d d d d d d d . . . . . ................... . . . . ",
". . . . . d d d d I I I I I I I XXXXI I I I I I I I I I I P k y * c e.B.x.g.:.T 1 ; + O X . . . . . . . ..................I I I I I I I I I ..........",
". . . . . d d d d I I I I I I I j.j.I I I I I I I I I I I I P z q - x Q t.r.W 1 > C o X . . . . . . . . ..................I I I I I I I I I ..........",
". . . . . d d d d I I I I I I I I I I I I I I I I I I I I I I L D q * v M M v ; C _   . . . . . . . . . ..................I I I I I I I I I ..........",
". . . . . d d d d I I I I I I I I I I I I I I I I I I I I I I I L z t % % % % A ( } . . . . . . . . . . ..................I I I I I I I I I ..........",
". . . . . d d d d I I I I I I I I I I I I I I I I I I I I I I I I P k y * ; A ~ | ... . . . . . . . . . ..................I I I I I I I I I ..........",
"........... . . . I I I I I I I I I I I I I I I I I I I I I I I I I P l ; * # d d d . . . . . ..........I I I I I I I I I I I I I I I I I I I I I I I ",
"........... . . . I I I I I I I I I I I I I I I I I I I I I I I I I I I I d d d d d . . . . . ..........I I I I I I I I I I I I I I I I I I I I I I I ",
"........... . . . I I I I I I I I I I I I I I I I I I I I I I I I I I I I d d d d d . . . . . ..........I I I I I I I I I I I I I I I I I I I I I I I ",
"........... . . . I I I I I I I I I I I I I I I I I I I I I I I I I I I I d d d d d . . . . . ..........I I I I I I I I I I I I I I I I I I I I I I I ",
"I I I I I . . . . I I I I I I I I I I I I I I I I I I I I I I I I d d d d . . . . . . . . . . I I I I I I I I I I I I I I I I I I I I I I I I I I I I ",
"I I I I I . . . . I I I I I I I I I I I I I I I I I I I I I I I I d d d d . . . . . . . . . . I I I I I I I I I I I I I I I I I I I I I I I I I I I I ",
"I I I I I . . . . I I I I I I I I I I I I I I I I I I I I I I I I d d d d . . . . . . . . . . I I I I I I I I I I I I I I I I I I I I I I I I I I I I ",
"I I I I I . . . . I I I I I I I I I I I I I I I I I I I I I I I I d d d d . . . . . . . . . . I I I I I I I I I I I I I I I I I I I I I I I I I I I I ",
"I I I I I . . . . I I I I I I I I I I I I I I I I I I I I I I I I d d d d . . . . . . . . . . I I I I I I I I I I I I I I I I I I I I I I I I I I I I ",
"d d d d d . . . . d d d d d I I I I I I I I I d d d d d . . . . . . . . . . . . . . . . . . . d d d d d I I I I I I I I I I I I I I I I I I I I I I I ",
"d d d d d . . . . d d d d d I I I I I I I I I d d d d d . . . . . . . . . . . . . . . . . . . d d d d d I I I I I I I I I I I I I I I I I I I I I I I ",
"d d d d d . . . . d d d d d I I I I I I I I I d d d d d . . . . . . . . . . . . . . . . . . . d d d d d I I I I I I I I I I I I I I I I I I I I I I I ",
"d d d d d . . . . d d d d d I I I I I I I I I d d d d d . . . . . . . . . . . . . . . . . . . d d d d d I I I I I I I I I I I I I I I I I I I I I I I ",
"d d d d d . . . . d d d d d I I I I I I I I I d d d d d . . . . . . . . . . . . . . . . . . . d d d d d I I I I I I I I I I I I I I I I I I I I I I I ",
". . . . . . . . . . . . . . d d d d d d d d d . . . . . . . . . . ............................. . . . . d d d d d d d d d d d d d d d d d d d d d d d ",
". . . . . . . . . . . . . . d d d d d d d d d . . . . . . . . . . ............................. . . . . d d d d d d d d d d d d d d d d d d d d d d d ",
". . . . . . . . . . . . . . d d d d d d d d d . . . . . . . . . . ............................. . . . . d d d d d d d d d d d d d d d d d d d d d d d ",
". . . . . . . . . . . . . . d d d d d d d d d . . . . . . . . . . ............................. . . . . d d d d d d d d d d d d d d d d d d d d d d d ",
". . . . . . . . . . . . . . . . . . . . . . . . . . . . ..........I I I I I I I I I I I I I I ........... . . . . . . . . . . . . . . . . . . . . . . ",
". . . . . . . . . . . . . . . . . . . . . . . . . . . . ..........I I I I I I I I I I I I I I ........... . . . . . . . . . . . . . . . . . . . . . . ",
". . . . . . . . . . . . . . . . . . . . . . . . . . . . ..........I I I I I I I I I I I I I I ........... . . . . . . . . . . . . . . . . . . . . . . ",
". . . . . . . . . . . . . . . . . . . . . . . . . . . . ..........I I I I I I I I I I I I I I ........... . . . . . . . . . . . . . . . . . . . . . . ",
". . . . . . . . . . . . . . . . . . . . . . . . . . . . ..........I I I I I I I I I I I I I I ........... . . . . . . . . . . . . . . . . . . . . . . "
};
