/* XPM */
static char *result[] = {
/* columns rows colors chars-per-pixel */
"75 75 198 2 ",
"   c #181425",
".  c #161826",
"X  c #022F2F",
"o  c #012F30",
"O  c #072F33",
"+  c #0E2F35",
"@  c #112F36",
"#  c #152E39",
"$  c #162E39",
"%  c #1A2D3B",
"&  c #182E3A",
"*  c #003030",
"=  c #013030",
"-  c #003131",
";  c #023031",
":  c #033032",
">  c #003232",
",  c #003333",
"<  c #043031",
"1  c #053032",
"2  c #043132",
"3  c #053233",
"4  c #003535",
"5  c #003636",
"6  c #0C3333",
"7  c #083135",
"8  c #093335",
"9  c #0A3236",
"0  c #0F3339",
"q  c #003838",
"w  c #003939",
"e  c #003E3E",
"r  c #123535",
"t  c #143636",
"y  c #153636",
"u  c #113539",
"i  c #14363C",
"p  c #193541",
"a  c #1C3644",
"s  c #1F3747",
"d  c #242B43",
"f  c #252B43",
"g  c #222C41",
"h  c #232C41",
"j  c #232C42",
"k  c #242C42",
"l  c #262B44",
"z  c #203848",
"x  c #22394A",
"c  c #23394B",
"v  c #263A4F",
"b  c #293B51",
"n  c #004444",
"m  c #005151",
"M  c #005858",
"N  c #304444",
"B  c #32405C",
"V  c #33405D",
"C  c #34415F",
"Z  c #334959",
"A  c #34495A",
"S  c #384C5E",
"D  c #354160",
"F  c #364261",
"G  c #374262",
"H  c #384363",
"J  c #394364",
"K  c #3A4466",
"L  c #394D60",
"P  c #3E5165",
"I  c #006263",
"U  c #006868",
"Y  c #006C6B",
"T  c #007473",
"R  c #007374",
"E  c #007474",
"W  c #007C7B",
"Q  c #425151",
"!  c #4B5858",
"~  c #415369",
"^  c #556481",
"/  c #556582",
"(  c #576684",
")  c #586786",
"_  c #5A6988",
"`  c #008484",
"'  c #008989",
"]  c #009090",
"[  c #009494",
"{  c #009595",
"}  c #009899",
"|  c #00999A",
" . c #009A9B",
".. c #009B9B",
"X. c #009C9C",
"o. c #009C9D",
"O. c #009D9E",
"+. c #009E9E",
"@. c #009E9F",
"#. c #009F9F",
"$. c #009FA0",
"%. c #369EA0",
"&. c #00A2A3",
"*. c #00A3A3",
"=. c #00A4A3",
"-. c #00A3A4",
";. c #00A5A4",
":. c #00A6A7",
">. c #00A7A7",
",. c #00A7A8",
"<. c #00A9A9",
"1. c #00ACAC",
"2. c #00AEAD",
"3. c #00AEAE",
"4. c #12A5A4",
"5. c #00B0AF",
"6. c #00B0B0",
"7. c #00B4B3",
"8. c #00B4B4",
"9. c #00B5B4",
"0. c #00B4B5",
"q. c #00B6B7",
"w. c #00B8B7",
"e. c #00B8B8",
"r. c #00BCBB",
"t. c #00BFBF",
"y. c #00C0BF",
"u. c #00C0C0",
"i. c #00C1C0",
"p. c #01C1C1",
"a. c #00C2C1",
"s. c #00C3C2",
"d. c #00C4C3",
"f. c #00C3C4",
"g. c #00C5C4",
"h. c #00C6C6",
"j. c #00CACB",
"k. c #14C5C4",
"l. c #15C5C4",
"z. c #01D2D2",
"x. c #01D5D5",
"c. c #01DDDD",
"v. c #30C6C5",
"b. c #36C4C4",
"n. c #01E2E2",
"m. c #01E4E4",
"M. c #01E5E5",
"N. c #01E6E6",
"B. c #01EAEA",
"V. c #01EBEB",
"C. c #01EDED",
"Z. c #01EEEE",
"A. c #01EFEF",
"S. c #01F3F3",
"D. c #01F6F6",
"F. c #01F7F7",
"G. c #01F9F9",
"H. c #01FAFA",
"J. c #01FBFB",
"K. c #01FCFC",
"L. c #01FEFE",
"P. c #01FFFF",
"I. c #37F9FA",
"U. c #70C0C2",
"Y. c #70CACC",
"T. c #70DCDE",
"R. c #70DDDF",
"E. c #70EAEB",
"W. c #70EDEF",
"Q. c #9B9F9F",
"!. c #A6A9A9",
"~. c #ABAEAE",
"^. c #B6B8B8",
"/. c #8DC3C6",
"(. c #8DD2D4",
"). c #89DCDC",
"_. c #AFC6C6",
"`. c #BEC1C1",
"'. c #A9D7DB",
"]. c #A9D8DC",
"[. c #A9DADE",
"{. c #A9DFE3",
"}. c #8DEBEE",
"|. c #A9E4E8",
" X c #BCE2E2",
".X c #BCE4E4",
"XX c #BEE5E5",
"oX c #BFE5E5",
"OX c #BCFFFF",
"+X c #D4D5D5",
"@X c #D0EBEF",
"#X c #D4EDED",
"$X c #F3F3F3",
"%X c gray97",
"&X c #F3FAFA",
"*X c #F5FCFD",
"=X c gray98",
"-X c white",
/* pixels */
"          _ _ _ _ _ _ _ _ _ _ _ _ _ _ _ _ _ _           K K K K K K K K K K K K K K K K K K K K K K K K _ _ _ _ _ _ _ _ _ _ _ _ _ _                   ",
"          _ _ _ _ _ _ _ _ _ _ _ _ _ _ _ _ _ _           K K K K K K K K K K K K K K K K K K K K K K K K _ _ _ _ _ _ _ _ _ _ _ _ _ _                   ",
"          _ _ _ _ _ _ _ _ _ _ _ _ _ _ _ _ _ _           K K K K K K K K K K K K K K K K K K K K K K K K _ _ _ _ _ _ _ _ _ _ _ _ _ _                   ",
"          _ _ _ _ _ _ _ _ _ _ _ _ _ _ _ _ _ _           K K K K K K K K K K K K K K K K K K K K K K K K _ _ _ _ _ _ _ _ _ _ _ _ _ _                   ",
"          _ _ _ _ _ _ _ _ _ _ _ _ _ _ _ _ _ _           K K K K K K K K K K K K K K K K K K K K K K K K _ _ _ _ _ _ _ _ _ _ _ _ _ _                   ",
"_ _ _ _ _ K K K K K K K K K K K K K K K K K K _ _ _ _ _ l l l l l K K K K K K K K K K K K K K K K K K K K K K K K K K K K K K K K K _ _ _ _           ",
"_ _ _ _ _ K K K K K K K K K K K K K K K K K K _ _ _ _ _ l l l l l K K K K K K K K K K K K K K K K K K K K K K K K K K K K K K K K K _ _ _ _           ",
"_ _ _ _ _ K K K K K K K K K K K K K K K K K K _ _ _ _ _ l l l l l K K K K K K K K K K K K K K K K K K K K K K K K K K K K K K K K K _ _ _ _           ",
"_ _ _ _ _ K K K K K K K K K K K K K K K K K K _ _ _ _ _ l l l l l K K K K K K K K K K K K K K K K K K K K K K K K K K K K K K K K K _ _ _ _           ",
"K K K K K K K K K K K K K K K K K K K K K K K K K K K K _ _ _ _ _ l l l l K K K K K K K K K K K K K K K K K K K K K K K K K K K K K K K K K           ",
"K K K K K K K K K K K K K K K K K K K K K K K K K K K K _ _ _ _ _ l l l l K K K K K K K K K K K K K K K K K K K K K K K K K K K K K K K K K           ",
"K K K K K K K K K K K K K K K K K K K K K K K K K K K K _ _ _ _ _ l l l l K K K K K K K K K K K K K K K K K K K K K K K K K K K K K K K K K           ",
"K K K K K K K K K K K K K K K K K K K K K K K K K K K K _ _ _ _ _ l l l l K K K K K K K K K K K K K K K K K K K K K K K K K K K K K K K K K           ",
"K K K K K K K K K K K K K K K K K K K K K K K K K K K K _ _ _ _ _ l l l l K K K K K K K K K K K K K K K K K K K K K K K K K K K K K K K K K           ",
"K K K K K K K K K K K K K K K K K K K K K K K K K K K K K K K K K         l l l l l l l l l l l l l l l l l l l l l l l l l l l l l l l l l           ",
"K K K K K K K K K K K K K K K K K K K K K K K K K K K K K K K K K         l l l l l l l l l l l l l l l l l l l l l l l l l l l l l l l l l           ",
"K K K K K K K K K K K K K K K K K K K K K K K K K K K K K K K K K         l l l l l l l l l l l l l l l l l l l l l l l l l l l l l l l l l           ",
"K K K K K K K K K K K K K K K K K K K K K K K K K K K K K K K K K         l l l l l l l l l l l l l l l l l l l l l l l l l l l l l l l l l           ",
"K K K K K K K K K K K K K K K K K K K K K K K K K K K K K K K K K         l l l l l l l l l l l l l l l l l l l l l l l l l l l l l l l l l           ",
"l l l l l K K K K K K K K K K K K K K K K K K K K K K K l l l l l                   _ _ _ _ _ _ _ _ _ _ _ _ _ _ _ _ _ _ _                             ",
"l l l l l K K K K K K K K K K K K K K K K K K K K K K K l l l l l                   _ _ _ _ _ _ _ _ _ _ _ _ _ _ _ _ _ _ _                             ",
"l l l l l K K K K K K K K K K K K K K K K K K K K K K K l l l l l                   _ _ _ _ _ _ _ _ _ _ _ _ _ _ _ _ _ _ _                             ",
"l l l l l K K K K K K K K K K K K K K K K K K K K K K K l l l l l                   _ _ _ _ _ _ _ _ _ _ _ _ _ _ _ _ _ _ _                             ",
"          l l l l K K K K K K K K K K K K K K K K K D 0 * * * * * * * * * * * * * * * * * * * 0 D K K K K K K K K K K K K _ _ _ _ _                   ",
"          l l l l K K K K K K K K K K K K K K K K C p : 5 5 5 4 , , , , , , , , , , , r y y t : p C K K K K K K K K K K K _ _ _ _ _                   ",
"          l l l l K K K K K K K K K K K K K K K V a ; n p.x.x.h.;.=.=.=.=.=.=.=.=.=.4._.+X+X`.N ; a V K K K K K K K K K K _ _ _ _ _                   ",
"          l l l l K K K K K K K K K K K K K K B s = m e.S.P.P.C.g.d.d.d.d.d.d.d.d.d.l.#X-X-X$X^.Q = s B K K K K K K K K K _ _ _ _ _                   ",
"          l l l l K K K K K K K K K K K K K V s * M 3.F.P.P.P.C.g.d.d.d.d.d.d.d.d.d.l.#X-X-X-X%X~.! * s V K K K K K K K K _ _ _ _ _                   ",
"                  l l l l l l l l l l l l g @ * M <.H.P.P.P.E.R.g.d.d.d.d.d.d.d.d.d.k.XX&X-X-X-X=X!.! = a C K K K K K K K K K K K K _ _ _ _           ",
"                  l l l l l l l l l l l h + = m 3.H.P.P.P.P.{.[.d.d.d.d.d.d.d.d.d.d.d.v.oX-X-X-X-X=X~.Q ; p D K K K K K K K K K K K _ _ _ _           ",
"                  l l l l l l l l l l l O = n e.F.P.P.P.P.I.@X@Xb.d.d.d.d.d.d.d.d.d.d.d..X-X-X-X-X-X%X^.N : 0 K K K K K K K K K K K _ _ _ _           ",
"                  l l l l l l l l l l l * 5 p.S.P.P.P.P.I.}.*X*X(.b.d.d.d.d.d.d.d.d.d.d..X-X-X-X-X-X-X$X`.t * K K K K K K K K K K K _ _ _ _           ",
"                  l l l l l l l l l l l * 5 x.P.P.P.W.|.@X*X-X-X*X@X[.Y.d.d.d.d.d.d.d.d..X-X-X-X-X-X-X-X+Xy * K K K K K K K K K K K _ _ _ _           ",
"                  _ _ _ _ _ _ _ _ _ _ _ * , #.z.m.m.T.{.@X*X-X-X*X@X'.U.6.6.6.6.6.6.6.6.).OXOXOXOXOXOX XQ.6 * K K K K K K K K K K K l l l l           ",
"                  _ _ _ _ _ _ _ _ _ _ _ Z i * W 5.d.d.d.b.(.*X*X/.%.} } } } } } } } } q.m.P.P.P.P.P.M.#.* 9 z K K K K K K K K K K K l l l l           ",
"                  _ _ _ _ _ _ _ _ _ _ _ ) S i > E 9.d.d.d.b.@X@X%.} } } } } } } } } | n.P.P.P.P.L.V.{ , 9 x J K K K K K K K K K K K l l l l           ",
"                  _ _ _ _ _ _ _ _ _ _ _ _ ) L X 4 Y w.s.d.d.[.].O.} } } } } } } } } :.N.P.P.P.L.A.' w 7 c J K K K K K K K K K K K K l l l l           ",
"          _ _ _ _ K K K K K K K K K K K K K H P 8 q U w.d.d.Y.Y.e. .} } } } } } } @.N.K.P.P.L.A.` e 2 v H K K K l l l l l l l l l l                   ",
"          _ _ _ _ K K K K K K K K K K K K K K / ~ 3 q Y 9.d.d.d.r...} } } } } } } $.Z.P.P.P.V.' e ; b G K K K K l l l l l l l l l l                   ",
"          _ _ _ _ K K K K K K K K K K K K K K _ ^ ~ 8 4 E 5.d.d.i.8.o.} } } } } -.c.G.P.P.M.{ w 2 b F K K K K K l l l l l l l l l l                   ",
"          _ _ _ _ K K K K K K K K K K K K K K _ _ / P u > W 2.d.d.y.+.} } } } } ,.D.P.P.n.#., 7 v G K K K K K K l l l l l l l l l l                   ",
"          _ _ _ _ K K K K K K K K K K K K K K _ _ _ ( L X * W 5.d.i.1.X.} } } &.j.G.P.M.#.* 9 c H K K K K K K K l l l l l l l l l l                   ",
"          K K K K K K K K K K K K K K K K K K K K K K J S i > E 9.d.a.*.} } } 0.J.L.V.{ , 1 # f l l l l l l l l           _ _ _ _ _ _ _ _ _           ",
"          K K K K K K K K K K K K K K K K K K K K K K K ) L u 4 Y w.a.>. .} O.t.J.A.' w < $ f l l l l l l l l l           _ _ _ _ _ _ _ _ _           ",
"          K K K K K K K K K K K K K K K K K K K K K K K _ ( P 8 q U w.y.>.} u.F.A.` e ; & d l l l l l l l l l l           _ _ _ _ _ _ _ _ _           ",
"          K K K K K K K K K K K K K K K K K K K K K K K _ _ / ~ 3 q Y 7.<.} f.B.' e = % k l l l l l l l l l l l           _ _ _ _ _ _ _ _ _           ",
"          K K K K K K K K K K K K K K K K K K K K K K K _ _ _ ^ ~ 8 4 T ] } X.[ w o % j l l l l l l l l l l l l           _ _ _ _ _ _ _ _ _           ",
"          l l l l K K K K K K K K K K K K K K K K K K K K K K K G v 7 - I R I - u P .                   _ _ _ _ _ _ _ _ _ K K K K K K K K K _ _ _ _ _ ",
"          l l l l K K K K K K K K K K K K K K K K K K K K K K K K H c 9 * * * i L (                     _ _ _ _ _ _ _ _ _ K K K K K K K K K _ _ _ _ _ ",
"          l l l l K K K K K K K K K K K K K K K K K K K K K K K K K J x 9 * i S ) _                     _ _ _ _ _ _ _ _ _ K K K K K K K K K _ _ _ _ _ ",
"          l l l l K K K K K K K K K K K K K K K K K K K K K K K K K K J z * A ) _ _                     _ _ _ _ _ _ _ _ _ K K K K K K K K K _ _ _ _ _ ",
"          l l l l K K K K K K K K K K K K K K K K K K K K K K K K K K K K _ _ _ _ _                     _ _ _ _ _ _ _ _ _ K K K K K K K K K _ _ _ _ _ ",
"_ _ _ _ _         K K K K K K K K K K K K K K K K K K K K K K K K K K K K l l l l l           _ _ _ _ _ K K K K K K K K K K K K K K K K K K K K K K K ",
"_ _ _ _ _         K K K K K K K K K K K K K K K K K K K K K K K K K K K K l l l l l           _ _ _ _ _ K K K K K K K K K K K K K K K K K K K K K K K ",
"_ _ _ _ _         K K K K K K K K K K K K K K K K K K K K K K K K K K K K l l l l l           _ _ _ _ _ K K K K K K K K K K K K K K K K K K K K K K K ",
"_ _ _ _ _         K K K K K K K K K K K K K K K K K K K K K K K K K K K K l l l l l           _ _ _ _ _ K K K K K K K K K K K K K K K K K K K K K K K ",
"K K K K K         K K K K K K K K K K K K K K K K K K K K K K K K l l l l                     K K K K K K K K K K K K K K K K K K K K K K K K K K K K ",
"K K K K K         K K K K K K K K K K K K K K K K K K K K K K K K l l l l                     K K K K K K K K K K K K K K K K K K K K K K K K K K K K ",
"K K K K K         K K K K K K K K K K K K K K K K K K K K K K K K l l l l                     K K K K K K K K K K K K K K K K K K K K K K K K K K K K ",
"K K K K K         K K K K K K K K K K K K K K K K K K K K K K K K l l l l                     K K K K K K K K K K K K K K K K K K K K K K K K K K K K ",
"K K K K K         K K K K K K K K K K K K K K K K K K K K K K K K l l l l                     K K K K K K K K K K K K K K K K K K K K K K K K K K K K ",
"l l l l l         l l l l l K K K K K K K K K l l l l l                                       l l l l l K K K K K K K K K K K K K K K K K K K K K K K ",
"l l l l l         l l l l l K K K K K K K K K l l l l l                                       l l l l l K K K K K K K K K K K K K K K K K K K K K K K ",
"l l l l l         l l l l l K K K K K K K K K l l l l l                                       l l l l l K K K K K K K K K K K K K K K K K K K K K K K ",
"l l l l l         l l l l l K K K K K K K K K l l l l l                                       l l l l l K K K K K K K K K K K K K K K K K K K K K K K ",
"l l l l l         l l l l l K K K K K K K K K l l l l l                                       l l l l l K K K K K K K K K K K K K K K K K K K K K K K ",
"                            l l l l l l l l l                     _ _ _ _ _ _ _ _ _ _ _ _ _ _           l l l l l l l l l l l l l l l l l l l l l l l ",
"                            l l l l l l l l l                     _ _ _ _ _ _ _ _ _ _ _ _ _ _           l l l l l l l l l l l l l l l l l l l l l l l ",
"                            l l l l l l l l l                     _ _ _ _ _ _ _ _ _ _ _ _ _ _           l l l l l l l l l l l l l l l l l l l l l l l ",
"                            l l l l l l l l l                     _ _ _ _ _ _ _ _ _ _ _ _ _ _           l l l l l l l l l l l l l l l l l l l l l l l ",
"                                                        _ _ _ _ _ K K K K K K K K K K K K K K _ _ _ _ _                                               ",
"                                                        _ _ _ _ _ K K K K K K K K K K K K K K _ _ _ _ _                                               ",
"                                                        _ _ _ _ _ K K K K K K K K K K K K K K _ _ _ _ _                                               ",
"                                                        _ _ _ _ _ K K K K K K K K K K K K K K _ _ _ _ _                                               ",
"                                                        _ _ _ _ _ K K K K K K K K K K K K K K _ _ _ _ _                                               "
};
