/* XPM */
static char *result[] = {
/* columns rows colors chars-per-pixel */
"75 75 6 1 ",
"  c #16161D",
". c #282838",
"X c #232344",
"o c #3B3151",
"O c #443A5A",
"+ c #6B5798",
/* pixels */
".....    oooooooooo         XXXXX         XXXXXXXXXX....ooooooooooXXXXXXXXX",
".....    oooooooooo         XXXXX         XXXXXXXXXX....ooooooooooXXXXXXXXX",
".....    oooooooooo         XXXXX         XXXXXXXXXX....ooooooooooXXXXXXXXX",
".....    oooooooooo         XXXXX         XXXXXXXXXX....ooooooooooXXXXXXXXX",
".....    oooooooooo         XXXXX         XXXXXXXXXX....ooooooooooXXXXXXXXX",
"         ooooo+++++++++.....     ....+++++XXXXXXXXXX    ooooooooooXXXXXXXXX",
"         ooooo+++++++++.....     ....+++++XXXXXXXXXX    ooooooooooXXXXXXXXX",
"         ooooo+++++++++.....     ....+++++XXXXXXXXXX    ooooooooooXXXXXXXXX",
"         ooooo+++++++++.....     ....+++++XXXXXXXXXX    ooooooooooXXXXXXXXX",
"                                          +++++         XXXXX+++++....     ",
"                                          +++++         XXXXX+++++....     ",
"                                          +++++         XXXXX+++++....     ",
"                                          +++++         XXXXX+++++....     ",
"                                          +++++         XXXXX+++++....     ",
"     ++++.....         XXXXXoooooXXXX                   .....XXXXXoooo.....",
"     ++++.....         XXXXXoooooXXXX                   .....XXXXXoooo.....",
"     ++++.....         XXXXXoooooXXXX                   .....XXXXXoooo.....",
"     ++++.....         XXXXXoooooXXXX                   .....XXXXXoooo.....",
"     ++++.....         XXXXXoooooXXXX                   .....XXXXXoooo.....",
"+++++XXXX          XXXX..........         XXXXXooooo++++                   ",
"+++++XXXX          XXXX..........         XXXXXooooo++++                   ",
"+++++XXXX          XXXX..........         XXXXXooooo++++                   ",
"+++++XXXX          XXXX..........         XXXXXooooo++++                   ",
"         XXXXXXXXXX                       .....XXXXXooooOOOOO              ",
"         XXXXXXXXXX                       .....XXXXXooooOOOOO              ",
"         XXXXXXXXXX                       .....XXXXXooooOOOOO              ",
"         XXXXXXXXXX                       .....XXXXXooooOOOOO              ",
"         XXXXXXXXXX                       .....XXXXXooooOOOOO              ",
"         XXXXXXXXXXooooOOOOO.....++++++++++++++XXXXX              XXXXXXXXX",
"         XXXXXXXXXXooooOOOOO.....++++++++++++++XXXXX              XXXXXXXXX",
"         XXXXXXXXXXooooOOOOO.....++++++++++++++XXXXX              XXXXXXXXX",
"         XXXXXXXXXXooooOOOOO.....++++++++++++++XXXXX              XXXXXXXXX",
"         XXXXXXXXXXooooOOOOO.....++++++++++++++XXXXX              XXXXXXXXX",
"ooooooooo     +++++ooooooooo     XXXXoooooOOOOOXXXXX         XXXXXXXXXXXXXX",
"ooooooooo     +++++ooooooooo     XXXXoooooOOOOOXXXXX         XXXXXXXXXXXXXX",
"ooooooooo     +++++ooooooooo     XXXXoooooOOOOOXXXXX         XXXXXXXXXXXXXX",
"ooooooooo     +++++ooooooooo     XXXXoooooOOOOOXXXXX         XXXXXXXXXXXXXX",
"XXXXXoooo                   .........XXXXXooooo.........++++++++++....     ",
"XXXXXoooo                   .........XXXXXooooo.........++++++++++....     ",
"XXXXXoooo                   .........XXXXXooooo.........++++++++++....     ",
"XXXXXoooo                   .........XXXXXooooo.........++++++++++....     ",
"XXXXXoooo                   .........XXXXXooooo.........++++++++++....     ",
"XXXXXXXXX          XXXXXXXXX.........XXXXX.....              XXXXX         ",
"XXXXXXXXX          XXXXXXXXX.........XXXXX.....              XXXXX         ",
"XXXXXXXXX          XXXXXXXXX.........XXXXX.....              XXXXX         ",
"XXXXXXXXX          XXXXXXXXX.........XXXXX.....              XXXXX         ",
"XXXXXXXXX          XXXXXXXXX.........XXXXX.....              XXXXX         ",
"         XXXXX     ++++XXXXX         oooooXXXXX                       ooooo",
"         XXXXX     ++++XXXXX         oooooXXXXX                       ooooo",
"         XXXXX     ++++XXXXX         oooooXXXXX                       ooooo",
"         XXXXX     ++++XXXXX         oooooXXXXX                       ooooo",
"         XXXXX     ++++XXXXX         oooooXXXXX                       ooooo",
"              +++++    ..........    OOOOO++++++++++XXXXXXXXX.........     ",
"              +++++    ..........    OOOOO++++++++++XXXXXXXXX.........     ",
"              +++++    ..........    OOOOO++++++++++XXXXXXXXX.........     ",
"              +++++    ..........    OOOOO++++++++++XXXXXXXXX.........     ",
"     oooo+++++OOOOO..............XXXXoooooOOOOOoooooooooXXXXX..............",
"     oooo+++++OOOOO..............XXXXoooooOOOOOoooooooooXXXXX..............",
"     oooo+++++OOOOO..............XXXXoooooOOOOOoooooooooXXXXX..............",
"     oooo+++++OOOOO..............XXXXoooooOOOOOoooooooooXXXXX..............",
"     oooo+++++OOOOO..............XXXXoooooOOOOOoooooooooXXXXX..............",
"     XXXXOOOOO.........          XXXXXXXXX                        ++++     ",
"     XXXXOOOOO.........          XXXXXXXXX                        ++++     ",
"     XXXXOOOOO.........          XXXXXXXXX                        ++++     ",
"     XXXXOOOOO.........          XXXXXXXXX                        ++++     ",
"     XXXXOOOOO.........          XXXXXXXXX                        ++++     ",
"         XXXXXooooooooo++++++++++....     XXXXXXXXXX    ooooo+++++         ",
"         XXXXXooooooooo++++++++++....     XXXXXXXXXX    ooooo+++++         ",
"         XXXXXooooooooo++++++++++....     XXXXXXXXXX    ooooo+++++         ",
"         XXXXXooooooooo++++++++++....     XXXXXXXXXX    ooooo+++++         ",
"XXXXX                                     XXXXXXXXXX    ooooo              ",
"XXXXX                                     XXXXXXXXXX    ooooo              ",
"XXXXX                                     XXXXXXXXXX    ooooo              ",
"XXXXX                                     XXXXXXXXXX    ooooo              ",
"XXXXX                                     XXXXXXXXXX    ooooo              "
};
