/* XPM */
static char *result[] = {
/* columns rows colors chars-per-pixel */
"75 75 4 1 ",
"  c #181425",
". c #262B44",
"X c #3A4466",
"o c #5A6988",
/* pixels */
"     oooooooooooooooooo     XXXXXXXXXXXXXXXXXXXXXXXXoooooooooooooo         ",
"     oooooooooooooooooo     XXXXXXXXXXXXXXXXXXXXXXXXoooooooooooooo         ",
"     oooooooooooooooooo     XXXXXXXXXXXXXXXXXXXXXXXXoooooooooooooo         ",
"     oooooooooooooooooo     XXXXXXXXXXXXXXXXXXXXXXXXoooooooooooooo         ",
"     oooooooooooooooooo     XXXXXXXXXXXXXXXXXXXXXXXXoooooooooooooo         ",
"oooooXXXXXXXXXXXXXXXXXXooooo.....XXXXXXXXXXXXXXXXXXXXXXXXXXXXXXXXXoooo     ",
"oooooXXXXXXXXXXXXXXXXXXooooo.....XXXXXXXXXXXXXXXXXXXXXXXXXXXXXXXXXoooo     ",
"oooooXXXXXXXXXXXXXXXXXXooooo.....XXXXXXXXXXXXXXXXXXXXXXXXXXXXXXXXXoooo     ",
"oooooXXXXXXXXXXXXXXXXXXooooo.....XXXXXXXXXXXXXXXXXXXXXXXXXXXXXXXXXoooo     ",
"XXXXXXXXXXXXXXXXXXXXXXXXXXXXooooo....XXXXXXXXXXXXXXXXXXXXXXXXXXXXXXXXX     ",
"XXXXXXXXXXXXXXXXXXXXXXXXXXXXooooo....XXXXXXXXXXXXXXXXXXXXXXXXXXXXXXXXX     ",
"XXXXXXXXXXXXXXXXXXXXXXXXXXXXooooo....XXXXXXXXXXXXXXXXXXXXXXXXXXXXXXXXX     ",
"XXXXXXXXXXXXXXXXXXXXXXXXXXXXooooo....XXXXXXXXXXXXXXXXXXXXXXXXXXXXXXXXX     ",
"XXXXXXXXXXXXXXXXXXXXXXXXXXXXooooo....XXXXXXXXXXXXXXXXXXXXXXXXXXXXXXXXX     ",
"XXXXXXXXXXXXXXXXXXXXXXXXXXXXXXXXX    .................................     ",
"XXXXXXXXXXXXXXXXXXXXXXXXXXXXXXXXX    .................................     ",
"XXXXXXXXXXXXXXXXXXXXXXXXXXXXXXXXX    .................................     ",
"XXXXXXXXXXXXXXXXXXXXXXXXXXXXXXXXX    .................................     ",
"XXXXXXXXXXXXXXXXXXXXXXXXXXXXXXXXX    .................................     ",
".....XXXXXXXXXXXXXXXXXXXXXXX.....         ooooooooooooooooooo              ",
".....XXXXXXXXXXXXXXXXXXXXXXX.....         ooooooooooooooooooo              ",
".....XXXXXXXXXXXXXXXXXXXXXXX.....         ooooooooooooooooooo              ",
".....XXXXXXXXXXXXXXXXXXXXXXX.....         ooooooooooooooooooo              ",
"     ....XXXXXXXXXXXXXXXXXXX.....    oooooXXXXXXXXXXXXXXXXXXXooooo         ",
"     ....XXXXXXXXXXXXXXXXXXX.....    oooooXXXXXXXXXXXXXXXXXXXooooo         ",
"     ....XXXXXXXXXXXXXXXXXXX.....    oooooXXXXXXXXXXXXXXXXXXXooooo         ",
"     ....XXXXXXXXXXXXXXXXXXX.....    oooooXXXXXXXXXXXXXXXXXXXooooo         ",
"     ....XXXXXXXXXXXXXXXXXXX.....    oooooXXXXXXXXXXXXXXXXXXXooooo         ",
"         ...................     ooooXXXXXXXXXXXXXXXXXXXXXXXXXXXXXoooo     ",
"         ...................     ooooXXXXXXXXXXXXXXXXXXXXXXXXXXXXXoooo     ",
"         ...................     ooooXXXXXXXXXXXXXXXXXXXXXXXXXXXXXoooo     ",
"         ...................     ooooXXXXXXXXXXXXXXXXXXXXXXXXXXXXXoooo     ",
"         ...................     ooooXXXXXXXXXXXXXXXXXXXXXXXXXXXXXoooo     ",
"         oooooooooooooo          XXXXXXXXXXXXXXXXXXXXXXXXXXXXXXXXX....     ",
"         oooooooooooooo          XXXXXXXXXXXXXXXXXXXXXXXXXXXXXXXXX....     ",
"         oooooooooooooo          XXXXXXXXXXXXXXXXXXXXXXXXXXXXXXXXX....     ",
"         oooooooooooooo          XXXXXXXXXXXXXXXXXXXXXXXXXXXXXXXXX....     ",
"     ooooXXXXXXXXXXXXXXooooo         XXXXXXXXXXXXXXXXXXX..........         ",
"     ooooXXXXXXXXXXXXXXooooo         XXXXXXXXXXXXXXXXXXX..........         ",
"     ooooXXXXXXXXXXXXXXooooo         XXXXXXXXXXXXXXXXXXX..........         ",
"     ooooXXXXXXXXXXXXXXooooo         XXXXXXXXXXXXXXXXXXX..........         ",
"     ooooXXXXXXXXXXXXXXooooo         XXXXXXXXXXXXXXXXXXX..........         ",
"     XXXXXXXXXXXXXXXXXXXXXXXooooooooo     ..............     ooooooooo     ",
"     XXXXXXXXXXXXXXXXXXXXXXXooooooooo     ..............     ooooooooo     ",
"     XXXXXXXXXXXXXXXXXXXXXXXooooooooo     ..............     ooooooooo     ",
"     XXXXXXXXXXXXXXXXXXXXXXXooooooooo     ..............     ooooooooo     ",
"     XXXXXXXXXXXXXXXXXXXXXXXooooooooo     ..............     ooooooooo     ",
"     ....XXXXXXXXXXXXXXXXXXXXXXXXXXXXooooo          oooooooooXXXXXXXXXooooo",
"     ....XXXXXXXXXXXXXXXXXXXXXXXXXXXXooooo          oooooooooXXXXXXXXXooooo",
"     ....XXXXXXXXXXXXXXXXXXXXXXXXXXXXooooo          oooooooooXXXXXXXXXooooo",
"     ....XXXXXXXXXXXXXXXXXXXXXXXXXXXXooooo          oooooooooXXXXXXXXXooooo",
"     ....XXXXXXXXXXXXXXXXXXXXXXXXXXXXooooo          oooooooooXXXXXXXXXooooo",
"ooooo    XXXXXXXXXXXXXXXXXXXXXXXXXXXX.....     oooooXXXXXXXXXXXXXXXXXXXXXXX",
"ooooo    XXXXXXXXXXXXXXXXXXXXXXXXXXXX.....     oooooXXXXXXXXXXXXXXXXXXXXXXX",
"ooooo    XXXXXXXXXXXXXXXXXXXXXXXXXXXX.....     oooooXXXXXXXXXXXXXXXXXXXXXXX",
"ooooo    XXXXXXXXXXXXXXXXXXXXXXXXXXXX.....     oooooXXXXXXXXXXXXXXXXXXXXXXX",
"XXXXX    XXXXXXXXXXXXXXXXXXXXXXXX....          XXXXXXXXXXXXXXXXXXXXXXXXXXXX",
"XXXXX    XXXXXXXXXXXXXXXXXXXXXXXX....          XXXXXXXXXXXXXXXXXXXXXXXXXXXX",
"XXXXX    XXXXXXXXXXXXXXXXXXXXXXXX....          XXXXXXXXXXXXXXXXXXXXXXXXXXXX",
"XXXXX    XXXXXXXXXXXXXXXXXXXXXXXX....          XXXXXXXXXXXXXXXXXXXXXXXXXXXX",
"XXXXX    XXXXXXXXXXXXXXXXXXXXXXXX....          XXXXXXXXXXXXXXXXXXXXXXXXXXXX",
".....    .....XXXXXXXXX.....                   .....XXXXXXXXXXXXXXXXXXXXXXX",
".....    .....XXXXXXXXX.....                   .....XXXXXXXXXXXXXXXXXXXXXXX",
".....    .....XXXXXXXXX.....                   .....XXXXXXXXXXXXXXXXXXXXXXX",
".....    .....XXXXXXXXX.....                   .....XXXXXXXXXXXXXXXXXXXXXXX",
".....    .....XXXXXXXXX.....                   .....XXXXXXXXXXXXXXXXXXXXXXX",
"              .........          oooooooooooooo     .......................",
"              .........          oooooooooooooo     .......................",
"              .........          oooooooooooooo     .......................",
"              .........          oooooooooooooo     .......................",
"                            oooooXXXXXXXXXXXXXXooooo                       ",
"                            oooooXXXXXXXXXXXXXXooooo                       ",
"                            oooooXXXXXXXXXXXXXXooooo                       ",
"                            oooooXXXXXXXXXXXXXXooooo                       ",
"                            oooooXXXXXXXXXXXXXXooooo                       "
};
