/* XPM */
static char *dffc1f5114ef4fa1ad3a6628dff972013VSLEbwLlDt0JWTr[] = {
/* columns rows colors chars-per-pixel */
"80 75 12 1 ",
"  c #181425",
". c #221928",
"X c #212137",
"o c #23243B",
"O c #3E2731",
"+ c #262B44",
"@ c #2D3350",
"# c #3F4864",
"$ c #BE4A2F",
"% c #F77622",
"& c #FEAE34",
"* c #FEE761",
/* pixels */
".........+++++%%%%%$$$$$OOOOooooo.....    $$$$$%%%%%OOOO+++++     +++++    XXXXX",
".........+++++%%%%%$$$$$OOOOooooo.....    $$$$$%%%%%OOOO+++++     +++++    XXXXX",
".........+++++%%%%%$$$$$OOOOooooo.....    $$$$$%%%%%OOOO+++++     +++++    XXXXX",
".........+++++%%%%%$$$$$OOOOooooo.....    $$$$$%%%%%OOOO+++++     +++++    XXXXX",
".........+++++%%%%%$$$$$OOOOooooo.....    $$$$$%%%%%OOOO+++++     +++++    XXXXX",
"%%%%%&&&&$$$$$&&&&&%%%%%$$$$+++++ooooo$$$$%%%%%&&&&&@@@@ooooo     +++++&&&&OOOOO",
"%%%%%&&&&$$$$$&&&&&%%%%%$$$$+++++ooooo$$$$%%%%%&&&&&@@@@ooooo     +++++&&&&OOOOO",
"%%%%%&&&&$$$$$&&&&&%%%%%$$$$+++++ooooo$$$$%%%%%&&&&&@@@@ooooo     +++++&&&&OOOOO",
"%%%%%&&&&$$$$$&&&&&%%%%%$$$$+++++ooooo$$$$%%%%%&&&&&@@@@ooooo     +++++&&&&OOOOO",
"@@@@@OOOO@@@@@@@@@@&&&&&%%%%$$$$$$$$$$%%%%*****@@@@@OOOO     @@@@@%%%%%$$$$#####",
"@@@@@OOOO@@@@@@@@@@&&&&&%%%%$$$$$$$$$$%%%%*****@@@@@OOOO     @@@@@%%%%%$$$$#####",
"@@@@@OOOO@@@@@@@@@@&&&&&%%%%$$$$$$$$$$%%%%*****@@@@@OOOO     @@@@@%%%%%$$$$#####",
"@@@@@OOOO@@@@@@@@@@&&&&&%%%%$$$$$$$$$$%%%%*****@@@@@OOOO     @@@@@%%%%%$$$$#####",
"@@@@@OOOO@@@@@@@@@@&&&&&%%%%$$$$$$$$$$%%%%*****@@@@@OOOO     @@@@@%%%%%$$$$#####",
"ooooo         oooooOOOOO&&&&%%%%%%%%%%&&&&$$$$$@@@@@ooooooooo     $$$$$         ",
"ooooo         oooooOOOOO&&&&%%%%%%%%%%&&&&$$$$$@@@@@ooooooooo     $$$$$         ",
"ooooo         oooooOOOOO&&&&%%%%%%%%%%&&&&$$$$$@@@@@ooooooooo     $$$$$         ",
"ooooo         oooooOOOOO&&&&%%%%%%%%%%&&&&$$$$$@@@@@ooooooooo     $$$$$         ",
"ooooo         oooooOOOOO&&&&%%%%%%%%%%&&&&$$$$$@@@@@ooooooooo     $$$$$         ",
"@@@@@oooo          +++++*********&&&&&%%%%&&&&&$$$$$oooo@@@@@$$$$$+++++    XXXXX",
"@@@@@oooo          +++++*********&&&&&%%%%&&&&&$$$$$oooo@@@@@$$$$$+++++    XXXXX",
"@@@@@oooo          +++++*********&&&&&%%%%&&&&&$$$$$oooo@@@@@$$$$$+++++    XXXXX",
"@@@@@oooo          +++++*********&&&&&%%%%&&&&&$$$$$oooo@@@@@$$$$$+++++    XXXXX",
"+++++@@@@oooooOOOOOOOOOO%%%%OOOOO+++++oooo%%%%%&&&&&$$$$$$$$$%%%%%ooooo++++OOOOO",
"+++++@@@@oooooOOOOOOOOOO%%%%OOOOO+++++oooo%%%%%&&&&&$$$$$$$$$%%%%%ooooo++++OOOOO",
"+++++@@@@oooooOOOOOOOOOO%%%%OOOOO+++++oooo%%%%%&&&&&$$$$$$$$$%%%%%ooooo++++OOOOO",
"+++++@@@@oooooOOOOOOOOOO%%%%OOOOO+++++oooo%%%%%&&&&&$$$$$$$$$%%%%%ooooo++++OOOOO",
"+++++@@@@oooooOOOOOOOOOO%%%%OOOOO+++++oooo%%%%%&&&&&$$$$$$$$$%%%%%ooooo++++OOOOO",
"     +++++++++OOOOO*****OOOOooooo         ooooo     %%%%%%%%%&&&&&%%%%%    +++++",
"     +++++++++OOOOO*****OOOOooooo         ooooo     %%%%%%%%%&&&&&%%%%%    +++++",
"     +++++++++OOOOO*****OOOOooooo         ooooo     %%%%%%%%%&&&&&%%%%%    +++++",
"     +++++++++OOOOO*****OOOOooooo         ooooo     %%%%%%%%%&&&&&%%%%%    +++++",
"     +++++++++OOOOO*****OOOOooooo         ooooo     %%%%%%%%%&&&&&%%%%%    +++++",
"*****&&&&&&&&&*****&&&&&OOOOooooo     oooo+++++ooooo&&&&*****&&&&&&&&&&****     ",
"*****&&&&&&&&&*****&&&&&OOOOooooo     oooo+++++ooooo&&&&*****&&&&&&&&&&****     ",
"*****&&&&&&&&&*****&&&&&OOOOooooo     oooo+++++ooooo&&&&*****&&&&&&&&&&****     ",
"*****&&&&&&&&&*****&&&&&OOOOooooo     oooo+++++ooooo&&&&*****&&&&&&&&&&****     ",
"         %%%%%&&&&&%%%%%$$$$OOOOO+++++++++ooooo$$$$$%%%%&&&&&%%%%%%%%%%    #####",
"         %%%%%&&&&&%%%%%$$$$OOOOO+++++++++ooooo$$$$$%%%%&&&&&%%%%%%%%%%    #####",
"         %%%%%&&&&&%%%%%$$$$OOOOO+++++++++ooooo$$$$$%%%%&&&&&%%%%%%%%%%    #####",
"         %%%%%&&&&&%%%%%$$$$OOOOO+++++++++ooooo$$$$$%%%%&&&&&%%%%%%%%%%    #####",
"         %%%%%&&&&&%%%%%$$$$OOOOO+++++++++ooooo$$$$$%%%%&&&&&%%%%%%%%%%    #####",
"     @@@@OOOOOOOOOO&&&&&%%%%$$$$$$$$$$%%%%%%%%%&&&&&****%%%%%%%%%%     OOOO+++++",
"     @@@@OOOOOOOOOO&&&&&%%%%$$$$$$$$$$%%%%%%%%%&&&&&****%%%%%%%%%%     OOOO+++++",
"     @@@@OOOOOOOOOO&&&&&%%%%$$$$$$$$$$%%%%%%%%%&&&&&****%%%%%%%%%%     OOOO+++++",
"     @@@@OOOOOOOOOO&&&&&%%%%$$$$$$$$$$%%%%%%%%%&&&&&****%%%%%%%%%%     OOOO+++++",
"     @@@@OOOOOOOOOO&&&&&%%%%$$$$$$$$$$%%%%%%%%%&&&&&****%%%%%%%%%%     OOOO+++++",
"@@@@@ooooooooo@@@@@%%%%%****%%%%%oooooOOOO              %%%%%*****ooooo@@@@     ",
"@@@@@ooooooooo@@@@@%%%%%****%%%%%oooooOOOO              %%%%%*****ooooo@@@@     ",
"@@@@@ooooooooo@@@@@%%%%%****%%%%%oooooOOOO              %%%%%*****ooooo@@@@     ",
"@@@@@ooooooooo@@@@@%%%%%****%%%%%oooooOOOO              %%%%%*****ooooo@@@@     ",
"@@@@@ooooooooo@@@@@%%%%%****%%%%%oooooOOOO              %%%%%*****ooooo@@@@     ",
"OOOOO         ooooo%%%%%&&&&     OOOOO                  OOOOO&&&&&     oooo     ",
"OOOOO         ooooo%%%%%&&&&     OOOOO                  OOOOO&&&&&     oooo     ",
"OOOOO         ooooo%%%%%&&&&     OOOOO                  OOOOO&&&&&     oooo     ",
"OOOOO         ooooo%%%%%&&&&     OOOOO                  OOOOO&&&&&     oooo     ",
".........+++++%%%%%$$$$$++++ooooo                       .....$$$$$&&&&&%%%%$$$$$",
".........+++++%%%%%$$$$$++++ooooo                       .....$$$$$&&&&&%%%%$$$$$",
".........+++++%%%%%$$$$$++++ooooo                       .....$$$$$&&&&&%%%%$$$$$",
".........+++++%%%%%$$$$$++++ooooo                       .....$$$$$&&&&&%%%%$$$$$",
".........+++++%%%%%$$$$$++++ooooo                       .....$$$$$&&&&&%%%%$$$$$",
"%%%%%$$$$$$$$$&&&&&%%%%%OOOO+++++     @@@@          %%%%&&&&&%%%%%$$$$$&&&&%%%%%",
"%%%%%$$$$$$$$$&&&&&%%%%%OOOO+++++     @@@@          %%%%&&&&&%%%%%$$$$$&&&&%%%%%",
"%%%%%$$$$$$$$$&&&&&%%%%%OOOO+++++     @@@@          %%%%&&&&&%%%%%$$$$$&&&&%%%%%",
"%%%%%$$$$$$$$$&&&&&%%%%%OOOO+++++     @@@@          %%%%&&&&&%%%%%$$$$$&&&&%%%%%",
"%%%%%$$$$$$$$$&&&&&%%%%%OOOO+++++     @@@@          %%%%&&&&&%%%%%$$$$$&&&&%%%%%",
"@@@@@OOOO@@@@@$$$$$&&&&&    OOOOOOOOOO         %%%%%$$$$@@@@@OOOOO@@@@@@@@@     ",
"@@@@@OOOO@@@@@$$$$$&&&&&    OOOOOOOOOO         %%%%%$$$$@@@@@OOOOO@@@@@@@@@     ",
"@@@@@OOOO@@@@@$$$$$&&&&&    OOOOOOOOOO         %%%%%$$$$@@@@@OOOOO@@@@@@@@@     ",
"@@@@@OOOO@@@@@$$$$$&&&&&    OOOOOOOOOO         %%%%%$$$$@@@@@OOOOO@@@@@@@@@     ",
"ooooo              $$$$$OOOO              %%%%%$$$$$    ooooo                   ",
"ooooo              $$$$$OOOO              %%%%%$$$$$    ooooo                   ",
"ooooo              $$$$$OOOO              %%%%%$$$$$    ooooo                   ",
"ooooo              $$$$$OOOO              %%%%%$$$$$    ooooo                   ",
"ooooo              $$$$$OOOO              %%%%%$$$$$    ooooo                   "
};
