/* XPM */
static char *result[] = {
/* columns rows colors chars-per-pixel */
"75 75 229 2 ",
"   c #263230",
".  c #233632",
"X  c #223635",
"o  c #273535",
"O  c #263937",
"+  c #283639",
"@  c #213939",
"#  c #233839",
"$  c #223B38",
"%  c #223A3A",
"&  c #253938",
"*  c #243839",
"=  c #25393A",
"-  c #263A3B",
";  c #223D38",
":  c #253E3B",
">  c #25383C",
",  c #243C3C",
"<  c #283C3D",
"1  c #601B00",
"2  c #6E1F00",
"3  c #4E2E07",
"4  c #45280A",
"5  c #472F09",
"6  c #472D0A",
"7  c #472A0C",
"8  c #472C0E",
"9  c #462D0E",
"0  c #452E0E",
"q  c #482B0B",
"w  c #4E2B0B",
"e  c #492F0A",
"r  c #482B0D",
"t  c #492C0E",
"y  c #482D0F",
"u  c #4B2C0F",
"i  c #4A2D0F",
"p  c #4B2E0E",
"a  c #4C2E0C",
"s  c #4C2D0E",
"d  c #572605",
"f  c #5D2202",
"g  c #5D2703",
"h  c #5D2A00",
"j  c #42300C",
"k  c #49310D",
"l  c #5D310C",
"z  c #4A2A11",
"x  c #4E2A10",
"c  c #4B2D11",
"v  c #492E10",
"b  c #482F10",
"n  c #4B2E10",
"m  c #482D12",
"M  c #4A2C12",
"N  c #4C2F11",
"B  c #502B10",
"V  c #572C1B",
"C  c #4E3113",
"Z  c #563117",
"A  c #612300",
"S  c #632300",
"D  c #662000",
"F  c #672100",
"G  c #602400",
"H  c #622400",
"J  c #632500",
"K  c #612600",
"L  c #612701",
"P  c #622700",
"I  c #652501",
"U  c #642600",
"Y  c #642601",
"T  c #642502",
"R  c #652502",
"E  c #662402",
"W  c #652702",
"Q  c #622604",
"!  c #652404",
"~  c #6B2100",
"^  c #682401",
"/  c #6A2601",
"(  c #6F2400",
")  c #622D03",
"_  c #672904",
"`  c #682800",
"'  c #6C2900",
"]  c #662708",
"[  c #67270B",
"{  c #61230C",
"}  c #712A00",
"|  c #76593B",
" . c #775A3C",
".. c #725E3D",
"X. c #755E3C",
"o. c #034746",
"O. c #004B41",
"+. c #014948",
"@. c #004849",
"#. c #01484A",
"$. c #02494B",
"%. c #004063",
"&. c #004265",
"*. c #014365",
"=. c #014366",
"-. c #014568",
";. c #7C5F41",
":. c #7E5F42",
">. c #7B6042",
",. c #7A6142",
"<. c #7D6042",
"1. c #7E6143",
"2. c #7F6244",
"3. c #975630",
"4. c #985731",
"5. c #995832",
"6. c #83653F",
"7. c #806345",
"8. c #816446",
"9. c #836A41",
"0. c #C78660",
"q. c #C88761",
"w. c #CC8760",
"e. c #CF8663",
"r. c #C78964",
"t. c #C98963",
"y. c #CA8963",
"u. c #CB8A64",
"i. c #CC8B65",
"p. c #CC8A67",
"a. c #CD8C66",
"s. c #D18D66",
"d. c #0E7DB5",
"f. c #137FBD",
"g. c #6C4DC5",
"h. c #6E4EC9",
"j. c #6D4FCB",
"k. c #704CCA",
"l. c #6D52C7",
"z. c #6D50CE",
"x. c #6F4ED0",
"c. c #6F4ED1",
"v. c #6E4DD2",
"b. c #6A4BD4",
"n. c #6E43D9",
"m. c #734FD5",
"M. c #774AD8",
"N. c #7B4FE4",
"B. c #009091",
"V. c #019392",
"C. c #009293",
"Z. c #009692",
"A. c #009B94",
"S. c #1380B9",
"D. c #1281B9",
"F. c #1682C0",
"G. c #46B3EC",
"H. c #44B0EE",
"J. c #46B5ED",
"K. c #48B7EF",
"L. c #46B2F0",
"P. c #13D5CD",
"I. c #18D1CC",
"U. c #11D1D2",
"Y. c #15D1D0",
"T. c #15D1D2",
"R. c #15D1D3",
"E. c #8B9F9E",
"W. c #8B9FA0",
"Q. c #8C9FA3",
"!. c #8CA0A1",
"~. c #8FA3A4",
"^. c #8FA2A6",
"/. c #F5B58F",
"(. c #FBB68F",
"). c #FDBA8F",
"_. c #FFBC8E",
"`. c #F7B592",
"'. c #FBB790",
"]. c #FFB590",
"[. c #FEBA93",
"{. c #FABD91",
"}. c #FAB895",
"|. c #F9BB94",
" X c #FBBB95",
".X c #FCBB95",
"XX c #FFBD94",
"oX c #FEBF94",
"OX c #FCBC96",
"+X c #FDBC96",
"@X c #FDBD97",
"#X c #FFBC96",
"$X c #FFBD96",
"%X c #FEBD97",
"&X c #FEBF96",
"*X c #FDBB98",
"=X c #F9BD98",
"-X c #FEBC99",
";X c #FFBC99",
":X c #FFBE98",
">X c #FFBF99",
",X c #FFBD9A",
"<X c #FFC394",
"1X c #FFC097",
"2X c #FFC09A",
"3X c #FFC29C",
"4X c #FFC59E",
"5X c #FFC49F",
"6X c #FFC1A6",
"7X c #BCD0CF",
"8X c #BDD1D0",
"9X c #BDD1D2",
"0X c #BED2D3",
"qX c #BDD0D4",
"wX c #BFD3D4",
"eX c #BFD2D6",
"rX c #C0D4D3",
"tX c #C1D5D4",
"yX c #C0D4D5",
"uX c #C2D5D9",
"iX c #FFFFFA",
"pX c #FEFFFB",
"aX c #FFFFFD",
"sX c #FFFDFF",
"dX c #FDFFFE",
"fX c #FDFEFF",
"gX c #FFFEFF",
"hX c white",
"jX c None",
/* pixels */
"jXjXjXjXjXjXjXjXjXjXjXjXjXjXjXjXjXjXjXjXjXjXjXjXjXjXjXjXjXjXjXjXjXjXjXjXjXjXjXjXjXjXjXjXjXjXjXjXjXjXjXjXjXjXjXjXjXjXjXjXjXjXjXjXjXjXjXjXjXjXjXjXjXjXjX",
"jXjXjXjXjXjXjXjXjXjXjXjXjXjXjXjXjXjXjXjXjXjXjXjXjXjXjXjXjXjXjXjXjXjXjXjXjXjXjXjXjXjXjXjXjXjXjXjXjXjXjXjXjXjXjXjXjXjXjXjXjXjXjXjXjXjXjXjXjXjXjXjXjXjXjX",
"jXjXjXjXjXjXjXjXjXjXjXjXjXjXjXjXjXjXjXjXjXjXjXjXjXjXjXjXjXjXjXjXjXjXjXjXjXjXjXjXjXjXjXjXjXjXjXjXjXjXjXjXjXjXjXjXjXjXjXjXjXjXjXjXjXjXjXjXjXjXjXjXjXjXjX",
"jXjXjXjXjXjXjXjXjXjXjXjXjXjXjXjXjXjXjXjXjXjXjXjXjXjXjXjXjXjXjXjXjXjXjXjXjXjXjXjXjXjXjXjXjXjXjXjXjXjXjXjXjXjXjXjXjXjXjXjXjXjXjXjXjXjXjXjXjXjXjXjXjXjXjX",
"jXjXjXjXjXjXjXjXjXjXjXjXjXjXjXjXjXjXjXjXjXjXjXjXjXjXjXjXjXjXjXjXjXjXjXjXjXjXjXjXjXjXjXjXjXjXjXjXjXjXjXjXjXjXjXjXjXjXjXjXjXjXjXjXjXjXjXjXjXjXjXjXjXjXjX",
"jXjXjXjXjXjXjXjXjXjXjXjXjXjXjXjXjXjXjXjXjXjXjXjXjXjXjXjXjXjXjXjXjXjXjXjXjXjXjXjXjXjXjXjXjXjXjXjXjXjXjXjXjXjXjXjXjXjXjXjXjXjXjXjXjXjXjXjXjXjXjXjXjXjXjX",
"jXjXjXjXjXjXjXjXjXjXjXjXjXjXjXjXjXjXjXjXjXjXjXjXjXjXjXjXjXjXjXjXjXjXjXjXjXjXjXjXjXjXjXjXjXjXjXjXjXjXjXjXjXjXjXjXjXjXjXjXjXjXjXjXjXjXjXjXjXjXjXjXjXjXjX",
"jXjXjXjXjXjXjXjXjXjXjXjXjXjXjXjXjXjXjXjXjXjXjXjXjXjXjXjXjXjXjXjXjXjXjXjXjXjXjXjXjXjXjXjXjXjXjXjXjXjXjXjXjXjXjXjXjXjXjXjXjXjXjXjXjXjXjXjXjXjXjXjXjXjXjX",
"jXjXjXjXjXjXjXjXjXjXjXjXjXjXjXjXjXjXjXjXjXjXjXjXjXjXjXjXjXjXjXjXjXjXjXjXjXjXjXjXjXjXjXjXjXjXjXjXjXjXjXjXjXjXjXjXjXjXjXjXjXjXjXjXjXjXjXjXjXjXjXjXjXjXjX",
"jXjXjXjXjXjXjXjXjXjXjXjXjXjXjXjXjXjXjXjXjXjXjXjXjXjXjXjXjXjXjXjXjXjXjXjXjXjXjXjXjXjXjXjXjXjXjXjXjXjXjXjXjXjXjXjXjXjXjXjXjXjXjXjXjXjXjXjXjXjXjXjXjXjXjX",
"jXjXjXjXjXjXjXjXjXjXjXjXjXjXjXjXjXjXjXjXjXjXjXjXjXjXjXjXjXjXjXjXjXjXjXjXjXjXjXjXjXjXjXjXjXjXjXjXjXjXjXjXjXjXjXjXjXjXjXjXjXjXjXjXjXjXjXjXjXjXjXjXjXjXjX",
"jXjXjXjXjXjXjXjXjXjXjXjXjXjXjXjXjXjXjXjXjXjXjXjXjXjXjXjXjXjXjXjXjXjXjXjXjXjXjXjXjXjXjXjXjXjXjXjXjXjXjXjXjXjXjXjXjXjXjXjXjXjXjXjXjXjXjXjXjXjXjXjXjXjXjX",
"jXjXjXjXjXjXjXjXjXjXjXjX6.>.>.8 v v v v v v v v v v v v v v v v v v v v v v v v v v v v v v v v v v v v v v v v v v y >.>.9.jXjXjXjXjXjXjXjXjXjXjXjXjX",
"jXjXjXjXjXjXjXjXjXjXjXjX<.1.1.n n n n n n n n n n n n n n n n n n n n n n n n n n n n n n n n n n n n n n n n n n n n 1.1.,.jXjXjXjXjXjXjXjXjXjXjXjXjX",
"jXjXjXjXjXjXjXjXjXjXjXjX<.1.1.n n n n n n n n n n n n n n n n n n n n n n n n n n n n n n n n n n n n n n n n n n n n 1.1.,.jXjXjXjXjXjXjXjXjXjXjXjXjX",
"jXjXjXjXjXjXjXjXjXjXjXjXN n n ;.1.1.1.1.1.1.1.1.1.1.1.1.1.1.1.1.1.1.1.1.1.1.1.1.1.1.1.1.1.1.1.1.1.1.1.1.1.1.1.1.1.1.7.n n b jXjXjXjXjXjXjXjXjXjXjXjXjX",
"jXjXjXjXjXjXjXjXjXjXjXjXi n n | 1.1.1.1.1.1.1.1.1.1.1.1.1.1.1.1.1.1.1.1.1.1.1.1.1.1.1.1.1.1.1.1.1.1.1.1.1.1.1.1.1.1.8.n n 9 jXjXjXjXjXjXjXjXjXjXjXjXjX",
"jXjXjXjXjXjXjXjXjXjXjXjXi n n 2.1.1.1.1.1.1.1.1.1.1.1.1.1.1.1.1.1.1.1.1.1.1.1.1.1.1.1.1.1.1.1.1.1.1.1.1.1.1.1.1.1.1.1.n n 9 jXjXjXjXjXjXjXjXjXjXjXjXjX",
"jXjXjXjXjXjXjXjXjXjXjXjXi n n 2.1.1.1.1.1.1.1.1.1.1.1.1.1.1.1.1.1.1.t n n n n n n n n n n n n n n n n n n n n n n n n n n 9 jXjXjXjXjXjXjXjXjXjXjXjXjX",
"jXjXjXjXjXjXjXjXjXjXjXjXi n n 2.1.1.1.1.1.1.1.1.1.1.1.1.1.1.1.1.1.1.t n n n n n n n n n n n n n n n n n n n n n n n n n n 9 jXjXjXjXjXjXjXjXjXjXjXjXjX",
"jXjXjXjXjXjXjXjXjXjXjXjXi n n 2.1.1.1.1.1.1.1.1.1.1.1.1.1.1.2.7.1.:.y p p p p p p p p p p p p p p p p p p p p p p p q n n 0 jXjXjXjXjXjXjXjXjXjXjXjXjX",
"jXjXjXjXjXjXjXjXjXjXjXjXi n n 2.1.1.1.1.1.1.1.1.1.1.1.1.1.1.;.i n 3 5X&X&X&X&X&X&X&X&X&X&X&X&X&X&X&X&X&X&X&X&X&X&X&X1XP P F jXjXjXjXjXjXjXjXjXjXjXjXjX",
"jXjXjXjXjXjXjXjXjXjXjXjXi n n 2.1.1.1.1.1.1.1.1.1.1.1.1.1.1.<.n n s =X%X%X%X%X%X%X%X%X%X%X%X%X%X%X%X%X%X%X%X%X%X%X%X:XY Y S jXjXjXjXjXjXjXjXjXjXjXjXjX",
"jXjXjXjXjXjXjXjXjXjXjXjXi n n 2.1.1.1.1.1.1.1.1.1.1.1.1.2.1.X.v u w ].%X%X%X%X%X%X%X%X%X%X%X%X%X%X%X%X%X%X%X%X%X%X%X:XY Y S jXjXjXjXjXjXjXjXjXjXjXjXjX",
"jXjXjXjXjXjXjXjXjXjXjXjXi n n 2.1.1.1.1.1.1.1.1.1.1.1. .<.2...e 5 d (.%X%X%X%X%X%X%X%X%X%X%X%X%X%X%X%X%X%X%X%X%X%X%X:XY Y S jXjXjXjXjXjXjXjXjXjXjXjXjX",
"jXjXjXjXjXjXjXjXjXjXjXjXi n n 2.1.1.1.1.1.1.1.1.1.1.1.N n n M XX%X%X%X%X%X%X%X%X%X%X%X%X%X%X%X%X%X%X%X%X%X%X%X%X%X%X:XY Y S jXjXjXjXjXjXjXjXjXjXjXjXjX",
"jXjXjXjXjXjXjXjXjXjXjXjXi n n 2.1.1.1.1.1.1.1.1.1.1.1.N n n M XX%X%X%X%X%X%X%X%X%X%X%X%X%X%X%X%X%X%X%X%X%X%X%X%X%X%X:XY Y S jXjXjXjXjXjXjXjXjXjXjXjXjX",
"jXjXjXjXjXjXjXjXjXjXjXjXi n n 2.1.1.1.1.1.N N N N N N i C n M XX%X%X%X%X%XdXdXgXb.h.m.4X%X%X%X%X%XN.n.h.h.dXiX6X%X%X:XY Y S jXjXjXjXjXjXjXjXjXjXjXjXjX",
"jXjXjXjXjXjXjXjXjXjXjXjXi n n 2.1.1.1.1.1.i i i i i i r i n M XX%X%X%X%X%XpXpXfXj.k.M.|.%X%X%X%X%Xl.g.k.k.pXsX).%X%X:XY Y S jXjXjXjXjXjXjXjXjXjXjXjXjX",
"jXjXjXjXjXjXjXjXjXjXjXjXi n n 2.1.1.1.1.1.n n n n n n n n n M XX%X%X%X%X%XhXhXiXc.x.v.;X%X%X%X%X%Xm.z.x.x.hXaX@X%X%X:XY Y S jXjXjXjXjXjXjXjXjXjXjXjXjX",
"jXjXjXjXjXjXjXjXjXjXjXjXi n n 2.1.1.1.1.1.n n n n n n n n n M XX%X%X%X%X%XhXhXiXc.x.v.;X%X%X%X%X%Xm.z.x.x.hXaX@X%X%X:XY Y S jXjXjXjXjXjXjXjXjXjXjXjXjX",
"jXjXjXjXjXjXjXjXjXjXjXjXi n n 2.1.1.N 7 n oXoXoXoXoXoX6 z n M XX%X%X%X%X%XhXhXiXc.x.v.;X%X%X%X%X%Xm.z.x.x.hXaX@X%X%X:XY Y S jXjXjXjXjXjXjXjXjXjXjXjXjX",
"jXjXjXjXjXjXjXjXjXjXjXjXi n n 2.1.1.i n n %X%X%X%X%X%Xk a n M XX%X%X%X%X%XhXhXiXc.x.v.;X%X%X%X%X%Xm.z.x.x.hXaX@X%X%X:XY Y S jXjXjXjXjXjXjXjXjXjXjXjXjX",
"jXjXjXjXjXjXjXjXjXjXjXjXi n n 2.1.1.i n n %X%X%X%X%X%Xk a n M XX%X%X%X%X%XhXhXiXc.x.v.;X%X%X%X%X%Xm.z.x.x.hXaX@X%X%X:XY Y S jXjXjXjXjXjXjXjXjXjXjXjXjX",
"jXjXjXjXjXjXjXjXjXjXjXjXi n n n n n n n n %X%X%X%Xu.u.u.u.u.u.%X%X%X%X%X%X%X%X%X%X%X%Xy.u.u.u.u.u.%X%X%X%X%X%X%X%X%X:XY Y S jXjXjXjXjXjXjXjXjXjXjXjXjX",
"jXjXjXjXjXjXjXjXjXjXjXjXj c c 4 n n n n n %X%X.X+Xu.u.u.u.u.u.%X%X%X%X%X%X%X%X+X.X%X+Xu.u.u.u.u.u.%X+X%X%X%X%X%X%X%X:XY Y S jXjXjXjXjXjXjXjXjXjXjXjXjX",
"jXjXjXjXjXjXjXjXjXjXjXjXm B B Z x x x x x :X:X+X%Xu.u.u.u.u.u.%X%X%X%X%X%X%X%X%X+X:X2Xu.i.i.i.i.i.:X.X:X:X%X%X%X%X%X:XY Y S jXjXjXjXjXjXjXjXjXjXjXjXjX",
"jXjXjXjXjXjXjXjXjXjXjXjXS Y Y a.u.u.u.u.u.u.u.u.u.u.u.u.u.u.u.%X%X%X%X%X%X%X%X:X4.4.4.4.4.4.4.4.4.4.4.4.4.%X%X%X%X%X:XY Y S jXjXjXjXjXjXjXjXjXjXjXjXjX",
"jXjXjXjXjXjXjXjXjXjXjXjXS Y Y a.u.u.u.u.u.u.u.u.u.u.u.u.u.u.u.%X%X%X%X%X%X%X%X:X4.4.4.4.4.4.4.4.4.4.4.4.4.%X%X%X%X%X:XY Y S jXjXjXjXjXjXjXjXjXjXjXjXjX",
"jXjXjXjXjXjXjXjXjXjXjXjXS Y Y q.i.i.i.i.i.i.i.i.i.i.i.i.i.i.0.+X%X%X%X%X%X%X%X2X5.3.3.3.3.3.3.3.3.3.3.3.3.%X%X%X%X%X:XY Y S jXjXjXjXjXjXjXjXjXjXjXjXjX",
"jXjXjXjXjXjXjXjXjXjXjXjXS Y Y _ J J J J J J J J J J J J J J W W Y Y Y Y Y Y Y H H W W W W W W W W W W W W Y Y Y Y Y A Y Y S jXjXjXjXjXjXjXjXjXjXjXjXjX",
"jXjXjXjXjXjXjXjXjXjXjXjXS Y Y Y Y Y Y Y Y Y Y Y Y Y Y Y Y Y Y Y Y Y Y Y Y Y Y Y Y Y Y Y Y Y Y Y Y Y Y Y Y Y Y Y Y Y Y Y Y S jXjXjXjXjXjXjXjXjXjXjXjXjX",
"jXjXjXjXjXjXjXjXjXjXjXjXS Y Y Y Y Y Y Y Y Y Y Y Y Y Y Y Y Y Y Y Y Y Y Y Y Y Y Y Y Y Y Y Y Y Y Y Y Y Y Y Y Y Y Y Y Y Y Y Y S jXjXjXjXjXjXjXjXjXjXjXjXjX",
"jXjXjXjXjXjXjXjXjXjXjXjXjXjXjX1 Y Y Y Y Y C.C.C.C.C.C.C.C.C.C.C.C.C.C.C.C.C.C.C.C.C.C.C.C.C.C.C.C.C.C.C.C.o.O.Q Y Y [ jXjXjXjXjXjXjXjXjXjXjXjXjXjXjXjX",
"jXjXjXjXjXjXjXjXjXjXjXjXjXjXjXG Y Y Y Y Y V.V.V.V.V.V.V.V.V.V.V.V.V.V.V.V.V.V.V.V.V.V.V.V.V.V.V.V.V.V.V.V.+.#.I Y Y S jXjXjXjXjXjXjXjXjXjXjXjXjXjXjXjX",
"jXjXjXjXjXjXjXjXjXjXjXjXjXjXjXG Y Y Y Y Y V.V.V.V.V.V.V.V.V.V.V.V.V.V.V.V.V.V.V.V.V.V.V.V.V.V.V.V.V.V.V.V.+.#.I Y Y S jXjXjXjXjXjXjXjXjXjXjXjXjXjXjXjX",
"jXjXjXjXjXjXjXjXjXjXjXjX) Q Q s.t.t./. XOXT T ` l V.V.V.V.V.A.I.P.P.P.P.P.P.P.P.P.P.P.P.P.P.P.P.P.P.P.P.P.+.$.'.OXOX#XQ Q g jXjXjXjXjXjXjXjXjXjXjXjXjX",
"jXjXjXjXjXjXjXjXjXjXjXjX/ L L w.i.i..X+X%XI I D h V.V.V.V.V.B.U.R.R.R.R.R.R.R.R.R.R.R.R.R.R.R.R.R.R.R.R.R.+.$.[.%X%X{.L L ' jXjXjXjXjXjXjXjXjXjXjXjXjX",
"jXjXjXjXjXjXjXjXjXjXjXjXS Y Y a.u.u.%X%X%XY Y K ! V.V.V.V.V.Z.Y.T.T.T.T.T.T.T.T.T.T.T.T.T.T.T.T.T.T.T.T.T.+.@.$X%X%X:XY Y S jXjXjXjXjXjXjXjXjXjXjXjXjX",
"jXjXjXjXjXjXjXjXjXjXjXjXS Y Y a.u.u.%X%X%XY Y ^ U S.S.S.S.S.S.G.G.G.G.G.G.G.G.G.G.G.G.G.G.G.G.G.G.G.G.G.G.=.&.,X%X%X:XY Y S jXjXjXjXjXjXjXjXjXjXjXjXjX",
"jXjXjXjXjXjXjXjXjXjXjXjXS Y Y a.u.u.%X%X%XY Y ^ U S.S.S.S.S.S.G.G.G.G.G.G.G.G.G.G.G.G.G.G.G.G.G.G.G.G.G.G.=.&.,X%X%X:XY Y S jXjXjXjXjXjXjXjXjXjXjXjXjX",
"jXjXjXjXjXjXjXjXjXjXjXjX( G G e.u.u.+X3X>XI I { ~ f.f.f.f.f.F.H.L.L.L.L.L.L.L.L.L.L.L.L.L.L.L.L.L.L.L.L.L.=.%.*X>X>X<XG G } jXjXjXjXjXjXjXjXjXjXjXjXjX",
"jXjXjXjXjXjXjXjXjXjXjXjX] P P r.p.p.`.,X-XE E 2 V D.D.D.D.D.d.K.J.J.J.J.J.J.J.J.J.J.J.J.J.J.J.J.J.J.J.J.J.=.-.}.-X-X_.P P f jXjXjXjXjXjXjXjXjXjXjXjXjX",
"jXjXjXjXjXjXjXjXjXjXjXjXjXjXjXG Y Y Y Y Y =.=.=.=.=.=.=.=.=.=.=.=.=.=.=.=.=.=.=.=.=.=.=.=.=.=.=.=.=.=.=.=.=.*.R Y Y S jXjXjXjXjXjXjXjXjXjXjXjXjXjXjXjX",
"jXjXjXjXjXjXjXjXjXjXjXjXjXjXjXG Y Y Y Y Y =.=.=.=.=.=.=.=.=.=.=.=.=.=.=.=.=.=.=.=.=.=.=.=.=.=.=.=.=.=.=.=.=.*.R Y Y S jXjXjXjXjXjXjXjXjXjXjXjXjXjXjXjX",
"jXjXjXjXjXjXjXjXjXjXjXjXjXjXjXjXjXjX. ; $ E.E.E.E.E.E.7X8XrXrXrXrXrXrXrXrX& & X E.E.E.tXrXrXrXrXrXrXrXrXrX& @ jXjXjXjXjXjXjXjXjXjXjXjXjXjXjXjXjXjXjXjX",
"jXjXjXjXjXjXjXjXjXjXjXjXjXjXjXjXjXjX  % & Q.Q.Q.Q.Q.Q.uXeXeXeXeXeXeXeXeXeX> > > ^.Q.Q.qXeXeXeXeXeXeXeXeXeX> , jXjXjXjXjXjXjXjXjXjXjXjXjXjXjXjXjXjXjXjX",
"jXjXjXjXjXjXjXjXjXjXjXjXjXjXjXjXjXjXO + = W.W.W.W.W.W.0X0X0X0X0X0X0X0X0X0X= = * W.W.W.wX0X0X0X0X0X0X0X0X0X= * jXjXjXjXjXjXjXjXjXjXjXjXjXjXjXjXjXjXjXjX",
"jXjXjXjXjXjXjXjXjXjXjXjXjXjXjXjXjXjXO + = W.W.W.W.W.W.wX9XyXyXyXyXyXyXyXyX= = < ~.W.!.9XyXyXyXyXyXyXyXyXyX= * jXjXjXjXjXjXjXjXjXjXjXjXjXjXjXjXjXjXjXjX",
"jXjXjXjXjXjXjXjXjXjXjXjXjXjXjXjXjXjXO + = = = = = = = - = = = = = = = = = = = = * = = - = = = = = = = = = = * jXjXjXjXjXjXjXjXjXjXjXjXjXjXjXjXjXjXjXjX",
"jXjXjXjXjXjXjXjXjXjXjXjXjXjXjXjXjXjXO + = = = = = = = = = = = = = = = = = = = = = = = = = = = = = = = = = = * jXjXjXjXjXjXjXjXjXjXjXjXjXjXjXjXjXjXjXjX",
"jXjXjXjXjXjXjXjXjXjXjXjXjXjXjXjXjXjXo # # # # # # # # # # # # # # # # # # # # # # # # # # # # # # # # # # # : jXjXjXjXjXjXjXjXjXjXjXjXjXjXjXjXjXjXjXjX",
"jXjXjXjXjXjXjXjXjXjXjXjXjXjXjXjXjXjXjXjXjXjXjXjXjXjXjXjXjXjXjXjXjXjXjXjXjXjXjXjXjXjXjXjXjXjXjXjXjXjXjXjXjXjXjXjXjXjXjXjXjXjXjXjXjXjXjXjXjXjXjXjXjXjXjX",
"jXjXjXjXjXjXjXjXjXjXjXjXjXjXjXjXjXjXjXjXjXjXjXjXjXjXjXjXjXjXjXjXjXjXjXjXjXjXjXjXjXjXjXjXjXjXjXjXjXjXjXjXjXjXjXjXjXjXjXjXjXjXjXjXjXjXjXjXjXjXjXjXjXjXjX",
"jXjXjXjXjXjXjXjXjXjXjXjXjXjXjXjXjXjXjXjXjXjXjXjXjXjXjXjXjXjXjXjXjXjXjXjXjXjXjXjXjXjXjXjXjXjXjXjXjXjXjXjXjXjXjXjXjXjXjXjXjXjXjXjXjXjXjXjXjXjXjXjXjXjXjX",
"jXjXjXjXjXjXjXjXjXjXjXjXjXjXjXjXjXjXjXjXjXjXjXjXjXjXjXjXjXjXjXjXjXjXjXjXjXjXjXjXjXjXjXjXjXjXjXjXjXjXjXjXjXjXjXjXjXjXjXjXjXjXjXjXjXjXjXjXjXjXjXjXjXjXjX",
"jXjXjXjXjXjXjXjXjXjXjXjXjXjXjXjXjXjXjXjXjXjXjXjXjXjXjXjXjXjXjXjXjXjXjXjXjXjXjXjXjXjXjXjXjXjXjXjXjXjXjXjXjXjXjXjXjXjXjXjXjXjXjXjXjXjXjXjXjXjXjXjXjXjXjX",
"jXjXjXjXjXjXjXjXjXjXjXjXjXjXjXjXjXjXjXjXjXjXjXjXjXjXjXjXjXjXjXjXjXjXjXjXjXjXjXjXjXjXjXjXjXjXjXjXjXjXjXjXjXjXjXjXjXjXjXjXjXjXjXjXjXjXjXjXjXjXjXjXjXjXjX",
"jXjXjXjXjXjXjXjXjXjXjXjXjXjXjXjXjXjXjXjXjXjXjXjXjXjXjXjXjXjXjXjXjXjXjXjXjXjXjXjXjXjXjXjXjXjXjXjXjXjXjXjXjXjXjXjXjXjXjXjXjXjXjXjXjXjXjXjXjXjXjXjXjXjXjX",
"jXjXjXjXjXjXjXjXjXjXjXjXjXjXjXjXjXjXjXjXjXjXjXjXjXjXjXjXjXjXjXjXjXjXjXjXjXjXjXjXjXjXjXjXjXjXjXjXjXjXjXjXjXjXjXjXjXjXjXjXjXjXjXjXjXjXjXjXjXjXjXjXjXjXjX",
"jXjXjXjXjXjXjXjXjXjXjXjXjXjXjXjXjXjXjXjXjXjXjXjXjXjXjXjXjXjXjXjXjXjXjXjXjXjXjXjXjXjXjXjXjXjXjXjXjXjXjXjXjXjXjXjXjXjXjXjXjXjXjXjXjXjXjXjXjXjXjXjXjXjXjX",
"jXjXjXjXjXjXjXjXjXjXjXjXjXjXjXjXjXjXjXjXjXjXjXjXjXjXjXjXjXjXjXjXjXjXjXjXjXjXjXjXjXjXjXjXjXjXjXjXjXjXjXjXjXjXjXjXjXjXjXjXjXjXjXjXjXjXjXjXjXjXjXjXjXjXjX",
"jXjXjXjXjXjXjXjXjXjXjXjXjXjXjXjXjXjXjXjXjXjXjXjXjXjXjXjXjXjXjXjXjXjXjXjXjXjXjXjXjXjXjXjXjXjXjXjXjXjXjXjXjXjXjXjXjXjXjXjXjXjXjXjXjXjXjXjXjXjXjXjXjXjXjX",
"jXjXjXjXjXjXjXjXjXjXjXjXjXjXjXjXjXjXjXjXjXjXjXjXjXjXjXjXjXjXjXjXjXjXjXjXjXjXjXjXjXjXjXjXjXjXjXjXjXjXjXjXjXjXjXjXjXjXjXjXjXjXjXjXjXjXjXjXjXjXjXjXjXjXjX",
"jXjXjXjXjXjXjXjXjXjXjXjXjXjXjXjXjXjXjXjXjXjXjXjXjXjXjXjXjXjXjXjXjXjXjXjXjXjXjXjXjXjXjXjXjXjXjXjXjXjXjXjXjXjXjXjXjXjXjXjXjXjXjXjXjXjXjXjXjXjXjXjXjXjXjX"
};
