/* XPM */
static char *result[] = {
/* columns rows colors chars-per-pixel */
"75 75 62 1 ",
"  c #16161D",
". c #282838",
"X c #232344",
"o c #3B3151",
"O c #5815BF",
"+ c #6B5798",
"@ c #8D03AE",
"# c #8D03B3",
"$ c #8703BD",
"% c #8C03BA",
"& c #8703C4",
"* c #8A03C3",
"= c #8503CC",
"- c #8903CC",
"; c #9103CD",
": c #8503D3",
"> c #8B03D3",
", c #8403DD",
"< c #8B03DA",
"1 c #9203DD",
"2 c #8303E3",
"3 c #8C03E3",
"4 c #8403EB",
"5 c #8C03EB",
"6 c #9303E1",
"7 c #9B03E7",
"8 c #9403EC",
"9 c #9A03E9",
"0 c #8503F4",
"q c #8B03F4",
"w c #8703FD",
"e c #8D03FE",
"r c #9403F4",
"t c #9C03F3",
"y c #9303FE",
"u c #9B03FE",
"i c #A003EF",
"p c #AC05EF",
"a c #A203F1",
"s c #AD04F5",
"d c #A303FE",
"f c #AB03FF",
"g c #B603F5",
"h c #B903F6",
"j c #B303FF",
"k c #BD03FE",
"l c #C607F6",
"z c #CA09F4",
"x c #C404FF",
"c c #CB04FF",
"v c #CC09F9",
"b c #D70AF7",
"n c #D403FF",
"m c #DB04FF",
"M c #D709FF",
"N c #DD09FF",
"B c #E307FF",
"V c #E509FF",
"C c #EA08FF",
"Z c #F209FF",
"A c #FE0DFF",
"S c None",
/* pixels */
".....    oooooooooo         XXXXX         XXXXXXXXXX....ooooooooooXXXXXXXXX",
".....    oooooooooo         XXXXX         XXXXXXXXXX....ooooooooooXXXXXXXXX",
".....    oooooooooo         XXXXX         XXXXXXXXXX....ooooooooooXXXXXXXXX",
".....    oooooooooo         XXXXX         XXXXXXXXXX....ooooooooooXXXXXXXXX",
".....    oooooooooo         XXXXX         XXXXXXXXXX....ooooooooooXXXXXXXXX",
"     OOOOOOOOOOOOOOOOOOOOOOOOOOOOOOOOOOOOOOOOOOOOOOOOOOOOOOOOOOOOOOOOOXXXXX",
"     OOOOOOOOOOOOOOOOOOOOOOOOOOOOOOOOOOOOOOOOOOOOOOOOOOOOOOOOOOOOOOOOOXXXXX",
"     OOOOOOOOOOOOOOOOOOOOOOOOOOOOOOOOOOOOOOOOOOOOOOOOOOOOOOOOOOOOOOOOOXXXXX",
"     OOOOOOOOOOOOOOOOOOOOOOOOOOOOOOOOOOOOOOOOOOOOOOOOOOOOOOOOOOOOOOOOOXXXXX",
"     OOOOqjfffsewwwyqeeeeeq2222:$2,,,&:::,%-4224-#00www4qqfjfffewwOOOO     ",
"     OOOOdjfjjjjewuyueeeeee02,-$$$<,*$*:>%%#-42-##<w0wwwqdfffjjjywOOOO     ",
"     OOOOddfjkxjjuyuuyeyyeee0=$$$&&*$$$$*%%%%--###%qwwwwwddsjkcjjyOOOO     ",
"     OOOO0dkkkkkdduuuuyeeeeey5$$&&qe$$$er%*%%65###qqewwwe0dkxkkkddOOOO     ",
"     OOOOwzvcxjfddduueeeeeeyyy5&&qeee$eeeq%*5ee3%qqyeeww0wzvckkffdOOOO     ",
"     OOOOzAAccffduduqyeeeyuyyyu8qyeeeneeeeq8ueeyjqeeeeewyzAAccfdduOOOO.....",
"     OOOOAAAAjfddud$eqeyedffyuuBceeennneyecNuyycckeyeeeewhAAAfjdudOOOO.....",
"     OOOOvAAvxfddu*$$qqedfjffuBCVcwnnnnnwcVVNuccnnkeyeyeezZAvvddddOOOO.....",
"     OOOOevxxjjdd:$$$&qdjjjjfcVVCCxnnmnncVCVBccnnnnjeyyyyMANxjjddfOOOO.....",
"     OOOOeyfjjjj22>$$&5fffjjcccCVjjcmnnckxVVnncnnncxuyyydfNAjjjjfjOOOO.....",
"+++++OOOOeeedjj2222:$5eedfjxccncjjjjxnckkkknccccnxcduuydfjjkvfjjjcOOOO     ",
"+++++OOOOeeeedee2222qeeeefkccck,1jjjfjjkkk61cccckcddudhjjffydjjjffOOOO     ",
"+++++OOOOeeeeeyww220weeeeykxxx:=63jjr,akj66>:ccxh2uuuxVMjjyywujjffOOOO     ",
"+++++OOOOeeeeyeeww0wwweeeeekk:::>1<t,,2a66:,>:xh222uxVVVMeewwwujjfOOOO     ",
"     OOOOeeeeeeeeudwwweeyeyy::::::*$,,,$;::::-:22228BNVVkfewwweufjOOOO     ",
"     OOOOe,3eqyyudddwwyyeey22,:::$@%%,$%#*,:::$$224wtBVjjfuewwwwujOOOO     ",
"     OOOO2,,,wwufffddeeeey2444:,%###%<$###*-:$$$$40008jjfffuwewwwyOOOO     ",
"     OOOO3,,,3uddfffxcyew242422:*#@#2,2###*=$$$$&$0000qddfffuewwwyOOOO     ",
"     OOOO022,44ddffnnccy44422240**#2,232%**03$$$$$&0w00qfdfduywwudOOOO     ",
"     OOOO0024040fdnnnnc2424424000*32224,5*q00,$$$$$0w000qdfuuuuydfOOOOXXXXX",
"     OOOO44:<40rrMmnnm,2244244000w44444q5dqw0w4$&$qqe00w45uuudkcffOOOOXXXXX",
"     OOOO0>$&,rrNVmMn,2222222240www042qqffdqqww5&qqeee000=-uujNNcfOOOOXXXXX",
"     OOOO:$$$&<NVVVm7,2222:22224wwww4qqfffffewwwrqeeeeq4==->jmBmmcOOOOXXXXX",
"     OOOO&$$&*4lVVCn77222&&$22::4wwwwqdjffkjjywyuyeeeqq====3dmmmmBOOOOXXXXX",
"oooooOOOOw$=&4q4lVmmn782=$$$&::::3wwwwddfjkkjjuyuuyeqq-*&=3uudmmmuOOOOXXXXX",
"oooooOOOOww&40044mmmmn8;$#$$======4www0dkkkkxdduuuuye-&&&&uuuufnfdOOOOXXXXX",
"oooooOOOOqq=0404cnnmmms&O$$:=::::::0wwqzvnkkfddduuuu8&&&&*&uuuuCdfOOOOXXXXX",
"oooooOOOOw=&&04nnnnnms22%*=-::::::2240lAAvvdfuudduudd8&&&&&*uuZZVfOOOOXXXXX",
"XXXXXOOOO>&&=&ccnnnnk2221;-::::=:2222pAAAAjjudddffddud1&$&&&*ZZZZBOOOO     ",
"XXXXXOOOO4-=&22nnnnmNg23%%=-::=::=2,4evAAccfdddffnndd7$$&&*&uuZZCfOOOO     ",
"XXXXXOOOO00-2242ncmNNBs%%@#:-::==:>0eeevxxjjddffmmnn8$#$$&&uyuuCdfOOOO     ",
"XXXXXOOOO00%32222MNNNNt1####--====::eeeefjjjjffmBmmhu*$#$$yuyydcduOOOO     ",
"XXXXXOOOOq###222lVNNMduq;#@**::==&&:>eeeedjjjjnnmmcurr&$$:5yudcnMuOOOO     ",
"XXXXXOOOO####%,lVVVNtdwww>%*q4::=&&&>eeeeedjjffnncuuuyr*:::2dncnncOOOO     ",
"XXXXXOOOO*@@##1BVVVmdwwwww<04q4>>&&&qeeeeeudffffcjuuuur&::,,fcnnnxOOOO     ",
"XXXXXOOOO,&@#>rrNVmnMqwwww0040qw:=&qqeeeeuunkffcAjjuuu$*&:,yyfnnxuOOOO     ",
"XXXXXOOOO,,&<04rrnmnnnqew0000www0>eqeeeeydnmnxnAAAjju$$$&&qyyyjxuuOOOO     ",
"XXXXXOOOO2,=,0q4xknnnncq000wqewww0eeeeeeydMnnnBAAAAj>$$$$>>eyyxmuuOOOO     ",
"     OOOO,=**2qhjccnnccyw00qyeew000eeeyyyffnnccBAAAd;>$&&&<>exAANuOOOOooooo",
"     OOOO:&&&=sjxxccxcyyy0qeyeee0440eeyyyudjccccBAddd>;&&&&<iZAAANOOOOooooo",
"     OOOO&&&&qqjcxxkkyyyyeeyeeuye000qyyuuudjjccccydddd-&&&&7kxAAAZOOOOooooo",
"     OOOO#&-qqwejckkdduyyyyeeuuyue000yuyudfjjjccwwudy==&--6ffxkZVgOOOOooooo",
"     OOOO##30wwwwfxffddyyyyyuuyuyuu0yyyyffjjjkjwwwwr====&6ffffcp:2OOOOooooo",
"     OOOO##%,wwwwwufffddyyyNNuuyujfxyeykkxjffjddww0::==&:ddsfj9:$&OOOO     ",
"     OOOO%*##<wwwweudddddyBNZZuuffCZxykVBjjjjfdddq=:====,2sdfi-$$$OOOO     ",
"     OOOO5;%#*<wwwewuddfdxmZZZZjjCZZZcVVVBxkfdfduq:===:2222d7&$*$$OOOO     ",
"     OOOO5d***q4qwwwwuddkccCZZCCCZZZNcMVVVBffdfdyeq==:22222<>02$$$OOOO     ",
"     OOOOjd8&0w04qwwwwukkcccCCCmMCZBxxxnVVjjffdyyeqe:222222:qw02$*OOOO.....",
"     OOOOff8f000w0qwwwqjcccccVmnnMmxxxxxMjjjjdeyeeeqe,22248fq00w2*OOOO.....",
"     OOOOffffd0wwwqqwq04jcchx5cnmh4xkcxx:tjjf3eeeeyyry224rfdfq0ww2OOOO.....",
"     OOOOfjjfffewwwe00004jkk333ch444xhk:::af33,eqyuyuyy4rffjdfewweOOOO.....",
"     OOOOkkffjjjewuuy04043s2225344444x::::::3,,2eyuyyuyrdfffjjjywyOOOO.....",
"     OOOOvcjjxxjjuyuuy0025#:22,::4004%,:,:##-,,,4yyuuywwddjjkkjjuyOOOO     ",
"     OOOOAckkkxkdduuuyr23##@:,::::44##$::####-2222yyrwwqqdjxkkxdduOOOO     ",
"     OOOOAZcnkkdfuduuuu8$@@@>5:::>>*%$#&##@##>422228,0w0wznckkffduOOOO     ",
"     OOOOAnZvvfdddduuudd1#@>ye5:::yr*#*er##@>ey0222:224wzAAvvffuddOOOO     ",
"     OOOOSNAAjfddudffdduu;>yeye5:yyyy;eeee@1yeey52,2228bAAANjdudddOOOO     ",
"     OOOOOOOOOOOOOOOOOOOOOOOOOOOOOOOOOOOOOOOOOOOOOOOOOOOOOOOOOOOOOOOOO     ",
"     OOOOOOOOOOOOOOOOOOOOOOOOOOOOOOOOOOOOOOOOOOOOOOOOOOOOOOOOOOOOOOOOO     ",
"     OOOOOOOOOOOOOOOOOOOOOOOOOOOOOOOOOOOOOOOOOOOOOOOOOOOOOOOOOOOOOOOOO     ",
"     OOOOOOOOOOOOOOOOOOOOOOOOOOOOOOOOOOOOOOOOOOOOOOOOOOOOOOOOOOOOOOOOO     ",
"XXXXX                                     XXXXXXXXXX    ooooo              ",
"XXXXX                                     XXXXXXXXXX    ooooo              ",
"XXXXX                                     XXXXXXXXXX    ooooo              ",
"XXXXX                                     XXXXXXXXXX    ooooo              ",
"XXXXX                                     XXXXXXXXXX    ooooo              "
};
