/* XPM */
static char *result[] = {
/* columns rows colors chars-per-pixel */
"75 75 60 1 ",
"  c #16161D",
". c #282838",
"X c #232344",
"o c #3B3151",
"O c #5815BF",
"+ c #6B5798",
"@ c #8D03AE",
"# c #8D03B3",
"$ c #8703BC",
"% c #8C03BA",
"& c #8703C4",
"* c #8A03C3",
"= c #8503CB",
"- c #8903CB",
"; c #9103CD",
": c #8503D3",
"> c #8B03D3",
", c #8403DD",
"< c #8B03DA",
"1 c #9203DD",
"2 c #8303E3",
"3 c #8C03E3",
"4 c #8403EB",
"5 c #8B03EC",
"6 c #9303E1",
"7 c #9B03E7",
"8 c #9503EA",
"9 c #9B03EC",
"0 c #8503F3",
"q c #8B03F4",
"w c #8703FE",
"e c #8D03FE",
"r c #9503F3",
"t c #9C03F2",
"y c #9303FE",
"u c #9B03FE",
"i c #A104EE",
"p c #AA06EF",
"a c #A203F0",
"s c #AD04F5",
"d c #A303FE",
"f c #AB03FE",
"g c #B303F4",
"h c #B903F6",
"j c #B203FF",
"k c #BC03FE",
"l c #C507F5",
"z c #CA09F4",
"x c #C404FF",
"c c #CA03FF",
"v c #C708FF",
"b c #CC09FB",
"n c #D403FF",
"m c #DB04FF",
"M c #DD09FF",
"N c #E307FF",
"B c #E509FF",
"V c #EC09FF",
"C c #F209FF",
"Z c #FD0DFF",
/* pixels */
".....    oooooooooo         XXXXX         XXXXXXXXXX....ooooooooooXXXXXXXXX",
".....    oooooooooo         XXXXX         XXXXXXXXXX....ooooooooooXXXXXXXXX",
".....    oooooooooo         XXXXX         XXXXXXXXXX....ooooooooooXXXXXXXXX",
".....    oooooooooo         XXXXX         XXXXXXXXXX....ooooooooooXXXXXXXXX",
".....    oooooooooo         XXXXX         XXXXXXXXXX....ooooooooooXXXXXXXXX",
"     OOOOOOOOOOOOOOOOOOOOOOOOOOOOOOOOOOOOOOOOOOOOOOOOOOOOOOOOOOOOOOOOOXXXXX",
"     OOOOOOOOOOOOOOOOOOOOOOOOOOOOOOOOOOOOOOOOOOOOOOOOOOOOOOOOOOOOOOOOOXXXXX",
"     OOOOOOOOOOOOOOOOOOOOOOOOOOOOOOOOOOOOOOOOOOOOOOOOOOOOOOOOOOOOOOOOOXXXXX",
"     OOOOOOOOOOOOOOOOOOOOOOOOOOOOOOOOOOOOOOOOOOOOOOOOOOOOOOOOOOOOOOOOOXXXXX",
"     OOOOjjkjjjjjkjkk4444-##%qeeeeyeydffjywwwwwwwyfffd4444:::,0000OOOO     ",
"     OOOOjjjjjjjjjkkj2422-#@%reeeeyyydjjfywwwwwwwyfddf2422:::2000wOOOO     ",
"     OOOOjjjjjfjjkjjk2444-@@%qeeeeyeydffjywwwwwwwufdfd4242:::20000OOOO     ",
"     OOOOjjjjjjfjjkkk4222-%#%qeeeyyyedjjjywwwwwwwuffff2242:::,0000OOOO     ",
"     OOOOdfuffjjji999----<336jkkkjuuuknnbfuuduuuyfcxccyyur:==:>>-:OOOO     ",
"     OOOOuyuuffjf>::,%%%%3yeycnnnxdducBBBkffffuuukmNmNduuu<::&####OOOO.....",
"     OOOOuuuuffjf<,:>%%%%5eeyxnnncuddxBBBkfffddudkmmMMuddu>=:&####OOOO.....",
"     OOOOuyuudfff>:::%**%8uuuxnnncuuuxMMMjdfdfuuujnmnnfffd<<:-##@%OOOO.....",
"     OOOOeeeeq<3<****qqrqxMMMcccck3228rrrqqe05>>:7ffdfCBBNauu8%%%#OOOO.....",
"     OOOOeeeeq,,,*$$$eeeyvBBBnccch2224w0000004:==3uuuuCCCCfuur%##%OOOO.....",
"+++++OOOOeeee5,,,*$$%eeeexVBBncccl222400000000===3uuuuCCCBdud9%##%OOOO     ",
"+++++OOOOeeeeq2,,*$$$eeeecBBBncccx,22400000w00===3uuuuCCCBfuut%###OOOO     ",
"+++++OOOO2222=$$*qeeennnncxkk6:::>$$$$&&&qeeeq-&&&$&*&uuufcnnkuuuuOOOO     ",
"+++++OOOO222,=$$&qeeennnnckkk6::::$$$$*$$qeeeq-&&&*&&&uyudcnnkuuuuOOOO     ",
"     OOOO2222=$$&qeeennnnxxkk6:,::$$$$$$$qeeeq-&-&&&&&uuudcnnxuuuuOOOO     ",
"     OOOO2222=$%&qyeennnnxkkk6::,:$&$$$$$qeeeq-&&&%*&&uyuucnnxuuuuOOOO     ",
"     OOOO000qq558xcccxxxxjaat-***&2323522yuyyur896%#$$5458fjjxMMMMOOOO     ",
"     OOOOeeeeyeyuMBVVjjjjt22,%##%*q00wwwwyuuuuudd8@O$$:,:,qeuxZZZZOOOO     ",
"     OOOOeeeeeyyuNVBVjjjjr,,,%#@#*0000wwwuuuuudud8$$$#::,,yyexZZZZOOOO     ",
"     OOOOeeeeuuydMBVBjjjft,,:$%%%-0qqwqeeuuuuufff8****:::,yeyxCZZCOOOOXXXXX",
"     OOOOyeeeufffcncc1361-%%$<22,5ffffjkjfuddfcnnkruyr&&&&><:akxkxOOOOXXXXX",
"     OOOOeeeedfjjxccc=:::%##%2222qffjjkkkfduujmNmxuuuu$$$$&&&7fffjOOOOXXXXX",
"     OOOOeeeefjfjccxc::::$#@#,442qjffjkxkfuddfnmNxuuuu$$$$&&&8fjfjOOOOXXXXX",
"     OOOOyeeefjfjxccx::::%###2444qfffjkkkfddufmmmxuuuu$%$$&&&8ffffOOOOXXXXX",
"oooooOOOOqqqqufffkkkk::,:-*&&4444qddfkncbjdddjnnnckjkj>>;>=&&7adauOOOOXXXXX",
"oooooOOOO*$$&5eeeyeye222200w0wwwewww0zZZZvjjjjfffcZZZZddfa>==:2222OOOOXXXXX",
"oooooOOOO&$$$5eeeyeye44244000wwwww0ewzZZZcjjjjfffnZZZCdddu>&&:2222OOOOXXXXX",
"oooooOOOO$$$$5eeeyeee24224000ewewwww0zZZZvjjjjfffbZZZZdddr===:2222OOOOXXXXX",
"XXXXXOOOO::::0eeeeyee2244440444254440pbbbfddddxkxnBBNNuuu0:==:,222OOOO     ",
"XXXXXOOOO22220wweeeye4424222,:=:=:2224eeeeeewunnnnccccwww0:==:2222OOOO     ",
"XXXXXOOOO22220wwwyeew42442222::=::2225eeeeeeednmnnccccwww0:==:2222OOOO     ",
"XXXXXOOOO22220wwweyey42442222:=:::2220eeeeeeeunnnnccccwww0:==:2222OOOO     ",
"XXXXXOOOOewqwudufxccc2222=&&&=:::::==>:>>weewydfffkjjkuuudqwqqyyyyOOOO     ",
"XXXXXOOOOyeeeufffnnnn2222=$#O->>::====&&&qeeeyuyudjjjjdffdeeeeuuuuOOOO     ",
"XXXXXOOOOeeeeufffcnnn,22,&$$%-:::====-&&&qeeeeyuudfjjfffffeeeeuyyuOOOO     ",
"XXXXXOOOOeeyeufffnnnn,222-%$$::>::===&&&&eeeeyyuudfffjfffdyyeyuuuuOOOO     ",
"XXXXXOOOOyqqquudfnmmn7878>$&&&-;-=:::>=>>qwewyuuyfkkkkffffeqqyyeyuOOOO     ",
"XXXXXOOOO2232504rMBBBnnnns,2,%###%q040www00000uyukBBBNjjff32,22224OOOO     ",
"     OOOO,,,,404rMBBBmmNMs222%@##*0400www0q00qeyykBBBBjjjj3,,22222OOOOooooo",
"     OOOO,,,,4q4rMBBBmmmmg22,%@@#*0000wee04000eyekBBBBjjjf3,,,2222OOOOooooo",
"     OOOO22232,,6hlvznnnnxgfs1>>;,0000eeeeqwquxxxcnMmnaiai>=-,5q5qOOOOooooo",
"     OOOO040q:$$&5454nnnnnMMMuwwee000eeeeuuuufCCCMxxxk::::%@@1eeyeOOOOooooo",
"     OOOO0004:$$&4000nncnMNMMuwww0000wyeeuuuufBCCNxxkk:,::#@#>eyeeOOOOooooo",
"     OOOO000q:$$&4004nnnnMMMMuewww000wyeeuuyufBCCMxxxx::::##@1eyeyOOOO     ",
"     OOOO5455:*$&4044cncnnMNMtqwew000weyeuuuujCCCMxxxk:::=%##>yyyyOOOO     ",
"     OOOOCCCVkwwe:&&&2242lBBBmnnnxueyyeyyMCCCVnnnh4444%%%&yeexVCCCOOOO     ",
"     OOOOCCCCkww0:&&&4222lBBBMnnncyyyyyyyMCCCCmmnh5444%%%&qyekCCCCOOOO     ",
"     OOOOCCCCkww0>&&&434,zVBBnnnnceyyeyyeMCCCBnnMh4045%#%*qyekCCCVOOOO.....",
"     OOOOBVVVvtut>=--,,,,hMmNnnnncuyyuyyumBCCBccbg4444*$*;dddvVVVVOOOO.....",
"     OOOOMMNNCCCV8000%%%%1rqrxxcckfdfddddxcccx6553:::<yyydCZZBbcccOOOO.....",
"     OOOOMMMNCCZCt000#@@@:005kxxxxffdddfdxccck322,::::yyudZZZVcxxxOOOO.....",
"     OOOOMMMMCZZCi0w0##@#>q0qkxxxkfffddfdxcvvk322,::::yyefZZZBvxvxOOOO.....",
"     OOOOvvvvBCCChsss**&*>,23sjjjfuuuuuuujjjjs>>=,3555vvvbBBBMgjjsOOOO     ",
"     OOOOeyyynCCCnnnn,,,,=**=qeweewwwwwww04q43#@#>eeeyZZZCkfgdq450OOOO     ",
"     OOOOeeyynCCCmnnn,,,2=&&=0wwwwwwwwwww00002#@@>eyeyZZZZkjjd0000OOOO     ",
"     OOOOeeeybCCVmnnm,,,,=&&&0ewwwwwwwwww00003%@@>eyeeZZZZjjjd4000OOOO     ",
"     OOOOyyyynCCVMnnn,,22=&&=0wwwwewwweww04002#@#>yyyuZZZCkffd0404OOOO     ",
"     OOOOOOOOOOOOOOOOOOOOOOOOOOOOOOOOOOOOOOOOOOOOOOOOOOOOOOOOOOOOOOOOO     ",
"     OOOOOOOOOOOOOOOOOOOOOOOOOOOOOOOOOOOOOOOOOOOOOOOOOOOOOOOOOOOOOOOOO     ",
"     OOOOOOOOOOOOOOOOOOOOOOOOOOOOOOOOOOOOOOOOOOOOOOOOOOOOOOOOOOOOOOOOO     ",
"     OOOOOOOOOOOOOOOOOOOOOOOOOOOOOOOOOOOOOOOOOOOOOOOOOOOOOOOOOOOOOOOOO     ",
"XXXXX                                     XXXXXXXXXX    ooooo              ",
"XXXXX                                     XXXXXXXXXX    ooooo              ",
"XXXXX                                     XXXXXXXXXX    ooooo              ",
"XXXXX                                     XXXXXXXXXX    ooooo              ",
"XXXXX                                     XXXXXXXXXX    ooooo              "
};
