/* XPM */
static char *result[] = {
/* columns rows colors chars-per-pixel */
"75 75 62 1 ",
"  c #16161D",
". c #282838",
"X c #232344",
"o c #3B3151",
"O c #5815BF",
"+ c #6B5798",
"@ c #8D03AE",
"# c #8D03B3",
"$ c #8703BD",
"% c #8C03BA",
"& c #8703C4",
"* c #8A03C3",
"= c #8503CC",
"- c #8903CC",
"; c #9103CD",
": c #8503D3",
"> c #8B03D3",
", c #8403DD",
"< c #8B03DA",
"1 c #9203DD",
"2 c #8303E3",
"3 c #8C03E3",
"4 c #8403EB",
"5 c #8C03EB",
"6 c #9303E1",
"7 c #9B03E7",
"8 c #9403EC",
"9 c #9A03E9",
"0 c #8503F4",
"q c #8B03F4",
"w c #8703FD",
"e c #8D03FE",
"r c #9403F4",
"t c #9C03F3",
"y c #9303FE",
"u c #9B03FE",
"i c #A003EF",
"p c #AC05EF",
"a c #A203F1",
"s c #AD04F5",
"d c #A303FE",
"f c #AB03FF",
"g c #B603F5",
"h c #B903F6",
"j c #B303FF",
"k c #BD03FE",
"l c #C607F6",
"z c #CA09F4",
"x c #C404FF",
"c c #CB04FF",
"v c #CC09F9",
"b c #D70AF7",
"n c #D403FF",
"m c #DB04FF",
"M c #D709FF",
"N c #DD09FF",
"B c #E307FF",
"V c #E509FF",
"C c #EA08FF",
"Z c #F209FF",
"A c #FE0DFF",
"S c None",
/* pixels */
".....    oooooooooo         XXXXX         XXXXXXXXXX....ooooooooooXXXXXXXXX",
".....    oooooooooo         XXXXX         XXXXXXXXXX....ooooooooooXXXXXXXXX",
".....    oooooooooo         XXXXX         XXXXXXXXXX....ooooooooooXXXXXXXXX",
".....    oooooooooo         XXXXX         XXXXXXXXXX....ooooooooooXXXXXXXXX",
".....    oooooooooo         XXXXX         XXXXXXXXXX....ooooooooooXXXXXXXXX",
"     OOOOOOOOOOOOOOOOOOOOOOOOOOOOOOOOOOOOOOOOOOOOOOOOOOOOOOOOOOOOOOOOOXXXXX",
"     OOOOOOOOOOOOOOOOOOOOOOOOOOOOOOOOOOOOOOOOOOOOOOOOOOOOOOOOOOOOOOOOOXXXXX",
"     OOOOOOOOOOOOOOOOOOOOOOOOOOOOOOOOOOOOOOOOOOOOOOOOOOOOOOOOOOOOOOOOOXXXXX",
"     OOOOOOOOOOOOOOOOOOOOOOOOOOOOOOOOOOOOOOOOOOOOOOOOOOOOOOOOOOOOOOOOOXXXXX",
"     OOOOddudffNAAAb7222,,qeeye1@eeyy;yyyy:3yeee>;udddffddddfjAAMSOOOO     ",
"     OOOOuddffccAAzw422,,220ey<@##yq*%*yy:::5ey>@#1duuudududfccZvAOOOO     ",
"     OOOOduffkkMcl0w00,542225>@@@%#*#%#*:::::5>@@@#8uuuuduffkkMcAAOOOO     ",
"     OOOOuddjkkkkdqwwqyyy222,-####::O#%44::::,-#@#24yuuuuddkkkkkvAOOOO     ",
"     OOOOuujjkkjfddqwyuuyy2,3,-##::,<#4444::,22:#3304yuyuujkkkjfccOOOO     ",
"     OOOOywekjkfffdryyuyyye,,,3-::,:>x4405435223s20040yyywqjjjfjkkOOOO.....",
"     OOOOwwwefffjfr5yyyuuyqe,33fa:::xxx444hc352kkgq4000ywwwejffjjfOOOO.....",
"     OOOO2ww0wfffr422qyuyeeee3fjj9:xkxxx4hnmc8xkcxj500wwqwwwqdffffOOOO.....",
"     OOOO$50000f842222yqeeeeydjjjjnxxxxxBnnnmBxnxccfqwwww5w000d8sfOOOO.....",
"     OOOO*$2000>222222:0qeyydffjjVVmxxxNZZmnCCCcccxkuwwwww4w0q*rdfOOOO.....",
"+++++OOOO$$$50>,22222:==qeedfdffBVVVnxBZZZCCCZZCcxxdfuwwwwq4w***d5OOOO     ",
"+++++OOOO$$$&*7s2222:===:quddffkkBVVBcZZZCjjZZZZmxdddfuwwwww,*#**5OOOO     ",
"+++++OOOO$$$=ifdt2,:=====wddfffjkkVVkyxCCffuuZZmByddddfuwewwq,##*$OOOO     ",
"+++++OOOO*$-ifjfdd:==&=:wwwddfjffkkkyyyxjfuyuuBmyeyddffduewwww<%##OOOO     ",
"     OOOO2:pxffff6&=&::0wwwwkjfjjjfyyye0uyuuyuuyyyyyfddfxfwwwwq6##OOOO     ",
"     OOOOgVAkxff8&&*>>adywwccjjjfdyuyyq00eyuyuyeyyyyyddxkxjwwq0=&#OOOO     ",
"     OOOOZAAAkk8&&&=*ddfducccckjduuuueq004ryyeeyeyeyyyxkcxxjqq-&&&OOOO     ",
"     OOOOmAAAZi>&&&&>;dfdANccccjfyuyyee0000eyyeeqwyyycccxxxks-&&&:OOOO     ",
"     OOOOumAAxy><&&$$>>fAAABccnndfyyeeeeq00weeee000yxcnncxkkq,&&-,OOOO     ",
"     OOOOuumcyye:>$$$$>jZAAABnmnMdyyeeeeqwwwwwq0000qcnnnnxk500,-,,OOOOXXXXX",
"     OOOOuukfyyyy-&$$$tjjAAAnxnnnuyeeeeqq-wwww00w0wwenmnmnrr40<*,,OOOOXXXXX",
"     OOOOuxnnjyy,:&&$uyyjjAcdfxnuueeeeqq&::wq040wqwweqnmmBmrr<@#*,OOOOXXXXX",
"     OOOOknnncf,:::&ruuuukcffffdueeeyqq-&&>:4000<wwww0umVVVm1#@@@*OOOOXXXXX",
"     OOOOnnnncd5:::&uruuuxnnffjjdeeeew>&&&=::44**;wwwudMCVVl,##@##OOOOXXXXX",
"oooooOOOOunccdyu4:$#$ruuxmBnnjjjjdeeey:>&&==::**@@>wauMNNVl222%%#0OOOOXXXXX",
"oooooOOOOufcduuyy$$$$$ukBmmmffjjjjfeeee>:====-:##@#1uNNNNb22223#00OOOOXXXXX",
"oooooOOOOfdCuuuy&&$$#$9nnmmfjddjjcxvwee4:===:=--##%%pBNNMMn2442-00OOOOXXXXX",
"oooooOOOOdCZZuu&&&&$$9ddnnffduddvvAAve022::::::-;%$,2gmmnnnn22&&=4OOOOXXXXX",
"XXXXXOOOOBZZZZ**&&$&1dudfffduddjfAAAAp,222:=::::-;,222xnnnncc&&&&>OOOO     ",
"XXXXXOOOOdBZZuu&&&&&-8uduuududfdvvAAzw422:::::>--&&22fmnncnn04&=-wOOOO     ",
"XXXXXOOOOffCuuuu&&&&&&8uuuudddfkkccz00w0::=:-:-;$#$&snmmnnc4000-wwOOOO     ",
"XXXXXOOOOufnfuuuu*&&&=qyuuuuddkxkxkd0www4:-:=:=O$$$>7nmmmn4q404*wwOOOO     ",
"XXXXXOOOOdmmmduu3=&&-qqeyuuyykjkkjfddewww2:-::&&$$&297nmmVl404*&$wOOOO     ",
"XXXXXOOOOmmmmnd3===-qqyeeyyywekjkfffdqwwww2::22&$&22297nCVVl4&&$$$OOOO     ",
"XXXXXOOOOcBBmmk>===4qeeeyqywwwwjdfjfq04wwew42222=2222,7mVVVN<&$$$>OOOO     ",
"XXXXXOOOOfcmmkuu>:04weeeqe$3wwwqfdfqr240www0422222222,nmmBmrr<$$>0OOOO     ",
"XXXXXOOOOfdckuduu54w00eqq$$$2w000f5q42442ww004224422,mmnmnrr00,:04OOOO     ",
"XXXXXOOOOffyyuuuddq0w0qq$$$$$3000-52224,4*w0w0244242cnnncff4404240OOOO     ",
"     OOOOfywquufdsd0000w$&$$$$20**#3242,#**04224422wxcmnffudq5,,20OOOOooooo",
"     OOOOywwwwufffddr0000&$$$$$-&###2<2##@*=222442weecxfjffdy2,,,4OOOOooooo",
"     OOOOywwwwwufffjjr00w4&$$$::*###%,%@@@$,,2222wyeyeddfdfueq3,,,OOOOooooo",
"     OOOOfuwwwwwufjkNN90422$$:-,,*#%$,$%#%::,:42eeeeywwddfueeqe,2yOOOOooooo",
"     OOOOkfuwwwewfkVCNN82222>:::::;$,,,#-:::::>eyyeywwwwuueeeereeeOOOOooooo",
"     OOOOfjjdwwwyeMVVVxu222xk>>::66t2,,r1<:::-kkeeywewwwqwqeeeeeeeOOOO     ",
"     OOOOffjjuwyyjfMVcuuu2hhcc::66kkt2rjj63>>xckkyeeeew022wqeyeeeeOOOO     ",
"     OOOOffjfjdyfjjjkuuduxxcccc16kkkkgjjjj11cccckfeeeeq2222eedeeeeOOOO     ",
"     OOOOcjjjfckjfjdyuduvxMcccnnkkkkxnxjjjjncxxcjffee5$:2222jjdeeeOOOO     ",
"     OOOOjfjjjkANfdyyyucccnncnnVBxkcnnncjjCCcMcfjjfd5*$$:22jjjjfeeOOOO.....",
"     OOOOffdjjcNAMyyyeyjnnnnccVVBBcnnmnnxCCVVcfjjfjdq$$$$:dfjjccveOOOO.....",
"     OOOOduddccAZzeyyeyeknnxcuBVVxennnnnevVVNdfffjdeqq$&$dudfxcAAvOOOO.....",
"     OOOOddujfAAAhweeeeewkccyyyBcyywnnnweecVuuuffdeeyqq&udduffAAAAOOOO.....",
"     OOOOduddcvAAlrweeeeeqjyyey8reeeeneeeeqruyyyueeeeeqdduddfccAAzOOOO.....",
"     OOOOuffkkcMz0qwwweyqr%3ee5**qeee$eeeq**5yyeeyeeyeuudddfkkcMz0OOOO     ",
"     OOOOdfkkkkkd0wwqwwqr%@#83%%%*re$$$eq&&$$8yeeeeyeuuuuddkkkkkd0OOOO     ",
"     OOOOukjkkjfddwwwwwq%@@#--#%%%*$$$$*&-$$$=qeeeeeeyuuuykjkkjfddOOOO     ",
"     OOOOwwjkjfjffqwwwww:##-24-%%%::*$*,,$$$=220eeeeeeuuuwejjkffjfOOOO     ",
"     OOOOwwefffffqq4www0w#-2422-#,:::-,<,,$=22220eeyee0ywwwefffffqOOOO     ",
"     OOOOOOOOOOOOOOOOOOOOOOOOOOOOOOOOOOOOOOOOOOOOOOOOOOOOOOOOOOOOOOOOO     ",
"     OOOOOOOOOOOOOOOOOOOOOOOOOOOOOOOOOOOOOOOOOOOOOOOOOOOOOOOOOOOOOOOOO     ",
"     OOOOOOOOOOOOOOOOOOOOOOOOOOOOOOOOOOOOOOOOOOOOOOOOOOOOOOOOOOOOOOOOO     ",
"     OOOOOOOOOOOOOOOOOOOOOOOOOOOOOOOOOOOOOOOOOOOOOOOOOOOOOOOOOOOOOOOOO     ",
"XXXXX                                     XXXXXXXXXX    ooooo              ",
"XXXXX                                     XXXXXXXXXX    ooooo              ",
"XXXXX                                     XXXXXXXXXX    ooooo              ",
"XXXXX                                     XXXXXXXXXX    ooooo              ",
"XXXXX                                     XXXXXXXXXX    ooooo              "
};
