/* XPM */
static char *result[] = {
/* columns rows colors chars-per-pixel */
"75 75 59 1 ",
"  c #16161D",
". c #282838",
"X c #232344",
"o c #3B3151",
"O c #5815BF",
"+ c #6B5798",
"@ c #8D03AE",
"# c #8D03B3",
"$ c #8703BC",
"% c #8C03BA",
"& c #8703C4",
"* c #8A03C3",
"= c #8503CB",
"- c #8903CB",
"; c #9103CD",
": c #8503D3",
"> c #8B03D3",
", c #8403DD",
"< c #8B03DA",
"1 c #9203DD",
"2 c #8303E3",
"3 c #8C03E3",
"4 c #8403EB",
"5 c #8B03EC",
"6 c #9303E1",
"7 c #9B03E7",
"8 c #9503EA",
"9 c #9B03EC",
"0 c #8503F3",
"q c #8B03F4",
"w c #8703FE",
"e c #8D03FE",
"r c #9503F3",
"t c #9C03F2",
"y c #9303FE",
"u c #9B03FE",
"i c #AA06EF",
"p c #A203F0",
"a c #AD04F5",
"s c #A303FE",
"d c #AB03FE",
"f c #B303F4",
"g c #B903F6",
"h c #B203FF",
"j c #BC03FE",
"k c #C507F5",
"l c #CA09F4",
"z c #C404FF",
"x c #CA03FF",
"c c #C708FF",
"v c #CC09FB",
"b c #D403FF",
"n c #DB04FF",
"m c #DD09FF",
"M c #E307FF",
"N c #E509FF",
"B c #EC09FF",
"V c #F209FF",
"C c #FD0DFF",
/* pixels */
".....    oooooooooo         XXXXX         XXXXXXXXXX....ooooooooooXXXXXXXXX",
".....    oooooooooo         XXXXX         XXXXXXXXXX....ooooooooooXXXXXXXXX",
".....    oooooooooo         XXXXX         XXXXXXXXXX....ooooooooooXXXXXXXXX",
".....    oooooooooo         XXXXX         XXXXXXXXXX....ooooooooooXXXXXXXXX",
".....    oooooooooo         XXXXX         XXXXXXXXXX....ooooooooooXXXXXXXXX",
"     OOOOOOOOOOOOOOOOOOOOOOOOOOOOOOOOOOOOOOOOOOOOOOOOOOOOOOOOOOOOOOOOOXXXXX",
"     OOOOOOOOOOOOOOOOOOOOOOOOOOOOOOOOOOOOOOOOOOOOOOOOOOOOOOOOOOOOOOOOOXXXXX",
"     OOOOOOOOOOOOOOOOOOOOOOOOOOOOOOOOOOOOOOOOOOOOOOOOOOOOOOOOOOOOOOOOOXXXXX",
"     OOOOOOOOOOOOOOOOOOOOOOOOOOOOOOOOOOOOOOOOOOOOOOOOOOOOOOOOOOOOOOOOOXXXXX",
"     OOOO0004sdhjVCCCyeyy>#@#30000wwwwwewwwwwq-&&:,,3,bbbbBVVbyyyyOOOO     ",
"     OOOO0444shhjVCCCyyyy>@@#4040qwwwwwwwwwww0&&&=,,,,bbnnBVVbyeeeOOOO     ",
"     OOOO0000shdhCCCCyeey>@@#20000wwwwwwwwwww0-&&=,,,,bbbnBVVbyeyeOOOO     ",
"     OOOO0045shhjVCCCyyey>#@#20400wwwwwwewwwwq&&&=,,,<bbbmVVVbyyeyOOOO     ",
"     OOOOfhhhbNNNvccz3545<-:>aghhauuuuuuuhhhhd322:&&**dasgVVVBccccOOOO     ",
"     OOOOzzzcVCCCseyy::::,223jxxvjsdssdddjczzj550<@##@w009VCCVmmmmOOOO.....",
"     OOOOzzzzVCCCsyyy::::,223jzxccsssddssczzxj000>#@@#000tBCCVmmmmOOOO.....",
"     OOOOxxxxBCCVsyyy::::3538zxxxzsssssdszzxxjrrr<###%0009BVVBNmMnOOOO.....",
"     OOOOBBBBzsss;***5445fxxbNBBBnyyuyyyyxbbbbmmmk,2,2=-->tupzBBBBOOOO.....",
"     OOOOVVVVjyeq*%#%0554gbbbBVVVMyyyyyeyxbnbbNNBk2242&&&-wwwjVVVVOOOO.....",
"+++++OOOOBVVVjeyy*#%%4405gbbbBVVVMeyyyyyyxbnbbMNNl2222&&&=wwwjVVVBOOOO     ",
"+++++OOOOBVVVzeyw&#$#4444gbbbBVVVnyyyyyyyxbbbmNNNk2222&&&=wwwjBVVBOOOO     ",
"+++++OOOOyyyy>###::,:jzzzmVVBhuuuuyeyq000wewqsmmMbbxbx0005&$$:5555OOOO     ",
"+++++OOOOyeee<@##::::zzzzMVVBhyuuueeew000qwwwummmmbbbb4404&$$:0040OOOO     ",
"     OOOOeyyy>@##:,::jzzzmVBBhuyyyeyyww00wwwwtbmmmbbxb0005&$$:4000OOOO     ",
"     OOOOeyee<@##::::zzzzmVVBhyuuyeyeq00qwwwwsmmMbbbbb0444&$$:04q0OOOO     ",
"     OOOO5505,--:9pttmbmbvzzjuqyeyeeew0041>>-1ahfzbbbbkkkk6,,32222OOOO     ",
"     OOOO2222,,,3dhhhNNNNjyeeq5040wwwq000*##@%322dnnnnNNNmr4043,,,OOOO     ",
"     OOOO2222,3,3hhhhNNNNjyyy00000wwww405*@##%,22fnnnnBNNmq044,,,,OOOO     ",
"     OOOO42223,,3dhhhMMMNjyyyq000q0ww0450%##@$,22abbbbMBNmr005,323OOOOXXXXX",
"     OOOOyyyyeeeysdddjjjjduyyeeeew:::::::---==&$&>7777bbbbsssuwqqeOOOOXXXXX",
"     OOOOuyyueeeysddshhhhsyuueeeeq&&&--==::::=$@$=2223bbbbdddueeeyOOOOXXXXX",
"     OOOOuuuuyeeesdsdddhhsyuyyeeeq&&&&===::::=$$$&223,bbbbdddueeeeOOOOXXXXX",
"     OOOOuuyyewwysdsshhhdsuuyyeeeq&&&-==-::::=$$#=222,bbbbdddueeeyOOOOXXXXX",
"oooooOOOOyrey000wsussjhhjhsssyeeee>:>:=::::=::&&$:2222xxxzssuueewwOOOOXXXXX",
"oooooOOOO2222:===wwwwxxbxbbnbueeeeeee0222:=:=:22222244eyeywww0,222OOOOXXXXX",
"oooooOOOO2222:==:qwwwxxxxxbnbueeeeeye4222::=::22244224eeeewww02222OOOOXXXXX",
"oooooOOOO2222:===0wwwxxxxbbbbueeeweee4222:=:::22224424eyeewwwq2222OOOOXXXXX",
"XXXXXOOOO2222:==:ruyyMNMNbzzjdssshvvvi0404523440444422wwyyeew0::::OOOO     ",
"XXXXXOOOO2222:==>psssCCCCxdsdhhhhcCCCl0wwwwwww00002222wweyeee5$$$$OOOO     ",
"XXXXXOOOO2222:&&:sdssCCCCbdddhhhhcCCCl0w0wwwww00002224wweeeee5$$$&OOOO     ",
"XXXXXOOOO2222:&--sddsCCCCbdddhhhhcCCCl0wwwwwww00004224eyyeeee5$$%$OOOO     ",
"XXXXXOOOOdspp8-&&>>>>hjhhxbbbdssshvvbjsssq4442-&*-::,:zjzjdddueqeqOOOO     ",
"XXXXXOOOOddhd8&&&$$$%yuuuznnndssssjzjhdhdq4422#@@%:::=xzzzhhdsyeeyOOOO     ",
"XXXXXOOOOhddd8&&&$$$$uuuuzMMndussdjjzhdddq4242###&::::xxxzhhhseeeeOOOO     ",
"XXXXXOOOOdddd8&&&$&$$uuuuzMnndssudzjjhddhq4242##@%>::=xzxzhhhseweeOOOO     ",
"XXXXXOOOOzzjz9>>:&&&&rryrzbbbduuushhhhdsd5,3,,%#%-6<61xbxxdddsyeeyOOOO     ",
"XXXXXOOOOVCCVzeye,:::&&&&8sssuuuuueeeq0q0*%%#*,,,rhhhhNBBnsyyyeeeeOOOO     ",
"     OOOOCCCCzyyy,:::$$#%8sssuuuuuwwwwq00*###$,,,thhhhNNBMuyyeeeeeOOOOooooo",
"     OOOOCCCCcyyy,:::$$$#8suuuuuuuwwww00q*###%,2,thhhhBNBmuyyyeeeeOOOOooooo",
"     OOOObmnnzdhd8555$$$$<989yyuyy2432222-*&*-tttdzzzzxxvz85800q00OOOOooooo",
"     OOOOuuuujbbxsuyy&&&&&&&-qeeeq$$$&$$$>::>6jjjxbbnbeeeq&$$=2222OOOOooooo",
"     OOOOuuuuzbbxsuuu&&&&&&&-qeeeq$$$$$$$:,::6jjjznbbbeeeq&*$=2222OOOOooooo",
"     OOOOuuuuzbbxsuuu&&&&&&&-qeeeq$$$$$$$::::6jjjxbbnbeeeq&$$=2222OOOO     ",
"     OOOOyuuuzbbxsuuu&&&&&&&-qewyq$&$&&$$>:::6jjjxbbbbweeq&$&=2222OOOO     ",
"     OOOO###%9uusBVVVuuuu8-==40w000004222kxxxbNBBxeewe$$$*<,,0eeeeOOOO     ",
"     OOOO###%ruudBVVVuuuu3===0000w0004222zxxxbNNNzeeee%$$*,,,5eeeeOOOO     ",
"     OOOO##%%tuusBVVVuuuu3===000w00004222kxxxbNNNxeyee$$$*,,,0yeeeOOOO.....",
"     OOOO##%%8rusMBMBdsss7:-:qqqwqr8r5352zxxxxnMmzqrqq&&&&<<65yeyeOOOO.....",
"     OOOO####->><sdddnnnmhuuussdshMMmzuuuxbxbxuyu8*%%*:>:<dddsyuyuOOOO.....",
"     OOOO%###&::>usuunnnMjsuuddddjNNNcsuuxbbbxyee5%%#%:,:<dhhduyuyOOOO.....",
"     OOOO####&::,usssnnnnjuuuddddjNNNcussxbbbzyee5%#%%::><dhhsuuuuOOOO.....",
"     OOOO>>>>-:=:rryyxxxxhyuuuuuuhvbbjuuuhjjjf853<>--=t999hdhdssssOOOO     ",
"     OOOO00002:=:4442ddddywwwwwwwyhhhsyyyeeeeq%##-2442jhjhhhhhhhjhOOOO     ",
"     OOOO000q2=::2224ssdduwwwwwwwyhdhuyyyeeeer#@#-4242jjhjhdhhhhhhOOOO     ",
"     OOOO00002:=:2444ssddywwwwwwwydhhsyyyeeeeq%@#-4242jhjjdhdhhhhhOOOO     ",
"     OOOO00w02:::4442sdsdywwwwwwwyhddsyyyweeyq%##-2444hjhjhhhhjhhhOOOO     ",
"     OOOOOOOOOOOOOOOOOOOOOOOOOOOOOOOOOOOOOOOOOOOOOOOOOOOOOOOOOOOOOOOOO     ",
"     OOOOOOOOOOOOOOOOOOOOOOOOOOOOOOOOOOOOOOOOOOOOOOOOOOOOOOOOOOOOOOOOO     ",
"     OOOOOOOOOOOOOOOOOOOOOOOOOOOOOOOOOOOOOOOOOOOOOOOOOOOOOOOOOOOOOOOOO     ",
"     OOOOOOOOOOOOOOOOOOOOOOOOOOOOOOOOOOOOOOOOOOOOOOOOOOOOOOOOOOOOOOOOO     ",
"XXXXX                                     XXXXXXXXXX    ooooo              ",
"XXXXX                                     XXXXXXXXXX    ooooo              ",
"XXXXX                                     XXXXXXXXXX    ooooo              ",
"XXXXX                                     XXXXXXXXXX    ooooo              ",
"XXXXX                                     XXXXXXXXXX    ooooo              "
};
