/* XPM */
static char *result[] = {
/* columns rows colors chars-per-pixel */
"75 75 60 1 ",
"  c #16161D",
". c #282838",
"X c #232344",
"o c #3B3151",
"O c #5815BF",
"+ c #6B5798",
"@ c #8D03AE",
"# c #8D03B3",
"$ c #8703BC",
"% c #8C03BA",
"& c #8703C4",
"* c #8A03C3",
"= c #8503CB",
"- c #8903CB",
"; c #9103CD",
": c #8503D3",
"> c #8B03D3",
", c #8403DD",
"< c #8B03DA",
"1 c #9203DD",
"2 c #8303E3",
"3 c #8C03E3",
"4 c #8403EB",
"5 c #8B03EC",
"6 c #9303E1",
"7 c #9B03E7",
"8 c #9503EA",
"9 c #9B03EC",
"0 c #8503F3",
"q c #8B03F4",
"w c #8703FE",
"e c #8D03FE",
"r c #9503F3",
"t c #9C03F2",
"y c #9303FE",
"u c #9B03FE",
"i c #A104EE",
"p c #AA06EF",
"a c #A203F0",
"s c #AD04F5",
"d c #A303FE",
"f c #AB03FE",
"g c #B303F4",
"h c #B903F6",
"j c #B203FF",
"k c #BC03FE",
"l c #C507F5",
"z c #CA09F4",
"x c #C404FF",
"c c #CA03FF",
"v c #C708FF",
"b c #CC09FB",
"n c #D403FF",
"m c #DB04FF",
"M c #DD09FF",
"N c #E307FF",
"B c #E509FF",
"V c #EC09FF",
"C c #F209FF",
"Z c #FD0DFF",
/* pixels */
".....    oooooooooo         XXXXX         XXXXXXXXXX....ooooooooooXXXXXXXXX",
".....    oooooooooo         XXXXX         XXXXXXXXXX....ooooooooooXXXXXXXXX",
".....    oooooooooo         XXXXX         XXXXXXXXXX....ooooooooooXXXXXXXXX",
".....    oooooooooo         XXXXX         XXXXXXXXXX....ooooooooooXXXXXXXXX",
".....    oooooooooo         XXXXX         XXXXXXXXXX....ooooooooooXXXXXXXXX",
"     OOOOOOOOOOOOOOOOOOOOOOOOOOOOOOOOOOOOOOOOOOOOOOOOOOOOOOOOOOOOOOOOOXXXXX",
"     OOOOOOOOOOOOOOOOOOOOOOOOOOOOOOOOOOOOOOOOOOOOOOOOOOOOOOOOOOOOOOOOOXXXXX",
"     OOOOOOOOOOOOOOOOOOOOOOOOOOOOOOOOOOOOOOOOOOOOOOOOOOOOOOOOOOOOOOOOOXXXXX",
"     OOOOOOOOOOOOOOOOOOOOOOOOOOOOOOOOOOOOOOOOOOOOOOOOOOOOOOOOOOOOOOOOOXXXXX",
"     OOOO0000>%%%####uuyunZZCxfjff22222220yeuy2220yyyyCVCCcxxf4000OOOO     ",
"     OOOO00w0>####%##uuuuNZZZxfffa222222,yyuuy2225eeeyCCCVcxxfq004OOOO     ",
"     OOOO0000-###%###uuuumZZZkjffd2222222yuyuy2220yeeyCCCVcxxj0404OOOO     ",
"     OOOO0000-####%##uuuumZZCxfffd22,2222yyuuy2225eeeuCVVVcvcg5040OOOO     ",
"     OOOO3222:&--8rrrxxkcxvxxi8896:::::::qyyye2,,,>1>1kvkvVVVnddddOOOO     ",
"     OOOO::==::=>uuuunnnnjeyy:&&&&=======qweeq2,,-@#@#yeydZZZBjjjfOOOO.....",
"     OOOO=:=::=::uduunnnnfyyy>=&&&=&=&===0eeee3,,-#@##eeedZZZBjjjjOOOO.....",
"     OOOO:::::>><fffdccccjyyq>&&&----::::qyeyq333>##%#eyqdCZZBkkkkOOOO.....",
"     OOOO2242qutdmVBBfddd8,,,&$$$-dudy00qudddffffi::=:&**;dfdbCCCCOOOO.....",
"     OOOO4424ydufVCCCuuyy5,::&$$$>fdfywwwdffffjjja:::,%##*yyyvZZZZOOOO.....",
"+++++OOOO4444eudfBCCCuuuy4:::&$$%>ddfywwwddfdfjjjt:::,#%%*yyyvZZZZOOOO     ",
"+++++OOOO4422yudfVCCCuuyy5:::&$$$>fffywwwddfdfjjja::::%%#*yyyvZZZZOOOO     ",
"+++++OOOOddffcmmnfuuu&&&&$$$&ruuujZZZBcccjfjjkBBBnxkkk4454:::5yyyyOOOO     ",
"+++++OOOOffffcmNnfuuu$&&&$$$&yuuujZZZBccckjjjkBBBnvxxk4404:::5eyeyOOOO     ",
"     OOOOfdffcmNnfuuu&&&$$#%*ruuujZZZBcccjjffkBBBMxxxx4044:::5eeeyOOOO     ",
"     OOOOffffcmmnfyuu&&&&$%$&ruyujZZZNccckfjfkNBBMxxxc4554:::5yeyyOOOO     ",
"     OOOOyyyufkkk7638&&&&<889kcccccnnncnnfdddfkkkcmmmmhhhg,,,,>>><OOOO     ",
"     OOOOwwwwuuuu:===&&&&8dudnmmmnfffxnnnfuuuuyyyxCCCCnnMc822>@@@@OOOO     ",
"     OOOOwwwwuuuu>===&&&&9udfnNNmnfffcnnnfyyuyyyyxCCCCnnbb522>@@@@OOOO     ",
"     OOOOwwwwuuuu>==:=---8ddfcmmnnfffknnnduuuyyyekVVCVnnnc533>###%OOOOXXXXX",
"     OOOOwwwwufff5004qqqqyuuufffjjjjffuuuyyeeeqqqujffjCVCNchks3232OOOOXXXXX",
"     OOOOwwwwdffdq000eeeyyuuuuddddjjjueeeeeeee040quyyuCCCCccbj0000OOOOXXXXX",
"     OOOOwwwwufff0000eeeeyuuudduufjjjfeeeeeeee000yyuuyCCCVcccj0440OOOOXXXXX",
"     OOOOwwwwufffq000eeeeyuuuuduufjjjdeeeeeeee000quuuuCCCVcccj5000OOOOXXXXX",
"oooooOOOOeyyyfkkje0w0qqqqyuyyfffffvvcfeeeeqqqeq00euyuuBMMMvxkfq0q0OOOOXXXXX",
"oooooOOOOffjjnBBmr000&$$$3wwejkkkcZZZbeee:=&&=wwweeeyeeyyyddfuwwweOOOOXXXXX",
"oooooOOOOjjjfnBBNr000&$$&2wwekxkkcZZZbwee>&&&>wwweeeeeyyyyddduwwwwOOOOXXXXX",
"oooooOOOOfjjjnBBMr000&$$$2wwejkkkbZZZbeee:&&&:wwweeeeeyyyyddduwwwwOOOOXXXXX",
"XXXXXOOOOddddkvvl5044$$$$3wqqfkjkkzzzp055:-&&>0qqeqwqeyeyyddfywwwwOOOO     ",
"XXXXXOOOOyyyyuduu2222$$$$2000ffjfdw0w4222:===:400000q0eyyydffuwwwwOOOO     ",
"XXXXXOOOOyyeyuudd2222&$$$2w0qffffd0ww4222====:0440w00wyyyyfffuwwweOOOO     ",
"XXXXXOOOOyyyyuuuu32,2$$$$300qfffjdwww4242:===:4q000000yyyyfdfuwwwwOOOO     ",
"XXXXXOOOOeeeyjccvxxlh>::>-&*-5qqqqwww4:::==::-***<wqwqccccxkkfwwwwOOOO     ",
"XXXXXOOOOeeeeknnncccc::::*###,4244www3=:=::::-#@#>wwwwnnnncxcjwwwwOOOO     ",
"XXXXXOOOOeeyeknnccccc>:,,&##%22444www4:=:::::;##@>wwwennnncxxjewwwOOOO     ",
"XXXXXOOOOyeeeknnncccc>:::&##%,2424www4=::::::=#@@;ewwqnnnnxccjwwwwOOOO     ",
"XXXXXOOOOqqqqjccccnnn6661;%%%,22,4www4:::=====%$%1udtummnnkkkdqq00OOOO     ",
"XXXXXOOOO%%#%6yyumBBBkkkkt,,,%###*q004222&$$$&,,2smMMMBBVmrq53=&&=OOOO     ",
"     OOOO##@#5eeyNBBBkkkkr,,,%@##*w004222&$#%$222gMMMMBVBmr402&&&&OOOOooooo",
"     OOOO##@#5eeyMBBBxkkxt,,,%###&0004222$$$%$222sBMMMBBBMr40,&&=&OOOOooooo",
"     OOOO-==-<858xvbvccccftr9-$%$=0004222====>sssxnMnmzlll1<<>====OOOOooooo",
"     OOOO4422-#%*reywnnnnxjjf1:::,422424422227mmmnnnnn22,,##@&2,,2OOOOooooo",
"     OOOO4242-%%*qeeennnncjjj3::::2222442222,8nmmnnncc4222###&,,,,OOOOooooo",
"     OOOO4444>%%%reeennnncjjj6::::242442422227nmmnnnnc422,##@*<,,2OOOO     ",
"     OOOO4222=%%*qeeennnnxjjj1=:::222424422,27nmmnnnnn2223%##*,,,<OOOO     ",
"     OOOOjjkk9:::$$$$eeewcVBBnvcckweeeeeeccnnmBBBl0040&&&=00qsnnnnOOOO     ",
"     OOOOkkkjt:::&$$$eeeecBVVccccxeeyeyyecnnnmBBBz4004&&=-000fnnnnOOOO     ",
"     OOOOjkjk9:,:*$$$eyeecBVBcccckeeyeyeycnnnmBBBl4000&&&-000snnnnOOOO.....",
"     OOOOkkjja<<>*&**qqqqxNNNcxcckyeeyyeevcnnnmMMl5454==->9tthnmmmOOOO.....",
"     OOOOjjjjjfjf<<,,&&&&8uuujjjjfeeeewwwdffffrrr3&&&&ww0tVCCCCVCVOOOO.....",
"     OOOOjfjfjfjf3,,,$$$$5yyyffjffeeewwwwdfdfu040,$$$$wwwuCZZCCCCVOOOO.....",
"     OOOOjfjjjfjf<,,,&$$$8yyyfffffeeeewwwddffd504<$$$$wwwtCZZCCCCCOOOO.....",
"     OOOOjjjjffffq055===-qeeydfdfd555q000uuduu4442>:::kkkvVVCVnnnnOOOO     ",
"     OOOOjjjjdyuueeew22220eeeeyewq&$$:222weeew,,,20405CCVVBMMvyyyyOOOO     ",
"     OOOOkjjjfyuyyeee2222qeeeeeeee$$$:22,eeeee3,,40005CCCVMMMvyyeyOOOO     ",
"     OOOOjjjjfyuyyeee22220eeeeeeeq$$$:222weeeq22,24005CCCVmMMveeyyOOOO     ",
"     OOOOjjjjfuyueeee22220eeeyyeyq&&$:222qeyye2<320005CCVVMMMvyeeeOOOO     ",
"     OOOOOOOOOOOOOOOOOOOOOOOOOOOOOOOOOOOOOOOOOOOOOOOOOOOOOOOOOOOOOOOOO     ",
"     OOOOOOOOOOOOOOOOOOOOOOOOOOOOOOOOOOOOOOOOOOOOOOOOOOOOOOOOOOOOOOOOO     ",
"     OOOOOOOOOOOOOOOOOOOOOOOOOOOOOOOOOOOOOOOOOOOOOOOOOOOOOOOOOOOOOOOOO     ",
"     OOOOOOOOOOOOOOOOOOOOOOOOOOOOOOOOOOOOOOOOOOOOOOOOOOOOOOOOOOOOOOOOO     ",
"XXXXX                                     XXXXXXXXXX    ooooo              ",
"XXXXX                                     XXXXXXXXXX    ooooo              ",
"XXXXX                                     XXXXXXXXXX    ooooo              ",
"XXXXX                                     XXXXXXXXXX    ooooo              ",
"XXXXX                                     XXXXXXXXXX    ooooo              "
};
