/* XPM */
static char *result[] = {
/* columns rows colors chars-per-pixel */
"75 75 62 1 ",
"  c #16161D",
". c #282838",
"X c #232344",
"o c #3B3151",
"O c #5815BF",
"+ c #6B5798",
"@ c #8D03AE",
"# c #8D03B3",
"$ c #8703BD",
"% c #8C03BA",
"& c #8703C4",
"* c #8A03C3",
"= c #8503CC",
"- c #8903CC",
"; c #9103CD",
": c #8503D3",
"> c #8B03D3",
", c #8403DD",
"< c #8B03DA",
"1 c #9203DD",
"2 c #8303E3",
"3 c #8C03E3",
"4 c #8403EB",
"5 c #8C03EB",
"6 c #9303E1",
"7 c #9B03E7",
"8 c #9403EC",
"9 c #9A03E9",
"0 c #8503F4",
"q c #8B03F4",
"w c #8703FD",
"e c #8D03FE",
"r c #9403F4",
"t c #9C03F3",
"y c #9303FE",
"u c #9B03FE",
"i c #A003EF",
"p c #AC05EF",
"a c #A203F1",
"s c #AD04F5",
"d c #A303FE",
"f c #AB03FF",
"g c #B603F5",
"h c #B903F6",
"j c #B303FF",
"k c #BD03FE",
"l c #C607F6",
"z c #CA09F4",
"x c #C404FF",
"c c #CB04FF",
"v c #CC09F9",
"b c #D70AF7",
"n c #D403FF",
"m c #DB04FF",
"M c #D709FF",
"N c #DD09FF",
"B c #E307FF",
"V c #E509FF",
"C c #EA08FF",
"Z c #F209FF",
"A c #FE0DFF",
"S c None",
/* pixels */
".....    oooooooooo         XXXXX         XXXXXXXXXX....ooooooooooXXXXXXXXX",
".....    oooooooooo         XXXXX         XXXXXXXXXX....ooooooooooXXXXXXXXX",
".....    oooooooooo         XXXXX         XXXXXXXXXX....ooooooooooXXXXXXXXX",
".....    oooooooooo         XXXXX         XXXXXXXXXX....ooooooooooXXXXXXXXX",
".....    oooooooooo         XXXXX         XXXXXXXXXX....ooooooooooXXXXXXXXX",
"     OOOOOOOOOOOOOOOOOOOOOOOOOOOOOOOOOOOOOOOOOOOOOOOOOOOOOOOOOOOOOOOOOXXXXX",
"     OOOOOOOOOOOOOOOOOOOOOOOOOOOOOOOOOOOOOOOOOOOOOOOOOOOOOOOOOOOOOOOOOXXXXX",
"     OOOOOOOOOOOOOOOOOOOOOOOOOOOOOOOOOOOOOOOOOOOOOOOOOOOOOOOOOOOOOOOOOXXXXX",
"     OOOOOOOOOOOOOOOOOOOOOOOOOOOOOOOOOOOOOOOOOOOOOOOOOOOOOOOOOOOOOOOOOXXXXX",
"     OOOOSAAAvkffff55####&=2,,,*#0000>00ww&>040422eeeeeewevAzw0ddqOOOO     ",
"     OOOOMnAcxkjffdd**##&&&=,,*@@@00=--w0&$$:003,23eeeeeevAAAzddfjOOOO     ",
"     OOOOAAxkjjff88**%%1-&&&=*#@@%%-&&&=*&$$$>2,,,2qeeeefcAAAMkfffOOOO     ",
"     OOOOAvvkjffdf**##<q0=&&3<@##%22&&&04&&$$,4,,3wryeedjxxAvckjfjOOOO     ",
"     OOOOjckkkjfde0**<wwqq&240<#%3222&4004&&<0443qweeedjjjcjvkkxjfOOOO     ",
"     OOOOjfkkkkfq000,wwwwqf440r1<2244c400446r404uweeeyqjjjdjfkkkjfOOOO.....",
"     OOOOufdkkjew004ewwwwjkx4rrmz222cnn440vmrq0dddeeeee2jddddfkjkeOOOO.....",
"     OOOOdufdkewww4qwwewjxxkkrmVVl2nnnnn4lVVmrfdffuewq222dudufdkewOOOO.....",
"     OOOOududuwwe4wwwwefxxxcxnVCVVMnnnnnnVVCVndfdfduw2222:ddduduwwOOOO.....",
"     OOOOddduyuw0wwwweukxxxcnmnVVNNmnnnnmmCVnmnjfddd0222:$*uuuuuywOOOO.....",
"+++++OOOOfuuuuyewewewudfkxxnnnmmNNNNnnnmmmnmmnnnfddww02>$$*$uuuuuyOOOO     ",
"+++++OOOOfuuuuy0wwwwuffddxcnnmnttMBNmxmmmn77nnnnxfwwww0$&$&rruuuyqOOOO     ",
"+++++OOOOduuur0q0wwudddfdyxcnnewduMNs2snn773,nnccewewey4$$qqeeuueeOOOO     ",
"+++++OOOOdduq004qquddddfyyyxceeweuas222s7822,2xkyyeweeee5qqeeeeeeeOOOO     ",
"     OOOOdu840044fxfdduuyyyyeqwwwe1%22,&>,22222weeeyeeeeddeyeeeeeeOOOO     ",
"     OOOOd1#2440jxxxddyyyey00wwww>#%%,**%=,22244eyyeyeeffjdeeeeyyeOOOO     ",
"     OOOO;#@#33jccxxxuyeyy00w0wq>@@@%;$%%#=224424eeeeeffjfjdeeeeeeOOOO     ",
"     OOOO>@@@#skxcccNByyuee0000<%@##-==$#%&=242422eyexkjjjffueeewqOOOO     ",
"     OOOOe>@@:3kkncCCBmyeeyww004**#;-:==O&&22422242ykkcxjjffuyee02OOOO     ",
"     OOOOye>>222xxCZZZmueeyew0000*:-:::::&222442224:kcxxxffuyyeq22OOOOXXXXX",
"     OOOOee5,2238BCZZZuuuyeeeq404:-=::::=:22244242,:>xccncuuye5=22OOOOXXXXX",
"     OOOOy5::,35cmCCZuuuyyeewww4::=:=::::::240002,:::-cncCBuu5$$=2OOOOXXXXX",
"     OOOO5::::3cnnnZjuuyuuewwww::===:::==::4000w&:::::1cVCCV8&$*$-OOOOXXXXX",
"     OOOO::::<4hmnnCjfyuuq00we>:&====::=::3www0**%>::<6jCVCcq&&$$$OOOOXXXXX",
"oooooOOOOy>::444hnZZCffuq0000::&&&=::2::=2wwww**##$:61jjjCceeq&&*,OOOOXXXXX",
"oooooOOOOyy:44444NZZZCju004qqe*&&=>:,22:4wwew24#@##-1fjjjxeeyeq-,,OOOOXXXXX",
"oooooOOOOry*4044xxBZZZk0q00ee0q-&>:42220ewww442,##%#tjjjxnneeqe*,,OOOOXXXXX",
"oooooOOOOy*#%44xxxxmZxyyqqweeeqq>:ee424wwww444222%%,,tjxnnnnee$$&:OOOOXXXXX",
"XXXXXOOOO>#%#$hkxxxxcyyeyeeeeeeqeeeeepwwwwqq4242,<,,,,fnnmnnn$$$&&OOOO     ",
"XXXXXOOOOe*%$::kxxxnVkyyuyyyeeeeeeeevAz00ddq02422*%,,tkcnnnnee$$*:OOOO     ",
"XXXXXOOOOry*,::,kxmVVVkuyuyeyeeeeeevAAAzddjfqq,3##%$rkkkcnneeqe&:>OOOO     ",
"XXXXXOOOOer#:::::nVVVVkduyuuyyyeeefvAAAckffff55%###;3kkkxceeeeq*::OOOO     ",
"XXXXXOOOOe#%%:::ijVBBkkjdyudduuwedfvxAvMkjjffd**##*:16kkkVceeq*%%:OOOO     ",
"XXXXXOOOO@#@##=ijjjBkkjfjdffnndudjjjcjvkkkjfdq0&-*:,:66kVCVct**#%%OOOO     ",
"XXXXXOOOO1@#@%>fjjjfkjfjfkfnnnnfjjjjdffkkxjfqw00-:::::6nVVVm8%%%#=OOOO     ",
"XXXXXOOOOe<#@-33jjffdfjjjjcnnnkffjjdfdffkjjew003$>=:>:cnnVMuu5%%=4OOOO     ",
"XXXXXOOOOyy>-,,33dfdffjjkcccnxfffjffduuffjewww2$$$:>:cccncuuee8-42OOOO     ",
"XXXXXOOOOey4,,22qedfffdjxcccVnfffnffudduduwww2$$$$$:lccccccyee3-24OOOO     ",
"     OOOOy42223qwyyddudwcccBAAnfnnmffduduuuw2$*$$$$2hkccnnxxu3##-4OOOOooooo",
"     OOOO02222eweeyyudwwwcBAAAAcnmBnffuuuuuy$$$$$$222lknnnnxj####-OOOOooooo",
"     OOOO2222uuyeewqqewwwyAAAAjjxBmBnfduuuyqq$$&&42222xcnnnkqr%@##OOOOooooo",
"     OOOO,,2yyuyyew0::0wuduAAjjuuxmnnduuuyeeqq&$0w422ducxnkeyqq%>0OOOOooooo",
"     OOOO2:quyuuye0===:rddddhjyuuuknddduyeeeeqqw0005uuddcjeeeeqqw0OOOOooooo",
"     OOOO22,quuuqy:===::ddd;>uuuuur9dudrqqeeee000wtNxuduuyeeeywwewOOOO     ",
"     OOOO224wyuqq22:==&>>a;>$$uuur*%9u8*-qqee0000rNNVcuuyyeyewwewwOOOO     ",
"     OOOO64wwwyy2222:=&=>->$$*$rr$$$$1&&&-qq00000hBVVVkyyeyeww0wwwOOOO     ",
"     OOOObw0wwr522222==&&&*$$$&&&$$#$&&&**-000q0djkBVMfdyyyew0www4OOOO     ",
"     OOOOAzw0ddr422222:*-&&&$&&::$$$&$&&&&==04qfdfkjMjjjdyqwr0wwqqOOOO.....",
"     OOOOAAzddjfr42222d6&&&&:&:,::$&&&&*&&===0ddffffyjfffnzkzw0ddqOOOO.....",
"     OOOOAAckffff8242daf8*&:>e,::4u&&&&$u5=&>udfffueeyfjNAZAAzddfjOOOO.....",
"     OOOONvMkjjffd>:adjff8>>yyy:4yuu&*&uuu5>uuddduwwwyekANAAAMkfffOOOO.....",
"     OOOOjvkkkkddq0>7ffffkiyyyefduuuu&uuuudkuuuduewwwwdvjccAvvkjfjOOOO.....",
"     OOOOffkkkkfe000*ijfxkAxyyjccdyuuZuuufnmkuuyewwweujfjjxfvkkkjfOOOO     ",
"     OOOOufdkkjew002*=txkZAAxjnncnduZZZufnnBBkuwwwwwdjjjjjdjdkkxjfOOOO     ",
"     OOOOdufdjeww03$$$=pAAAAmknnnccCZZZCnnBmmcywwwwujjjjjdddffkjkeOOOO     ",
"     OOOOdudduwww2$$$$$:CAAmuuxnnnddCZCdfmmBcfdywwufjffjfddudfdkwwOOOO     ",
"     OOOOdduuuuw2&&$$$&2gCNuuuuxnuufdBffdumcffffyyjjfffcjfdddudywwOOOO     ",
"     OOOOOOOOOOOOOOOOOOOOOOOOOOOOOOOOOOOOOOOOOOOOOOOOOOOOOOOOOOOOOOOOO     ",
"     OOOOOOOOOOOOOOOOOOOOOOOOOOOOOOOOOOOOOOOOOOOOOOOOOOOOOOOOOOOOOOOOO     ",
"     OOOOOOOOOOOOOOOOOOOOOOOOOOOOOOOOOOOOOOOOOOOOOOOOOOOOOOOOOOOOOOOOO     ",
"     OOOOOOOOOOOOOOOOOOOOOOOOOOOOOOOOOOOOOOOOOOOOOOOOOOOOOOOOOOOOOOOOO     ",
"XXXXX                                     XXXXXXXXXX    ooooo              ",
"XXXXX                                     XXXXXXXXXX    ooooo              ",
"XXXXX                                     XXXXXXXXXX    ooooo              ",
"XXXXX                                     XXXXXXXXXX    ooooo              ",
"XXXXX                                     XXXXXXXXXX    ooooo              "
};
