/* XPM */
static char *result[] = {
/* columns rows colors chars-per-pixel */
"75 75 11 1 ",
"  c black",
". c #181425",
"X c #262B44",
"o c #3A4466",
"O c #00991C",
"+ c green",
"@ c #438748",
"# c #00C45C",
"$ c #5A6988",
"% c #99FF82",
"& c #B6FFB2",
/* pixels */
".....$$$$$$$$$$$$$$$$$$.....oooooooooooooooooooooooo$$$$$$$$$$$$$$.........",
".....$$$$$$$$$$$$$$$$$$.....oooooooooooooooooooooooo$$$$$$$$$$$$$$.........",
".....$$$$$$$$$$$$$$$$$$.....oooooooooooooooooooooooo$$$$$$$$$$$$$$.........",
".....$$$$$$$$$$$$$$$$$$.....oooooooooooooooooooooooo$$$$$$$$$$$$$$.........",
".....$$$$$$$$$$$$$$$$$$.....oooooooooooooooooooooooo$$$$$$$$$$$$$$.........",
"$$$$$oooooooooooooo                                  ooooooooooooo$$$$.....",
"$$$$$oooooooooooooo                                  ooooooooooooo$$$$.....",
"$$$$$oooooooooooooo                                  ooooooooooooo$$$$.....",
"$$$$$oooooooooooooo                                  ooooooooooooo$$$$.....",
"oooooooooooo       ooooooooo$$$$$XXXXoooooooooooooooo      ooooooooooo.....",
"oooooooooooo       ooooooooo$$$$$XXXXoooooooooooooooo      ooooooooooo.....",
"oooooooooooo       ooooooooo$$$$$XXXXoooooooooooooooo      ooooooooooo.....",
"oooooooooooo   ooooooooooooo$$$$$XXXXooooooooooooooooooo   ooooooooooo.....",
"oooooooooooo   ooooooooooooo$$$$$XXXXooooooooooooooooooo   ooooooooooo.....",
"oooooooooooo   oooooooooooooooooo....XXXXXXXXXXXXXXXXXXX   XXXXXXXXXXX.....",
"oooooooo    oooooooooo                           XXXXXXXXXX    XXXXXXX.....",
"oooooooo    oooooooooo                           XXXXXXXXXX    XXXXXXX.....",
"oooooooo    oooooooooo                           XXXXXXXXXX    XXXXXXX.....",
"oooooooo    oooooooooo                           XXXXXXXXXX    XXXXXXX.....",
"XXXXXooo    ooooooo   %%%@@@@&&&++++@@@###++++&&&    $$$$$$    ............",
"XXXXXooo    ooooooo   %%%@@@@&&&++++@@@###++++&&&    $$$$$$    ............",
"XXXXXooo    ooooooo   %%%@@@@&&&++++@@@###++++&&&    $$$$$$    ............",
"XXXXXooo    ooo    %%%###       &&&&###       @@@&&&&   $$$    ............",
".....XXX    ooo    %%%###       &&&&###       @@@&&&&   ooo    $$$.........",
".....XXX    ooo    %%%###       &&&&###       @@@&&&&   ooo    $$$.........",
".....XXX    ooo    %%%###       &&&&###       @@@&&&&   ooo    $$$.........",
".....              +++@@@       @@@@&&&       &&&++++             .........",
".....              +++@@@       @@@@&&&       &&&++++             .........",
".....              +++@@@       @@@@&&&       &&&++++             $$$$.....",
".....              OOO&&&####&&&       &&&####@@@OOOO             $$$$.....",
".....              OOO&&&####&&&       &&&####@@@OOOO             $$$$.....",
".....              OOO&&&####&&&       &&&####@@@OOOO             $$$$.....",
".....              ###OOO++++             OOOO&&&####             $$$$.....",
".....              ###OOO++++             OOOO&&&####             XXXX.....",
".....              ###OOO++++             OOOO&&&####             XXXX.....",
".....              ###OOO++++             OOOO&&&####             XXXX.....",
".........$$$$$$    OOO@@@OOOO             ####OOO++++   ooooooooooXXXX.....",
".....$$$$oooooo    OOO@@@OOOO             ####OOO++++   XXXXXXXXXX.........",
".....$$$$oooooo    OOO@@@OOOO             ####OOO++++   XXXXXXXXXX.........",
".....$$$$oooooo    +++&&&++++   @@@@###   &&&&+++####   XXXXXXXXXX.........",
".....$$$$oooooo    +++&&&++++   @@@@###   &&&&+++####   XXXXXXXXXX.........",
".....$$$$oooooo    +++&&&++++   @@@@###   &&&&+++####   XXXXXXXXXX.........",
".....oooooooooo    +++&&&++++   @@@@###   &&&&+++####   .....$$$$$$$$$.....",
".....oooooooooo       %%%@@@@&&&++++@@@###++++&&&       .....$$$$$$$$$.....",
".....oooooooooo       %%%@@@@&&&++++@@@###++++&&&       .....$$$$$$$$$.....",
".....oooooooooo       %%%@@@@&&&++++@@@###++++&&&       .....$$$$$$$$$.....",
".....oooooooooooooo                                  XXX.....$$$$$$$$$.....",
".....XXXXoooooooooo                                  $$$$$$$$ooooooooo$$$$$",
".....XXXXoooooooooo                                  $$$$$$$$ooooooooo$$$$$",
".....XXXXoooooo    +++   OOOO+++&&&&+++%%%@@@@   @@@@   $$$$$ooooooooo$$$$$",
".....XXXXoooooo    +++   OOOO+++&&&&+++%%%@@@@   @@@@   $$$$$ooooooooo$$$$$",
".....XXXXoooooo    +++   OOOO+++&&&&+++%%%@@@@   @@@@   $$$$$ooooooooo$$$$$",
"$$$$$....oooooo    +++   OOOO+++&&&&+++%%%@@@@   @@@@   ooooooooooooooooooo",
"$$$$$....oooooo    OOO   &&&&###@@@@&&&@@@&&&&   ++++   ooooooooooooooooooo",
"$$$$$....oooooo    OOO   &&&&###@@@@&&&@@@&&&&   ++++   ooooooooooooooooooo",
"$$$$$....oooooo    OOO   &&&&###@@@@&&&@@@&&&&   ++++   ooooooooooooooooooo",
"ooooo....oooooo    %%%   @@@@+++%%%%+++%%%++++   OOOO   ooooooooooooooooooo",
"ooooo....oooooo    %%%   @@@@+++%%%%+++%%%++++   OOOO   ooooooooooooooooooo",
"ooooo....oooooo    %%%   @@@@+++%%%%+++%%%++++   OOOO   ooooooooooooooooooo",
"ooooo....oooooo    %%%   @@@@+++%%%%+++%%%++++   OOOO   ooooooooooooooooooo",
"ooooo....oooooooooo      %%%%&&&####&&&+++OOOO       oooooooooooooooooooooo",
"XXXXX....XXXXXooooo      %%%%&&&####&&&+++OOOO       oooooooooooooooooooooo",
"XXXXX....XXXXXooooo      %%%%&&&####&&&+++OOOO       oooooooooooooooooooooo",
"XXXXX....XXXXXoooooooo   ++++@@@&&&&+++%%%++++   XXXooooooooooooooooooooooo",
"XXXXX....XXXXXoooooooo   ++++@@@&&&&+++%%%++++   XXXooooooooooooooooooooooo",
"XXXXX....XXXXXoooooooo   ++++@@@&&&&+++%%%++++   XXXooooooooooooooooooooooo",
"..............XXXXXXXX   %%%%OOO       &&&@@@@   ...XXXXXXXXXXXXXXXXXXXXXXX",
"..............XXXXXXXX   %%%%OOO       &&&@@@@   ...XXXXXXXXXXXXXXXXXXXXXXX",
"..............XXXXXXXX   %%%%OOO       &&&@@@@   ...XXXXXXXXXXXXXXXXXXXXXXX",
"..............XXXXXXXX   %%%%OOO       &&&@@@@   ...XXXXXXXXXXXXXXXXXXXXXXX",
"......................          $oooooo          $$$.......................",
"......................          $oooooo          $$$.......................",
"......................          $oooooo          $$$.......................",
"............................$$$$$oooooooooooooo$$$$$.......................",
"............................$$$$$oooooooooooooo$$$$$......................."
};
