/* XPM */
static char *result[] = {
/* columns rows colors chars-per-pixel */
"75 75 11 1 ",
"  c black",
". c #181425",
"X c #262B44",
"o c #3A4466",
"O c #00991C",
"+ c green",
"@ c #438748",
"# c #00C45C",
"$ c #5A6988",
"% c #99FF82",
"& c #B6FFB2",
/* pixels */
".....$$$$$$$$$$$$$$$$$$.....oooooooooooooooooooooooo$$$$$$$$$$$$$$.........",
".....$$$$$$$$$$$$$$$$$$.....oooooooooooooooooooooooo$$$$$$$$$$$$$$.........",
".....$$$$$$$$$$$$$$                                  $$$$$$$$$$$$$.........",
".....$$$$$$$$$$$$$$                                  $$$$$$$$$$$$$.........",
".....$$$$$$$$$$$$$$                                  $$$$$$$$$$$$$.........",
"$$$$$ooooooo       oooo$$$$$XXXXXoooooooooooooooooooo      ooooooo$$$$.....",
"$$$$$ooooooo       oooo$$$$$XXXXXoooooooooooooooooooo      ooooooo$$$$.....",
"$$$$$ooooooo       oooo$$$$$XXXXXoooooooooooooooooooo      ooooooo$$$$.....",
"$$$$$ooooooo       oooo$$$$$XXXXXoooooooooooooooooooo      ooooooo$$$$.....",
"oooooooooooo   ooooooooooooo$$$$$XXXXooooooooooooooooooo   ooooooooooo.....",
"oooooooooooo   ooooooooooooo$$$$$XXXXooooooooooooooooooo   ooooooooooo.....",
"oooooooooooo   ooooooooooooo$$$$$XXXXooooooooooooooooooo   ooooooooooo.....",
"oooooooo    oooooooooo                           oooooooooo    ooooooo.....",
"oooooooo    oooooooooo                           oooooooooo    ooooooo.....",
"oooooooo    oooooooooo                           XXXXXXXXXX    XXXXXXX.....",
"oooooooo    ooooooo   %%%@@@@&&&++++@@@###++++&&&    XXXXXX    XXXXXXX.....",
"oooooooo    ooooooo   %%%@@@@&&&++++@@@###++++&&&    XXXXXX    XXXXXXX.....",
"oooooooo    ooooooo   %%%@@@@&&&++++@@@###++++&&&    XXXXXX    XXXXXXX.....",
"oooooooo    ooooooo   %%%@@@@&&&++++@@@###++++&&&    XXXXXX    XXXXXXX.....",
"XXXXXooo    ooo    %%%###       &&&&###       @@@&&&&   $$$    ............",
"XXXXXooo    ooo    %%%###       &&&&###       @@@&&&&   $$$    ............",
"XXXXXooo    ooo    %%%###       &&&&###       @@@&&&&   $$$    ............",
"XXXXX              +++@@@       @@@@&&&       &&&++++             .........",
".....              +++@@@       @@@@&&&       &&&++++             .........",
".....              +++@@@       @@@@&&&       &&&++++             .........",
".....              +++@@@       @@@@&&&       &&&++++             .........",
".....              OOO&&&####&&&       &&&####@@@OOOO             .........",
".....              OOO&&&####&&&       &&&####@@@OOOO             .........",
".....              OOO&&&####&&&       &&&####@@@OOOO             $$$$.....",
".....              ###OOO++++             OOOO&&&####             $$$$.....",
".....              ###OOO++++             OOOO&&&####             $$$$.....",
".....              ###OOO++++             OOOO&&&####             $$$$.....",
".........XXXXXX    OOO@@@OOOO             ####OOO++++   oooooooooo$$$$.....",
".........$$$$$$    OOO@@@OOOO             ####OOO++++   ooooooooooXXXX.....",
".........$$$$$$    OOO@@@OOOO             ####OOO++++   ooooooooooXXXX.....",
".........$$$$$$    OOO@@@OOOO             ####OOO++++   ooooooooooXXXX.....",
".........$$$$$$    +++&&&++++   @@@@###   &&&&+++####   ooooooooooXXXX.....",
".....$$$$oooooo    +++&&&++++   @@@@###   &&&&+++####   XXXXXXXXXX.........",
".....$$$$oooooo    +++&&&++++   @@@@###   &&&&+++####   XXXXXXXXXX.........",
".....$$$$oooooo       @@@####&&&++++OOO###++++&&&       XXXXXXXXXX.........",
".....$$$$oooooo       @@@####&&&++++OOO###++++&&&       XXXXXXXXXX.........",
".....$$$$oooooo       @@@####&&&++++OOO###++++&&&       XXXXXXXXXX.........",
".....oooooooooo       @@@####&&&++++OOO###++++&&&       .....$$$$$$$$$.....",
".....ooooooooooooooooo                           XXXXXXX.....$$$$$$$$$.....",
".....ooooooooooooooooo                           XXXXXXX.....$$$$$$$$$.....",
".....ooooooooooooooooo                           XXXXXXX.....$$$$$$$$$.....",
".....oooooooooooooo   OOO++++&&&####@@@###%%%%@@@    XXX.....$$$$$$$$$.....",
".....XXXXoooooooooo   OOO++++&&&####@@@###%%%%@@@    $$$$$$$$ooooooooo$$$$$",
".....XXXXoooooooooo   OOO++++&&&####@@@###%%%%@@@    $$$$$$$$ooooooooo$$$$$",
".....XXXXoooooo    +++   OOOO+++&&&&+++%%%@@@@   @@@@   $$$$$ooooooooo$$$$$",
".....XXXXoooooo    +++   OOOO+++&&&&+++%%%@@@@   @@@@   $$$$$ooooooooo$$$$$",
".....XXXXoooooo    +++   OOOO+++&&&&+++%%%@@@@   @@@@   $$$$$ooooooooo$$$$$",
"$$$$$....oooooo    +++   OOOO+++&&&&+++%%%@@@@   @@@@   ooooooooooooooooooo",
"$$$$$....oooooo    OOO   &&&&###@@@@&&&@@@&&&&   ++++   ooooooooooooooooooo",
"$$$$$....oooooo    OOO   &&&&###@@@@&&&@@@&&&&   ++++   ooooooooooooooooooo",
"$$$$$....oooooo    OOO   &&&&###@@@@&&&@@@&&&&   ++++   ooooooooooooooooooo",
"ooooo....oooooo    %%%   @@@@+++%%%%+++%%%++++   OOOO   ooooooooooooooooooo",
"ooooo....oooooo    %%%   @@@@+++%%%%+++%%%++++   OOOO   ooooooooooooooooooo",
"ooooo....oooooo    %%%   @@@@+++%%%%+++%%%++++   OOOO   ooooooooooooooooooo",
"ooooo....oooooo    %%%   @@@@+++%%%%+++%%%++++   OOOO   ooooooooooooooooooo",
"ooooo....oooooooooo      %%%%&&&####&&&+++OOOO       oooooooooooooooooooooo",
"XXXXX....XXXXXooooo      %%%%&&&####&&&+++OOOO       oooooooooooooooooooooo",
"XXXXX....XXXXXooooo      %%%%&&&####&&&+++OOOO       oooooooooooooooooooooo",
"XXXXX....XXXXXoooooooo   ++++@@@&&&&+++%%%++++   XXXooooooooooooooooooooooo",
"XXXXX....XXXXXoooooooo   ++++@@@&&&&+++%%%++++   XXXooooooooooooooooooooooo",
"XXXXX....XXXXXoooooooo   ++++@@@&&&&+++%%%++++   XXXooooooooooooooooooooooo",
"..............XXXXXXXX   %%%%OOO       &&&@@@@   ...XXXXXXXXXXXXXXXXXXXXXXX",
"..............XXXXXXXX   %%%%OOO       &&&@@@@   ...XXXXXXXXXXXXXXXXXXXXXXX",
"..............XXXXXXXX   %%%%OOO       &&&@@@@   ...XXXXXXXXXXXXXXXXXXXXXXX",
"..............XXXXXXXX   %%%%OOO       &&&@@@@   ...XXXXXXXXXXXXXXXXXXXXXXX",
"......................          $oooooo          $$$.......................",
"......................          $oooooo          $$$.......................",
"......................          $oooooo          $$$.......................",
"............................$$$$$oooooooooooooo$$$$$.......................",
"............................$$$$$oooooooooooooo$$$$$......................."
};
